<svg id="Capa_1" data-name="Capa 1" xmlns="http://www.w3.org/2000/svg" viewBox="0 0 334.5 345.3"><defs><style>.cls-1{fill:#2158a8;}.cls-2{fill:#ef9500;}</style></defs><path class="cls-1" d="M308.9,130.7a65.88,65.88,0,0,0-63.4-83.5,65.07,65.07,0,0,0-7.7.4A76.17,76.17,0,0,0,121.8,15,76.1,76.1,0,0,0,96.6,47.6a65.07,65.07,0,0,0-7.7-.4,65.88,65.88,0,0,0-63.4,83.5A54,54,0,0,0,0,176.9a54.56,54.56,0,0,0,54.5,54.5H64.8v21.9a14.3,14.3,0,0,0,14.3,14.3h2.7a83.51,83.51,0,0,0,7.5,18l-1.9,1.9a14.24,14.24,0,0,0,0,20.2l14.9,15a14.43,14.43,0,0,0,20.2,0l1.9-1.9a88.86,88.86,0,0,0,18,7.5V331a14.3,14.3,0,0,0,14.3,14.3h21.1A14.3,14.3,0,0,0,192.1,331v-2.7a85.65,85.65,0,0,0,18-7.5l1.9,1.9a14.24,14.24,0,0,0,20.2,0l15-15a14.43,14.43,0,0,0,0-20.2l-2-1.9a95,95,0,0,0,7.5-18h2.7a14.3,14.3,0,0,0,14.3-14.3V231.4H280a54.5,54.5,0,0,0,28.9-100.7ZM256.1,253.4a.86.86,0,0,1-.8.8h-7.9a6.74,6.74,0,0,0-6.6,5.3,75.75,75.75,0,0,1-9.8,23.7,6.8,6.8,0,0,0,.9,8.4l5.6,5.6a.78.78,0,0,1,0,1.1l-14.9,14.9a1,1,0,0,1-1.2,0l-5.6-5.6a6.79,6.79,0,0,0-8.4-.9,75.75,75.75,0,0,1-23.7,9.8,6.74,6.74,0,0,0-5.3,6.6V331a.86.86,0,0,1-.8.8H156.5a.86.86,0,0,1-.8-.8v-7.9a6.74,6.74,0,0,0-5.3-6.6,76.74,76.74,0,0,1-23.7-9.8,6.8,6.8,0,0,0-8.4.9l-5.6,5.6a.78.78,0,0,1-1.1,0L96.7,298.3a.73.73,0,0,1-.2-.6,1.42,1.42,0,0,1,.2-.6l5.6-5.6a6.79,6.79,0,0,0,.9-8.4,75.75,75.75,0,0,1-9.8-23.7,6.74,6.74,0,0,0-6.6-5.3H78.9a.86.86,0,0,1-.8-.8V231.4h31.4a61.2,61.2,0,0,0-1.1,11.4,58.6,58.6,0,0,0,117.2,0,62.88,62.88,0,0,0-1.1-11.4h31.4l.2,22ZM279.9,218H197.5a6.7,6.7,0,1,0,0,13.4h13.4a43.5,43.5,0,0,1,1.5,11.4,45.1,45.1,0,0,1-90.2,0,43.5,43.5,0,0,1,1.5-11.4h13.4a6.7,6.7,0,1,0,0-13.4H54.5a41,41,0,0,1-17.9-77.9,6.79,6.79,0,0,0,3.4-8.4,53.29,53.29,0,0,1-3.4-18.6A52.34,52.34,0,0,1,88.9,60.8a54.94,54.94,0,0,1,10.8,1.1,6.64,6.64,0,0,0,7.8-4.6,62.63,62.63,0,0,1,119.4,0,6.73,6.73,0,0,0,7.8,4.6,54.94,54.94,0,0,1,10.8-1.1,52.34,52.34,0,0,1,52.3,52.3,51.49,51.49,0,0,1-3.4,18.6,6.65,6.65,0,0,0,3.4,8.4A41,41,0,0,1,279.9,218Z"/><path class="cls-2" d="M238.4,95.7a6.7,6.7,0,0,0-6.7,6.7v66.5a6.7,6.7,0,1,0,13.4,0V102.4a6.7,6.7,0,0,0-6.7-6.7Z"/><path class="cls-2" d="M184.7,95.7H165.8a6.77,6.77,0,0,0-6.7,6.7v67.7a6.7,6.7,0,0,0,13.4,0V147.4c4.2,0,9.3-.1,12.1-.1a25.8,25.8,0,1,0,.1-51.6Zm0,38.2c-2.8,0-7.8,0-12,.1V109.2h12.1a12.72,12.72,0,0,1,12.7,12.4c0,6.7-5.9,12.3-12.8,12.3Z"/><path class="cls-2" d="M112.8,101a.1.1,0,0,0-.1-.1,8.39,8.39,0,0,0-7.7-5.2,8.24,8.24,0,0,0-7.7,5.2v.1L71.9,167.8a6.74,6.74,0,1,0,12.6,4.8l4.7-12.3h31.5l4.6,12.3a6.72,6.72,0,1,0,12.6-4.7ZM94.3,146.8,105,118.6l10.6,28.1H94.3Z"/><path class="cls-2" d="M167.2,218a6.7,6.7,0,1,0,0,13.4h0a6.7,6.7,0,1,0,0-13.4Z"/></svg>