<svg width="329" height="477" viewBox="0 0 329 477" fill="none" xmlns="http://www.w3.org/2000/svg">
<path fill-rule="evenodd" clip-rule="evenodd" d="M164.798 0.375C143.25 0.375001 121.912 4.62074 102.005 12.8698C82.0967 21.1189 64.0079 33.2097 48.7711 48.452C33.5343 63.6943 21.4478 81.7896 13.2017 101.705C4.9556 121.62 0.711398 142.964 0.711426 164.52C0.711466 208.054 17.9991 249.805 48.7712 280.588C79.5434 311.371 121.279 328.665 164.798 328.665C208.316 328.665 250.052 311.371 280.824 280.588C311.596 249.805 328.884 208.054 328.884 164.52C328.884 142.964 324.64 121.62 316.394 101.705C308.148 81.7896 296.061 63.6943 280.824 48.452C265.587 33.2097 247.499 21.1189 227.591 12.8698C207.683 4.62075 186.346 0.375001 164.798 0.375ZM164.707 8.09539C185.215 8.09541 205.522 12.1398 224.469 19.9976C243.416 27.8555 260.632 39.3729 275.133 53.8923C289.635 68.4116 301.138 85.6486 308.986 104.619C316.834 123.59 320.873 143.922 320.873 164.455C320.873 205.925 304.42 245.695 275.133 275.018C245.846 304.342 206.125 320.815 164.707 320.815C144.199 320.815 123.892 316.771 104.945 308.913C85.9975 301.055 68.7818 289.538 54.2804 275.019C39.7789 260.499 28.2758 243.262 20.4277 224.292C12.5795 205.321 8.54013 184.989 8.54012 164.455C8.54009 143.922 12.5795 123.59 20.4276 104.619C28.2757 85.6485 39.7788 68.4115 54.2803 53.8922C68.7817 39.3728 85.9974 27.8554 104.944 19.9975C123.892 12.1397 144.199 8.09537 164.707 8.09539Z" fill="#1A3F95"/>
<path d="M164.803 9.59375L137.353 136.82C137.353 136.82 18.7838 162.008 10.7007 164.635L137.116 192.39L164.544 319.223C164.544 319.223 171.058 293.287 177.16 264.074C179.955 250.69 182.967 236.183 185.774 223.417C188.577 210.668 191.177 199.657 192.75 192.423C192.75 192.423 220.463 186.211 250.883 179.725C283.536 172.764 318.359 165.081 319.375 164.603C319.375 164.603 300.496 159.89 277.004 154.921C247.662 148.714 211.068 140.663 192.686 136.82C192.686 136.82 188.227 116.311 182.831 91.3504C175.75 58.5949 167.155 18.1607 164.803 9.59375Z" fill="#1A3F95"/>
<path d="M164.836 70.7344L184.044 145.587L258.471 165.109L183.841 183.614L164.624 258.346L146.135 183.544L71.092 164.528L146.03 145.609L164.836 70.7344Z" fill="#EC1C24"/>
<path d="M203.105 164.536L174.564 174.424L165.029 202.801L155.177 174.452L126.732 164.375L155.543 155.168L164.887 125.898L174.331 155.222L203.105 164.536Z" fill="#FEF200"/>
<path fill-rule="evenodd" clip-rule="evenodd" d="M40.2427 394.836V457.544V464.527V476.656H108.962V457.544H66.783V444.721H101.066V425.355H66.783V413.491H107.234V394.836H66.783H61.8376H40.2427ZM116.38 394.836L144.285 476.656H171.683L199.969 394.836H172.952L157.864 448.631L143.397 394.836H116.38ZM210.001 394.836V476.656H235.738V433.649L264.048 476.656H289.463V394.836H264.048V438.475L235.738 394.836H210.001Z" fill="#1A3F95"/>
</svg>
