<svg xmlns="http://www.w3.org/2000/svg" viewBox="0 0 252.94 68.86"><defs><style>.cls-1{fill:#1d1d1b;}</style></defs><title>Black Logo + Claim</title><g id="Ebene_2" data-name="Ebene 2"><g id="Ebene_1-2" data-name="Ebene 1"><path class="cls-1" d="M6.86,60.9V59.6H0V60.9H2.7v7.68H4.16V60.9Zm10.78-1.31H16.18v3.83H11.66V59.59H10.2v9h1.46V64.73h4.52v3.85h1.46v-9Zm5.42,1.34h4.65V59.6H21.6v9h6.11V67.24H23.06V64.63h4.29V63.32H23.06V60.93Zm20.19,5.13a3.46,3.46,0,0,1-2.56,1.35c-1.93,0-2.83-1.33-2.83-3.32s.89-3.33,2.83-3.33a3.3,3.3,0,0,1,2.56,1.35l1.11-.9a4.47,4.47,0,0,0-3.68-1.81c-2.59,0-4.36,1.72-4.36,4.68,0,2.41,1.28,4.68,4.36,4.68a4.52,4.52,0,0,0,3.68-1.83l-1.11-.88Zm8.58-6.66a4.37,4.37,0,0,0-4.49,4.68,4.49,4.49,0,1,0,9,0,4.37,4.37,0,0,0-4.49-4.68Zm0,1.33c1.9,0,3,1.22,3,3.35s-1.06,3.35-3,3.35-3-1.24-3-3.35,1.06-3.35,3-3.35Zm15.44,8.12V59.6H65.81v5.77l-5.9-6.06v9.26h1.46V62.85l5.9,6ZM76.46,60c-2.28-1-5.67-.9-5.67,1.91,0,1.4,1,1.91,2.64,2.51.92.33,1.91.72,1.91,1.62,0,1.89-2.59,1.79-4,.67l-.67,1.16c1,1.13,6.16,1.95,6.16-1.89,0-1.56-1.06-2.19-2.85-2.8-.78-.27-1.71-.6-1.71-1.32,0-1.65,2.38-1.37,3.7-.64l.5-1.22Zm11.13-.37H86.13v5c0,1.93-.59,2.9-2.23,2.9s-2.21-1-2.21-2.9v-5H80.22V64.7c0,2.57,1.21,4.07,3.67,4.07s3.7-1.5,3.7-4.08v-5.1Zm9.9,7.68H92.88V59.6H91.41v9h6.07V67.27Zm8.79-6.37V59.6H99.41V60.9h2.69v7.68h1.46V60.9Zm4.89,7.68v-9H109.7v9Zm11.41.28V59.6h-1.46v5.77l-5.9-6.06v9.26h1.46V62.85l5.9,6Zm8.23-5.35v1.26h2v1.79a2.86,2.86,0,0,1-2.26.91c-1.7,0-2.84-1.36-2.84-3.38s1.12-3.38,2.86-3.38A3.15,3.15,0,0,1,133.19,62l1.05-.81a4.3,4.3,0,0,0-3.72-1.81,4.34,4.34,0,0,0-4.35,4.68c0,2.44,1.5,4.68,4.35,4.68a4.27,4.27,0,0,0,3.72-1.83V63.51Zm21.48-4.2-4.45,4.32-4.45-4.32v9.26h1.46v-6l3,2.94,3-2.94v6h1.46V59.31Zm9.27,7.42.84,1.85h1.55l-4.35-9.24-4.35,9.24h1.54l.85-1.85ZM161,65.47h-2.77l1.39-3,1.38,3Zm10.92,3.1h1.67l-1.79-3.11a2.77,2.77,0,0,0,1.53-2.7c0-2-1.35-3.17-3.66-3.17h-2.49v9h1.46V65.87h1.21l.51,0,1.56,2.73Zm-3.27-4V60.88h.76c1.53,0,2.47.43,2.47,1.87s-.73,1.84-2.47,1.84Zm10.53.23,3.17,3.76h1.85L180,63.78l3.55-4.18h-1.7L178.35,64V59.6h-1.46v9h1.46V65.76l.8-.95Zm9.45-3.89h4.65V59.6h-6.11v9h6.11V67.24H188.6V64.63h4.29V63.32H188.6V60.93Zm14.5,0V59.6h-6.86V60.9h2.69v7.68h1.46V60.9Zm3.34-1.31v9h1.46V65.64h1.46c1.9,0,3.22-.92,3.22-2.93,0-1.84-1.13-3.12-3.79-3.12Zm1.46,4.76V60.88h.63c2.13,0,2.59.79,2.59,1.81s-.44,1.67-1.82,1.67Zm14,2.91h-4.61V59.6h-1.46v9h6.07V67.27Zm8.8-.54.84,1.85h1.55l-4.35-9.24-4.35,9.24H226l.85-1.85Zm-.57-1.26H227.4l1.39-3,1.38,3Zm12.21.59a3.46,3.46,0,0,1-2.56,1.35c-1.93,0-2.83-1.33-2.83-3.32s.89-3.33,2.83-3.33a3.3,3.3,0,0,1,2.56,1.35l1.11-.9a4.47,4.47,0,0,0-3.68-1.81c-2.59,0-4.36,1.72-4.36,4.68,0,2.41,1.28,4.68,4.36,4.68a4.52,4.52,0,0,0,3.68-1.83l-1.11-.88Zm5.91-5.13h4.65V59.6h-6.11v9h6.11V67.24h-4.65V64.63h4.29V63.32h-4.29V60.93Z"/><path class="cls-1" d="M160.34,20.23a11.69,11.69,0,0,1,9.24,4.66l2.71-2.21a14.47,14.47,0,0,0-12-5.83c-8.4,0-14.12,5.56-14.09,15.17,0,7.82,4.2,15,14.18,14.95a14.51,14.51,0,0,0,11.81-6l-2.73-2.15a12,12,0,0,1-9.08,4.81c-6.88,0-10.31-4.48-10.33-11.58s3.34-11.75,10.26-11.77Z"/><path class="cls-1" d="M99.33,16.83,85.61,46.72h3.77l3-6.75h14.11l3,6.77h3.79L99.33,16.83ZM94,36.59l5.36-11.46,5.48,11.46Z"/><polygon class="cls-1" points="116.74 20.39 126.3 20.39 126.3 46.73 129.9 46.72 129.9 20.39 139.44 20.39 139.44 17 116.74 17 116.74 20.39 116.74 20.39"/><polygon class="cls-1" points="202.99 17.01 202.99 30.18 186.93 30.18 186.93 17.01 183.32 17.01 183.32 46.72 186.93 46.72 186.93 33.59 202.99 33.59 202.99 46.72 206.6 46.72 206.6 17.01 202.99 17.01 202.99 17.01"/><path class="cls-1" d="M70.45,15.63c4.44,0,7.54-3.21,7.54-7.81C78,4.05,75.63,0,70.45,0s-7.54,4.05-7.54,7.81c0,4.67,3,7.81,7.54,7.81Zm0-12.51c2.65,0,4.11,1.67,4.11,4.7s-1.46,4.7-4.11,4.7-4.11-1.67-4.11-4.7,1.46-4.7,4.11-4.7Z"/><polygon class="cls-1" points="48.04 16.8 48.04 46.8 51.66 46.8 51.66 26.15 62.25 36.93 64.56 34.54 48.04 16.8 48.04 16.8"/><path class="cls-1" d="M53.82,15.63A7.59,7.59,0,0,0,60,12.56l.09-.13-2.52-2-.1.15a4.83,4.83,0,0,1-3.55,1.89c-2.55,0-4-1.66-4-4.67,0-2.13.69-4.67,4-4.67A4.59,4.59,0,0,1,57.43,5l.1.15,2.52-2L60,3a7.4,7.4,0,0,0-6.15-3c-4.5,0-7.29,3-7.29,7.81,0,5.76,3.77,7.81,7.29,7.81Z"/><polygon class="cls-1" points="63.61 30.55 65.97 33.08 72.75 26.08 72.75 46.8 76.33 46.8 76.33 16.8 63.61 30.55 63.61 30.55"/></g></g></svg>