<?xml version="1.0" encoding="UTF-8" standalone="no" ?>
<!DOCTYPE svg PUBLIC "-//W3C//DTD SVG 1.1//EN" "http://www.w3.org/Graphics/SVG/1.1/DTD/svg11.dtd">
<svg xmlns="http://www.w3.org/2000/svg" xmlns:xlink="http://www.w3.org/1999/xlink" version="1.1" width="1080" height="1080" viewBox="0 0 1080 1080" xml:space="preserve">
<desc>Created with Fabric.js 5.2.4</desc>
<defs>
</defs>
<rect x="0" y="0" width="100%" height="100%" fill="transparent"></rect>
<g transform="matrix(1 0 0 1 540 540)" id="b471d53e-652d-4f0f-9719-39b20170db5a"  >
<rect style="stroke: none; stroke-width: 1; stroke-dasharray: none; stroke-linecap: butt; stroke-dashoffset: 0; stroke-linejoin: miter; stroke-miterlimit: 4; fill: rgb(255,255,255); fill-rule: nonzero; opacity: 1; visibility: hidden;" vector-effect="non-scaling-stroke"  x="-540" y="-540" rx="0" ry="0" width="1080" height="1080" />
</g>
<g transform="matrix(1 0 0 1 540 540)" id="263cd09e-f71c-4ce4-8109-1c0fe3accd35"  >
</g>
<g transform="matrix(2.22 0 0 2.22 270.8 452.25)"  >
<path style="stroke: none; stroke-width: 1; stroke-dasharray: none; stroke-linecap: butt; stroke-dashoffset: 0; stroke-linejoin: miter; stroke-miterlimit: 4; fill: rgb(226,28,33); fill-rule: nonzero; opacity: 1;" vector-effect="non-scaling-stroke"  transform=" translate(-121.66, -29)" d="M 119.74 36.6 C 121.42054351602386 37.90772660048741 123.0077357193763 39.331187397599265 124.49000000000001 40.859999999999985 Q 127 43.39 129.42 46.35 C 131.04 48.35 132.57 50.35 134.01 52.35 C 135.45 54.35 136.67 56.25 137.67 57.99 L 129.52999999999997 57.99 C 128.4152495568967 56.14939198952405 127.20700164894431 54.36705944022413 125.90999999999995 52.649999999999984 Q 123.85999999999997 49.92000000000001 121.60999999999997 47.42 C 120.17708223139958 45.809193536755494 118.6582030525551 44.27696157392117 117.05999999999995 42.829999999999984 C 115.67050781333144 41.562273808907875 114.19717048103576 40.38961756483581 112.64999999999996 39.31999999999999 L 112.64999999999998 58 L 105.64999999999998 58 L 105.64999999999998 1.2 L 112.64999999999998 0 L 112.64999999999998 35.4 L 116.64999999999998 31.45 Q 118.80999999999997 29.27 120.90999999999998 27.04 C 122.29999999999998 25.55 123.61999999999998 24.11 124.85999999999999 22.74 C 126.1 21.369999999999997 127.17999999999998 20.169999999999998 128.07999999999998 19.119999999999997 L 136.21999999999997 19.119999999999997 C 135.06999999999996 20.369999999999997 133.82999999999998 21.74 132.47999999999996 23.229999999999997 C 131.12999999999994 24.719999999999995 129.73999999999995 26.229999999999997 128.29999999999995 27.749999999999996 C 126.85999999999996 29.269999999999996 125.39999999999995 30.749999999999996 123.92999999999995 32.309999999999995 z" stroke-linecap="round" />
</g>
<g transform="matrix(2.22 0 0 2.22 337.77 455.56)"  >
<path style="stroke: none; stroke-width: 1; stroke-dasharray: none; stroke-linecap: butt; stroke-dashoffset: 0; stroke-linejoin: miter; stroke-miterlimit: 4; fill: rgb(226,28,33); fill-rule: nonzero; opacity: 1;" vector-effect="non-scaling-stroke"  transform=" translate(-151.86, -30.49)" d="M 151.86 12.1 C 150.68236849802062 12.12468593090798 149.54278734059488 11.682514062253823 148.69000000000003 10.87 C 147.796957031924 9.998585603196085 147.32005692426182 8.786312810436545 147.38000000000002 7.540000000000001 C 147.32166138332278 6.296895756755169 147.79853439433026 5.088332095270557 148.69000000000003 4.219999999999999 C 150.48848315599713 2.5786731819442625 153.24151684400292 2.5786731819442634 155.04000000000002 4.219999999999999 C 155.92779687798327 5.090085929561374 156.4009400144833 6.298420708930643 156.34000000000003 7.539999999999999 C 156.40384610439418 8.784999081472929 155.9304745477297 9.997558530467304 155.04000000000002 10.87 C 154.18354965717052 11.683107325996865 153.04068529095773 12.12515863745653 151.86 12.1 z M 155.37 58 L 148.43 58 L 148.43 19.12 L 155.37 19.12 z" stroke-linecap="round" />
</g>
<g transform="matrix(2.22 0 0 2.22 404.94 461)"  >
<path style="stroke: none; stroke-width: 1; stroke-dasharray: none; stroke-linecap: butt; stroke-dashoffset: 0; stroke-linejoin: miter; stroke-miterlimit: 4; fill: rgb(226,28,33); fill-rule: nonzero; opacity: 1;" vector-effect="non-scaling-stroke"  transform=" translate(-182.15, -32.94)" d="M 177.56 19.12 L 192.27 19.12 L 192.27 25 L 177.56 25 L 177.56 42.870000000000005 C 177.5248630508552 44.488103569463746 177.67246387585612 46.105003516064706 178 47.69000000000002 C 178.21314629936768 48.780562235245114 178.67513776467786 49.80720993593441 179.35 50.690000000000005 C 179.9359402434792 51.40267822961893 180.71300497291287 51.93344119213389 181.59 52.220000000000006 C 182.60571463946755 52.537626815315 183.66596056241914 52.68957288707558 184.73 52.67000000000001 C 186.42501283183876 52.72113980921437 188.11622918738487 52.48098708672682 189.73 51.96000000000001 C 191 51.49000000000001 191.88 51.150000000000006 192.38 50.96000000000001 L 193.72 56.71000000000001 C 192.5489247428814 57.23400472053275 191.33854465598412 57.66532801116743 190.1 58.00000000000001 C 188.1485068572344 58.55007196665307 186.12727074440227 58.81283266132125 184.1 58.78 C 181.8769390694774 58.85360714179999 179.65948986444803 58.514547630327606 177.56 57.78 C 175.9308081426861 57.17893541407642 174.4984944817876 56.141026964149965 173.42000000000002 54.78 C 172.31217261577083 53.303383461163634 171.5562804846011 51.59322026847198 171.21 49.78 C 170.76253317561336 47.53151243014431 170.55138530468463 45.242401384996576 170.58 42.94999999999999 L 170.58 8.29 L 177.53 7.1 z" stroke-linecap="round" />
</g>
<g transform="matrix(2.22 0 0 2.22 482.61 473.23)"  >
<path style="stroke: none; stroke-width: 1; stroke-dasharray: none; stroke-linecap: butt; stroke-dashoffset: 0; stroke-linejoin: miter; stroke-miterlimit: 4; fill: rgb(226,28,33); fill-rule: nonzero; opacity: 1;" vector-effect="non-scaling-stroke"  transform=" translate(-217.17, -38.46)" d="M 217.37 18.15 C 219.748811883589 18.0936591403611 222.11878679121676 18.45931241182367 224.37 19.23 C 227.93105459671287 20.430318327337382 230.63899482447155 23.35670157764125 231.56 26.999999999999996 C 232.06889604056042 28.95886082232544 232.31770025627165 30.97619230106526 232.3 32.99999999999999 L 232.3 57.29 L 229.8 57.699999999999996 C 228.73000000000002 57.879999999999995 227.52 58.04 226.18 58.19 C 224.84 58.339999999999996 223.38 58.47 221.81 58.599999999999994 C 220.24 58.72999999999999 218.68 58.779999999999994 217.14000000000001 58.779999999999994 C 215.1205153324216 58.795235545876444 213.10638053759376 58.57032382712067 211.14000000000001 58.10999999999999 C 209.4082086352286 57.727138151418096 207.76762928438222 57.010446136866165 206.31 55.99999999999999 C 204.95166040074656 55.010124524291484 203.87042908774785 53.687854383554225 203.17000000000002 52.16 C 202.38197655017598 50.344373605135054 201.99974755470734 48.37862448558208 202.05 46.400000000000006 C 201.9964972984831 44.477108192026705 202.44818718363723 42.57380424847648 203.36 40.879999999999995 C 204.20885307165327 39.35379840973166 205.43008790345135 38.06720171369648 206.91000000000003 37.13999999999999 C 208.51821379531555 36.133000308942066 210.28717234449618 35.40918170564445 212.14000000000001 35 C 214.19859636701517 34.544288415706774 216.30159226200544 34.319566366321844 218.41000000000003 34.32999999999999 C 219.11 34.32999999999999 219.83 34.32999999999999 220.58 34.43999999999999 C 221.33 34.54999999999999 222.03 34.61999999999999 222.71 34.73999999999999 C 223.39000000000001 34.859999999999985 223.96 34.97999999999999 224.46 35.07999999999999 L 225.46 35.29999999999999 L 225.46 33.38999999999999 C 225.45885264847024 32.246135227818414 225.33141390119903 31.105893804865588 225.08 29.98999999999998 C 224.85317892370642 28.9056252740453 224.3962176289068 27.882577599120786 223.74 26.989999999999995 C 223.04602623286573 26.082014432247096 222.13470704804664 25.36327590535204 221.09 24.899999999999995 C 219.70591545820093 24.33034096940824 218.2156954014606 24.06435203479555 216.72 24.119999999999994 C 214.7095708250012 24.09738701712113 212.70126425975576 24.25805154234077 210.72 24.599999999999998 C 209.40823493705045 24.81228102291364 208.11926127091516 25.14707937775398 206.87 25.599999999999994 L 206.05 19.849999999999994 C 207.49603840737686 19.299469685304246 208.99849216243592 18.910441480869316 210.52999999999997 18.69 C 212.78975223598457 18.30975967536997 215.0785758756686 18.12906307223702 217.36999999999998 18.149999999999995 z M 218 53 C 219.65 53 221.1 53 222.37 52.89 C 223.43970686895565 52.83725172631533 224.50327845437664 52.69678000748614 225.55 52.47 L 225.55 40.86 C 224.77353565903962 40.53519612392192 223.95572325109399 40.31980520166463 223.12 40.22 C 221.754075646656 40.04401442159402 220.37689817546084 39.97047581876321 219 40 C 217.8895572193219 40.005689569611185 216.78061950406388 40.08251356795737 215.68 40.230000000000004 C 214.56199012312038 40.35664173804791 213.47337003039553 40.67105685799639 212.46 41.16 C 211.5142689565743 41.610990251067385 210.68592972859707 42.2750307891979 210.04000000000002 43.099999999999994 C 209.34322654781283 44.03629569606998 208.99009953625213 45.18395848364229 209.04000000000002 46.349999999999994 Q 209.04000000000002 50.07999999999999 211.43 51.53999999999999 C 213.44479440321356 52.61962824011383 215.71757899186423 53.124691482036205 218 53 z" stroke-linecap="round" />
</g>
<g transform="matrix(2.22 0 0 2.22 608.38 472.53)"  >
<path style="stroke: none; stroke-width: 1; stroke-dasharray: none; stroke-linecap: butt; stroke-dashoffset: 0; stroke-linejoin: miter; stroke-miterlimit: 4; fill: rgb(255,255,255); fill-rule: nonzero; opacity: 1;" vector-effect="non-scaling-stroke"  transform=" translate(-273.89, -38.15)" d="M 247.54 20.24 C 249.13 19.84 251.23999999999998 19.419999999999998 253.85 18.97 C 256.8524856495207 18.49211518985563 259.88988992007313 18.267989544341297 262.92999999999995 18.299999999999997 C 265.0641157079633 18.238762468978425 267.19081080575654 18.577948289998083 269.2 19.299999999999994 C 270.839760196981 19.944413463289404 272.3007417782942 20.973273731819823 273.46 22.299999999999997 C 273.81 22.049999999999997 274.35999999999996 21.699999999999996 275.09999999999997 21.249999999999996 C 275.9840292081463 20.737429952404444 276.9108326659259 20.302468040811128 277.86999999999995 19.949999999999996 C 279.06189148739816 19.49033082914981 280.2849798868875 19.116052411819737 281.53 18.830000000000002 C 282.9482655964085 18.492498562217236 284.40217979504484 18.327967856135988 285.85999999999996 18.34 C 288.36538748862955 18.25125367935004 290.86089248956915 18.697853618042775 293.17999999999995 19.649999999999988 C 294.9757132465169 20.440972978834232 296.51385949130366 21.719297222812433 297.61999999999995 23.339999999999996 C 298.73267529869116 25.05339768069771 299.4720519559937 26.981910067947794 299.78999999999996 28.999999999999993 C 300.1760449654721 31.37023073744149 300.3633632831038 33.768574197118774 300.34999999999997 36.16999999999995 L 300.34999999999997 58 L 293.34999999999997 58 L 293.34999999999997 37.65 C 293.3683934822061 35.67492552414509 293.2581602830194 33.70074913871036 293.02 31.740000000000016 C 292.85725336378465 30.305840818358504 292.42644381787807 28.91503834732157 291.75 27.639999999999993 C 291.1735076596014 26.58796482166236 290.28651126273354 25.739381654580104 289.21 25.21 C 287.90318767508296 24.639515002036166 286.4850145027933 24.36954950658826 285.06 24.42 C 283.0876653301848 24.360473529167862 281.1222026246974 24.679564192925735 279.27 25.360000000000003 C 278.15485499346994 25.753732204265972 277.1086983113443 26.320681631998553 276.16999999999996 27.040000000000006 C 276.5916177595106 28.43156095843874 276.89272812159675 29.85681667231322 277.06999999999994 31.299999999999997 C 277.27419293929455 32.90853316288829 277.3744010395348 34.52856411677175 277.36999999999995 36.15 L 277.36999999999995 58 L 270.41999999999996 58 L 270.41999999999996 37.65 C 270.44219757672334 35.67358096219689 270.3185284857044 33.69821791375939 270.04999999999995 31.73999999999998 C 269.86574020364577 30.30516459900111 269.4218382140515 28.915853028515087 268.73999999999995 27.639999999999993 C 268.16614516227776 26.585944236720678 267.2784131755762 25.736657336057405 266.19999999999993 25.21 C 264.9199584461883 24.64409637781381 263.5288007582658 24.37406822708684 262.12999999999994 24.42 C 261.42999999999995 24.42 260.68999999999994 24.42 259.88999999999993 24.5 C 259.0899999999999 24.58 258.3299999999999 24.61 257.60999999999996 24.69 C 256.89 24.770000000000003 256.22999999999996 24.85 255.60999999999996 24.950000000000003 C 254.98999999999995 25.050000000000004 254.60999999999996 25.120000000000005 254.41999999999996 25.17 L 254.41999999999996 58 L 247.41999999999996 58 z" stroke-linecap="round" />
</g>
<g transform="matrix(2.22 0 0 2.22 733.66 473.33)"  >
<path style="stroke: none; stroke-width: 1; stroke-dasharray: none; stroke-linecap: butt; stroke-dashoffset: 0; stroke-linejoin: miter; stroke-miterlimit: 4; fill: rgb(255,255,255); fill-rule: nonzero; opacity: 1;" vector-effect="non-scaling-stroke"  transform=" translate(-330.38, -38.51)" d="M 313.42 38.62 C 313.35796108579274 35.55382458534691 313.86311055768556 32.50258616451782 314.91 29.619999999999997 C 315.79945917822346 27.242388465799994 317.15999670311777 25.068929769781313 318.91 23.230000000000004 C 320.50981566661306 21.569294225592348 322.446519302457 20.270202526197064 324.59000000000003 19.419999999999998 C 326.67898105564143 18.58159564053707 328.9090527651234 18.150516329876165 331.16 18.15 Q 339.01000000000005 18.15 343.16 23.04 Q 347.31 27.93 347.34000000000003 37.94 L 347.34000000000003 39.099999999999994 C 347.3407551296735 39.53790999270858 347.31403598239444 39.97543602940242 347.26000000000005 40.40999999999999 L 320.66 40.41 Q 321.11 46.41 324.17 49.599999999999994 Q 327.23 52.78999999999999 333.73 52.73 C 335.80453749830286 52.76935337560071 337.87622730780413 52.55781940801793 339.90000000000003 52.099999999999994 C 341.1900866987884 51.80056494258273 342.4515486853381 51.38900042177208 343.67 50.86999999999999 L 344.67 56.69 C 343.24791320256935 57.32828446941941 341.7585534430318 57.804611239361606 340.23 58.11 C 337.8635356815444 58.63662064242779 335.4441869853759 58.88828659556599 333.02000000000004 58.86 C 330.0213763507249 58.92992313219595 327.0382244639713 58.41008003575711 324.24000000000007 57.33 C 321.9163379112299 56.403194852679896 319.83383998657587 54.960150313757026 318.1500000000001 53.11 C 316.5276065740604 51.25696486329228 315.32057644196374 49.07817318416863 314.61000000000007 46.72 C 313.79912772974774 44.09726656451813 313.39774004066885 41.3651318741491 313.4200000000001 38.620000000000005 z M 340.08000000000004 34.809999999999995 C 340.2464898702822 32.03518939831393 339.41272360232506 29.292630567969777 337.73 27.08 C 336.1082485267367 25.073130123391238 333.6273934836123 23.958973666898242 331.05 24.079999999999995 C 329.58785112045285 24.045792438228283 328.13939376441726 24.368434598103505 326.83 25.019999999999996 C 325.643613492993 25.608676123173105 324.5890051301395 26.431951038690954 323.72999999999996 27.44 C 322.86066542891945 28.456196058697824 322.18301374745255 29.621756950820842 321.72999999999996 30.88000000000001 C 321.25172331406117 32.169109054564665 320.93595692832105 33.51279580239517 320.78999999999996 34.879999999999995 z" stroke-linecap="round" />
</g>
<g transform="matrix(2.22 0 0 2.22 826.24 472.54)"  >
<path style="stroke: none; stroke-width: 1; stroke-dasharray: none; stroke-linecap: butt; stroke-dashoffset: 0; stroke-linejoin: miter; stroke-miterlimit: 4; fill: rgb(255,255,255); fill-rule: nonzero; opacity: 1;" vector-effect="non-scaling-stroke"  transform=" translate(-372.13, -38.15)" d="M 375.41 18.3 C 376.01000000000005 18.3 376.69 18.3 377.47 18.41 C 378.25000000000006 18.52 379 18.59 379.74 18.71 L 381.8 19.080000000000002 C 382.2655308463576 19.169571887975785 382.72614067443516 19.28305546880649 383.18 19.42 L 381.99 25.42 C 381.0957087304294 25.12659279639637 380.1839252908737 24.889462304790303 379.26 24.71 C 377.64813047863595 24.407791900811795 376.00968837266277 24.270417409308926 374.37 24.299999999999997 C 373.075834907725 24.30118666464368 371.7853902597971 24.4386106401373 370.52 24.710000000000008 C 369.25 24.98 368.41999999999996 25.17 368.02 25.27 L 368.02 58 L 361.07 58 L 361.07 20.76 C 363.07576263173524 20.0709720383216 365.1232053895552 19.509845801268177 367.2 19.08000000000001 C 369.9019321461545 18.53409829692505 372.6536075764426 18.27267237297563 375.4099999999999 18.3 z" stroke-linecap="round" />
</g>
<g transform="matrix(2.22 0 0 2.22 901.36 473.23)"  >
<path style="stroke: none; stroke-width: 1; stroke-dasharray: none; stroke-linecap: butt; stroke-dashoffset: 0; stroke-linejoin: miter; stroke-miterlimit: 4; fill: rgb(255,255,255); fill-rule: nonzero; opacity: 1;" vector-effect="non-scaling-stroke"  transform=" translate(-406, -38.46)" d="M 406.18 18.15 C 408.57885488707933 18.086948204851755 410.96969957941496 18.452686486398843 413.24 19.229999999999997 C 416.7766219368881 20.452343093210665 419.4603505940749 23.37287133779632 420.38 26.99999999999999 C 420.8888960405604 28.95886082232544 421.13770025627167 30.97619230106526 421.12 32.99999999999999 L 421.12 57.29 L 418.62 57.699999999999996 C 417.55 57.879999999999995 416.34000000000003 58.04 415 58.19 C 413.65999999999997 58.339999999999996 412.2 58.47 410.63 58.599999999999994 C 409.06 58.72999999999999 407.5 58.779999999999994 405.96 58.779999999999994 C 403.94051533242157 58.795235545876444 401.92638053759373 58.57032382712067 399.96 58.10999999999999 C 398.2274887721685 57.72935187523486 396.5864942375497 57.01247848640551 395.13 55.99999999999999 C 393.77265790299055 55.00330651411775 392.6947378453244 53.67398657079781 392 52.13999999999999 C 391.21197655017596 50.32437360513505 390.82974755470735 48.35862448558208 390.88 46.379999999999995 C 390.8264972984831 44.45710819202671 391.2781871836372 42.55380424847648 392.19 40.86000000000001 C 393.03885307165325 39.33379840973166 394.26008790345134 38.04720171369648 395.74 37.12 C 397.35793135515615 36.11523543959505 399.13751296526084 35.39798961955286 401 35 C 403.0585963670151 34.54428841570678 405.1615922620054 34.31956636632185 407.27 34.33 C 407.96999999999997 34.33 408.69 34.33 409.44 34.44 C 410.19 34.55 410.89 34.62 411.57 34.739999999999995 C 412.25 34.85999999999999 412.82 34.98 413.32 35.08 L 414.37 35.3 L 414.37 33.39 C 414.3714003791548 32.249848320992285 414.2473201554164 31.113005189983724 414 30.000000000000007 C 413.77317892370644 28.915625274045308 413.3162176289068 27.892577599120788 412.66 26.999999999999996 C 411.96323477142363 26.09069204831713 411.04834145508374 25.37184729976437 410 24.91 C 408.61591545820096 24.340340969408246 407.12569540146063 24.074352034795556 405.63 24.13 C 403.6196088360216 24.108490638339607 401.61140218865586 24.26914717012888 399.63 24.610000000000017 C 398.32171992791154 24.823346604058656 397.03616378404564 25.15812684985707 395.79 25.610000000000003 L 394.97 19.86 C 396.4160384073769 19.309469685304247 397.91849216243594 18.92044148086931 399.45000000000005 18.7 C 401.67321348975605 18.322441528052092 403.9249845914863 18.13841862969376 406.18000000000006 18.150000000000002 z M 406.78000000000003 52.96 C 408.43 52.96 409.88000000000005 52.96 411.15000000000003 52.85 C 412.21970686895565 52.79725172631533 413.28327845437667 52.65678000748614 414.33000000000004 52.43 L 414.33000000000004 40.86 C 413.55353565903965 40.53519612392192 412.735723251094 40.31980520166463 411.90000000000003 40.22 C 410.5515979777685 40.033117647358615 409.1912211328718 39.94621396684924 407.83 39.96 C 406.71624666185716 39.965998125213495 405.60400202552074 40.042819826822324 404.50000000000006 40.19 C 403.3856317538826 40.31885769636997 402.30066366825133 40.63319424454352 401.2900000000001 41.12 C 400.34294531075864 41.57335705356164 399.5118446346252 42.236869527511786 398.86000000000007 43.059999999999995 C 398.16688100117983 43.99814407792655 397.81416095829667 45.14448421729694 397.86000000000007 46.309999999999995 Q 397.86000000000007 50.03999999999999 400.25000000000006 51.49999999999999 C 402.24906990752226 52.58634297399993 404.5072522585113 53.105067863201086 406.78000000000003 52.99999999999999 z" stroke-linecap="round" />
</g>
<g transform="matrix(2.22 0 0 2.22 1004.14 452.25)"  >
<path style="stroke: none; stroke-width: 1; stroke-dasharray: none; stroke-linecap: butt; stroke-dashoffset: 0; stroke-linejoin: miter; stroke-miterlimit: 4; fill: rgb(255,255,255); fill-rule: nonzero; opacity: 1;" vector-effect="non-scaling-stroke"  transform=" translate(-452.35, -29)" d="M 450.4 36.6 C 452.08054351602385 37.90772660048741 453.6677357193763 39.331187397599265 455.15 40.859999999999985 C 456.81 42.55 458.46 44.38 460.07 46.35 C 461.68 48.32 463.21999999999997 50.35 464.67 52.35 C 466.12000000000006 54.35 467.33000000000004 56.25 468.33000000000004 57.99 L 460.19000000000005 57.99 C 459.071690794287 56.14936770551481 457.8601129611285 54.367046595579176 456.56000000000006 52.64999999999998 Q 454.50000000000006 49.92000000000001 452.27000000000004 47.42 C 450.8363013608999 45.80661533773285 449.3139487740297 44.2742472733175 447.71 42.829999999999956 C 446.3258190288974 41.56018091248151 444.8556601334509 40.38739506634127 443.31000000000006 39.32000000000001 L 443.31000000000006 58 L 436.36000000000007 58 L 436.36000000000007 1.2 L 443.31000000000006 0 L 443.31000000000006 35.4 L 447.31000000000006 31.45 Q 449.4700000000001 29.27 451.56000000000006 27.04 C 452.96000000000004 25.55 454.2800000000001 24.11 455.56000000000006 22.74 C 456.84000000000003 21.369999999999997 457.88000000000005 20.169999999999998 458.77000000000004 19.119999999999997 L 466.91 19.119999999999997 C 465.77000000000004 20.369999999999997 464.52000000000004 21.74 463.18 23.229999999999997 C 461.84 24.719999999999995 460.44 26.229999999999997 459 27.749999999999996 C 457.56 29.269999999999996 456.1 30.749999999999996 454.63 32.309999999999995 z" stroke-linecap="round" />
</g>
<g transform="matrix(2.22 0 0 2.22 1071.01 455.56)"  >
<path style="stroke: none; stroke-width: 1; stroke-dasharray: none; stroke-linecap: butt; stroke-dashoffset: 0; stroke-linejoin: miter; stroke-miterlimit: 4; fill: rgb(255,255,255); fill-rule: nonzero; opacity: 1;" vector-effect="non-scaling-stroke"  transform=" translate(-482.5, -30.49)" d="M 482.52 12.1 C 481.3393147090423 12.12515863745653 480.1964503428295 11.683107325996865 479.34 10.870000000000001 C 478.4348358742672 10.004624325274149 477.94652465379727 8.79113450127046 478 7.540000000000003 C 477.93905998551674 6.298420708930646 478.41220312201676 5.090085929561377 479.3 4.220000000000002 C 481.09848315599714 2.5786731819442457 483.8515168440029 2.5786731819442474 485.65000000000003 4.220000000000001 C 486.5561668054519 5.081260337544002 487.0479806248186 6.290758026653257 487 7.539999999999997 C 487.0599430757382 8.786312810436545 486.58304296807603 9.998585603196089 485.69 10.870000000000003 C 484.83721265940517 11.682514062253832 483.6976315019794 12.124685930907988 482.52 12.100000000000001 z M 486 58 L 479.05 58 L 479.05 19.12 L 486 19.12 z" stroke-linecap="round" />
</g>
<g transform="matrix(2.22 0 0 2.22 39.12 418.4)"  >
<path style="stroke: none; stroke-width: 1; stroke-dasharray: none; stroke-linecap: butt; stroke-dashoffset: 0; stroke-linejoin: miter; stroke-miterlimit: 4; fill: rgb(226,28,33); fill-rule: nonzero; opacity: 1;" vector-effect="non-scaling-stroke"  transform=" translate(-17.19, -13.74)" d="M 30.38 17.59 L 13.82 0.08 L 4 10 L 20.92 27.39 L 30.380000000000003 17.59 z" stroke-linecap="round" />
</g>
<g transform="matrix(2.22 0 0 2.22 143.53 431.59)"  >
<path style="stroke: none; stroke-width: 1; stroke-dasharray: none; stroke-linecap: butt; stroke-dashoffset: 0; stroke-linejoin: miter; stroke-miterlimit: 4; fill: rgb(226,28,33); fill-rule: nonzero; opacity: 1;" vector-effect="non-scaling-stroke"  transform=" translate(-64.27, -19.68)" d="M 45.13 29.49 L 73.59 0.08 L 83.41 10 L 54.59 39.29 L 45.13 29.49 z" stroke-linecap="round" />
</g>
<g transform="matrix(2.22 0 0 2.22 16.32 453.24)"  >
<path style="stroke: none; stroke-width: 1; stroke-dasharray: none; stroke-linecap: butt; stroke-dashoffset: 0; stroke-linejoin: miter; stroke-miterlimit: 4; fill: rgb(226,28,33); fill-rule: nonzero; opacity: 1;" vector-effect="non-scaling-stroke"  transform=" translate(-6.91, -29.44)" d="M 13.82 0.08 L 13.82 58.809999999999995 L 0 58.809999999999995 L 0 0.08 L 13.82 0.08 z" stroke-linecap="round" />
</g>
<g transform="matrix(2.22 0 0 2.22 81.89 453.15)"  >
<path style="stroke: none; stroke-width: 1; stroke-dasharray: none; stroke-linecap: butt; stroke-dashoffset: 0; stroke-linejoin: miter; stroke-miterlimit: 4; fill: rgb(226,28,33); fill-rule: nonzero; opacity: 1;" vector-effect="non-scaling-stroke"  transform=" translate(-36.47, -29.41)" d="M 51.12 0.17 L 69.02 0 L 13.86 58.81 L 3.93 49 L 51.12 0.17 z" stroke-linecap="round" />
</g>
<g transform="matrix(2.22 0 0 2.22 179.48 453.26)"  >
<path style="stroke: none; stroke-width: 1; stroke-dasharray: none; stroke-linecap: butt; stroke-dashoffset: 0; stroke-linejoin: miter; stroke-miterlimit: 4; fill: rgb(226,28,33); fill-rule: nonzero; opacity: 1;" vector-effect="non-scaling-stroke"  transform=" translate(-80.48, -29.45)" d="M 73.57 58.82 L 73.57 0.09 L 87.38999999999999 0.09 L 87.38999999999999 58.82 L 73.57 58.82 z" stroke-linecap="round" />
</g>
<g transform="matrix(2.22 0 0 2.22 115.4 488.06)"  >
<path style="stroke: none; stroke-width: 1; stroke-dasharray: none; stroke-linecap: butt; stroke-dashoffset: 0; stroke-linejoin: miter; stroke-miterlimit: 4; fill: rgb(226,28,33); fill-rule: nonzero; opacity: 1;" vector-effect="non-scaling-stroke"  transform=" translate(-51.58, -45.15)" d="M 43.4 31.44 L 34.23 40.94 L 51.349999999999994 58.86 L 68.94 58.86 L 43.4 31.44 z" stroke-linecap="round" />
</g>
<g transform="matrix(2.22 0 0 2.22 159.66 414.8)"  >
<path style="stroke: none; stroke-width: 1; stroke-dasharray: none; stroke-linecap: butt; stroke-dashoffset: 0; stroke-linejoin: miter; stroke-miterlimit: 4; fill: rgb(159,29,33); fill-rule: nonzero; opacity: 1;" vector-effect="non-scaling-stroke"  transform=" translate(-71.55, -12.12)" d="M 73.64 19.93 L 73.59 0.08 L 69.45 24.15 L 73.64 19.93 z" stroke-linecap="round" />
</g>
<g transform="matrix(2.22 0 0 2.22 36.24 415.15)"  >
<path style="stroke: none; stroke-width: 1; stroke-dasharray: none; stroke-linecap: butt; stroke-dashoffset: 0; stroke-linejoin: miter; stroke-miterlimit: 4; fill: rgb(159,29,33); fill-rule: nonzero; opacity: 1;" vector-effect="non-scaling-stroke"  transform=" translate(-15.89, -12.27)" d="M 13.77 19.93 L 13.82 0.08 L 18.01 24.459999999999997 L 13.770000000000001 19.929999999999996 z" stroke-linecap="round" />
</g>
</svg>