<svg xmlns="http://www.w3.org/2000/svg" width="112" height="40" viewBox="0 0 112 40"><path fill="#FF6633" fill-rule="evenodd" d="M34.642 9.77v13.291c0 4.335-1.649 8.503-4.605 11.663l-.29.302V14.664h-4.892v23.867a17.765 17.765 0 01-4.387 1.386L19.96 40V9.77h14.681zm-19.558 0v30.227a16.398 16.398 0 01-4.428-1.254l-.466-.215V14.663H5.298v20.365a16.994 16.994 0 01-4.89-11.546l-.005-.42V9.772h14.68zm67.136-.303c5.884 0 8.75 2.315 8.75 6.229v.928h-5.392v-.493c0-1.477-1.068-2.232-3.216-2.232-2.169 0-3.244.666-3.244 2.028v.118c0 1.042.698 1.448 1.797 1.825.321.116 1.101.26 1.478.347.378.088 1.362.26 1.797.348 2.06.377 3.185.725 4.663 1.653 1.483.927 2.232 2.549 2.232 4.867v.262c0 3.94-3.039 6.463-8.923 6.463-6.03 0-8.896-2.32-8.896-6.261v-1.014h5.387v.579c0 1.506.811 2.29 3.394 2.29 2.29 0 3.416-.666 3.416-2.028v-.233c0-.781-.199-1.245-1.305-1.651-.549-.204-.984-.32-1.24-.406-.263-.057-.87-.175-1.83-.348-.262-.058-.434-.086-.55-.115-.87-.173-1.566-.32-2.085-.464-.55-.144-1.163-.377-1.855-.697-.728-.317-1.278-.665-1.655-1.1-.807-.841-1.478-2.347-1.478-4.231v-.173c0-4.03 2.986-6.491 8.755-6.491zm-20.187.288v4.899h-5.999V31.49h-5.653V14.654h-5.973v-4.9h17.625zm8.131 0V31.49h-5.622V9.755h5.622zm32.453-.289c5.999 0 8.98 2.898 8.98 7.621V31.49h-5.622v-6.027H99.28v6.027h-5.648V17.087c0-4.723 3.044-7.62 8.985-7.62zm0 4.81c-2.347 0-3.337 1.159-3.337 3.361v3.015h6.695v-3.015c0-2.203-.953-3.36-3.358-3.36zM34.626 0v4.893H.403V0h34.223z"/></svg>