<svg width="112" height="40" viewBox="0 0 112 40" fill="none" xmlns="http://www.w3.org/2000/svg"><path fill-rule="evenodd" clip-rule="evenodd" d="M34.626 4.893H.403V0h34.223v4.893zm.004 4.877H19.961V40a17.76 17.76 0 004.894-1.469V14.664h4.892v20.362a17.07 17.07 0 004.895-11.965V9.77h-.012zM.403 13.086v9.977a16.999 16.999 0 004.895 11.965V14.663h4.892v23.865a16.416 16.416 0 004.894 1.469V9.77H.403v3.316z" fill="#FC4A08"/><mask id="a" style="mask-type:alpha" maskUnits="userSpaceOnUse" x="0" y="0" width="112" height="40"><path fill-rule="evenodd" clip-rule="evenodd" d="M0 40h112V0H0v40z" fill="#fff"/></mask><g mask="url(#a)" fill-rule="evenodd" clip-rule="evenodd" fill="#fff"><path d="M50.381 31.49V14.654h-5.973v-4.9h17.625v4.9h-5.999V31.49h-5.653zm14.161 0h5.622V9.755h-5.622V31.49zM90.97 15.696v.928h-5.392v-.493c0-1.477-1.068-2.232-3.216-2.232-2.169 0-3.244.666-3.244 2.028v.118c0 1.042.698 1.448 1.797 1.825.321.116 1.101.26 1.478.347.378.088 1.362.26 1.797.348 2.06.377 3.185.725 4.663 1.653 1.483.927 2.232 2.549 2.232 4.867v.262c0 3.94-3.039 6.463-8.923 6.463-6.03 0-8.896-2.32-8.896-6.261v-1.014h5.387v.579c0 1.506.811 2.29 3.394 2.29 2.29 0 3.416-.666 3.416-2.028v-.233c0-.781-.199-1.245-1.305-1.651-.549-.204-.984-.32-1.24-.406-.263-.057-.87-.175-1.83-.348-.262-.058-.434-.086-.55-.115-.87-.173-1.566-.32-2.085-.464-.55-.144-1.163-.377-1.855-.697-.728-.317-1.278-.665-1.655-1.1-.807-.841-1.478-2.347-1.478-4.231v-.173c0-4.03 2.986-6.491 8.755-6.491 5.884 0 8.75 2.315 8.75 6.229zm8.31 4.956h6.695v-3.015c0-2.203-.953-3.36-3.358-3.36-2.347 0-3.337 1.158-3.337 3.36v3.015zm6.695 10.837v-6.027H99.28v6.027h-5.648V17.087c0-4.723 3.044-7.62 8.985-7.62 5.999 0 8.98 2.896 8.98 7.62V31.49h-5.622z"/></g></svg>