<svg id="Layer_1" data-name="Layer 1" xmlns="http://www.w3.org/2000/svg" viewBox="0 0 272 307.06"><defs><style>.cls-1{fill:#0959a4;}.cls-2{fill:#f59227;}</style></defs><path class="cls-1" d="M132.55,307.06c-7.6-1.9-13.7-5.7-17.5-12.8a24.09,24.09,0,0,1-2.6-15.4,3.74,3.74,0,0,0-1.1-3.1c-23.3-13.6-46.6-27-69.1-40-4.9,2.2-9,4.9-13.5,5.9-12.1,2.8-24.4-4.9-27.8-16.6a24,24,0,0,1,14.5-29c2.1-.8,2.6-1.8,2.6-3.9q-.15-38.7,0-77.3c0-1.7-.2-2.8-2.2-3.5-9.6-3.8-15.2-10.9-15.8-21.3s4.1-18,13.3-22.5c9.4-4.6,18.4-3.4,26.5,3.5a10.59,10.59,0,0,1,1.2,1c4-2.3,7.9-4.6,11.9-6.9,3.6-2,7.1-1.3,8.9,1.7s.8,6.4-2.8,8.6c-3.3,2-6.7,4-10.1,5.8a2.65,2.65,0,0,0-1.6,3.3,23.91,23.91,0,0,1-15.6,26.9c-1.5.6-2,1.2-2,2.8v78.8a2.43,2.43,0,0,0,2,2.7c11.3,4.2,17.4,15,15.7,26.9a3.54,3.54,0,0,0,1.3,3c23.1,13.5,46.3,26.8,69.5,40.2.2.1.4.1.6.2,11.6-10.4,26.1-8,34.4.1,2.8-1.6,5.7-3.3,8.7-5,20.1-11.6,40.3-23.3,60.4-34.8,2.1-1.2,2.6-2.3,2.2-4.7-2-10.5,4.8-21.9,15.2-25.8,1.9-.7,2.6-1.5,2.5-3.6q-.15-38.85,0-77.6c0-1.8-.3-2.7-2.3-3.5-11-4-17.2-15.1-15.4-26.8a3.54,3.54,0,0,0-1.3-3c-23.1-13.5-46.3-26.8-69.5-40.2-.2-.1-.4-.1-.6-.2-11.5,10.3-25.9,8.1-34.4-.1-4,2.3-8.2,4.7-12.3,7a5.73,5.73,0,0,1-6.5-.3c-2-1.4-3-3.5-2.3-5.7a8.87,8.87,0,0,1,3.2-4.4,66.23,66.23,0,0,1,9.3-5.4c2-1,2.5-2.1,2.2-4.4-1.4-10.1,2.4-18,10.7-23.7a23.07,23.07,0,0,1,26,.1c8.2,5.7,11.9,13.7,10.6,23.8-.2,1.5-.6,2.7,1.2,3.7,23.2,13.3,46.4,26.7,69.5,40,.2.1.4.1.6.2,8.3-7.5,17.8-9.3,27.9-4.3,9.2,4.6,13.7,12.4,13.1,22.7-.6,9.9-5.9,17-15.2,20.8-2.1.9-2.8,1.8-2.8,4.1q.15,38.55.1,77c0,1.6-.1,2.8,2,3.6,9.7,3.7,15.3,10.8,15.9,21.2s-4.1,18.3-13.5,22.7c-9.6,4.6-18.6,3.2-26.7-3.8a5.55,5.55,0,0,0-.8-.6c-.8.4-1.7.9-2.5,1.4-22.2,12.8-44.4,25.7-66.7,38.4-1.9,1.1-2.6,2.1-2.1,4.4,2.2,11.8-6.2,24.1-18.1,27l-2,.6C137.35,307.06,135,307.06,132.55,307.06ZM24.05,100.86a12,12,0,1,0-.3-24,12,12,0,0,0,.3,24Zm112.2-64.8A12,12,0,0,0,148.15,24a12,12,0,0,0-23.9.1A11.85,11.85,0,0,0,136.25,36.06ZM24.15,230.36a12,12,0,0,0-.1-23.9,11.76,11.76,0,0,0-11.9,12A12,12,0,0,0,24.15,230.36Zm224.2-23.9a11.89,11.89,0,0,0-12,11.9,12,12,0,1,0,23.9,0A11.68,11.68,0,0,0,248.35,206.46Zm-112.1,88.6a12,12,0,0,0,11.9-12.1,12,12,0,0,0-24,.2A12.17,12.17,0,0,0,136.25,295.06Zm111.8-194.2a12,12,0,1,0,.2-23.9,12,12,0,0,0-.2,23.9Z"/><path class="cls-2" d="M214.15,153.66c0,13.4-.1,26.8,0,40.1a7.66,7.66,0,0,1-4.2,7.3q-34.95,20.1-69.7,40.2a7.43,7.43,0,0,1-8.1,0c-23.2-13.5-46.5-26.9-69.7-40.2a7.66,7.66,0,0,1-4.2-7.3c.1-26.8.1-53.5,0-80.3a7.66,7.66,0,0,1,4.2-7.3q35-20.1,69.7-40.2a7.43,7.43,0,0,1,8.1,0c23.2,13.5,46.5,26.9,69.7,40.2a7.66,7.66,0,0,1,4.2,7.3C214.05,126.86,214.15,140.26,214.15,153.66Zm-143.7-31.1c-.1.9-.2,1.2-.2,1.4,0,21.9,0,43.7-.1,65.6,0,1.9.9,2.6,2.3,3.4q27.6,15.9,55.2,31.9c.7.4,1.5.7,2.4,1.1a6.25,6.25,0,0,0,.1-1.2c0-21.9,0-43.7.1-65.6,0-1.9-.9-2.6-2.3-3.4-12.1-6.9-24.2-13.9-36.3-20.9C84.75,130.86,77.75,126.76,70.45,122.56Zm71.7,103.5c.8-.3,1-.4,1.3-.5,19-11,38-21.9,57-33a4.38,4.38,0,0,0,1.6-3.3c.1-21.4.1-42.7.1-64.1a23.2,23.2,0,0,0-.2-2.4c-.6.3-1,.4-1.3.6-18.8,10.9-37.7,21.8-56.5,32.6a3.5,3.5,0,0,0-1.9,3.6v57.2C142.15,219.76,142.15,222.76,142.15,226.06Zm17.7-134.7c-1-.6-1.7-1.2-2.4-1.6-6.4-3.7-12.8-7.3-19.1-11.1a3.6,3.6,0,0,0-4.3.1c-18.5,10.7-36.9,21.4-55.4,32l-2.1,1.4c7.4,4.3,14.5,8.3,21.5,12.5a3.9,3.9,0,0,0,4.6,0q27.45-15.9,54.9-31.7C158.25,92.46,159,92,159.85,91.36Zm36.3,20.7c-7.6-4.4-14.7-8.4-21.7-12.6a3.9,3.9,0,0,0-4.6.1c-15.5,9-31.1,18-46.6,27-3.5,2-7.1,4.1-10.9,6.3,7.8,4.5,15.3,8.9,22.9,13.1.7.4,2.3,0,3.2-.5,11-6.3,22-12.6,33-19C179.35,121.76,187.45,117.06,196.15,112.06Z"/><path class="cls-1" d="M74.45,56.36a5.7,5.7,0,0,1,5.8-5.9,5.89,5.89,0,0,1,6.1,5.9,6,6,0,0,1-5.8,6A5.86,5.86,0,0,1,74.45,56.36Z"/><path class="cls-1" d="M183.85,172.76c3.2.2,5.3,1.5,6.2,4.1a5.71,5.71,0,0,1-2.5,7c-3.6,2.3-7.4,4.3-11.1,6.5-3.2,1.8-6.4,3.7-9.6,5.5-3.6,2-7.1,1.3-8.9-1.7s-.8-6.5,2.8-8.6c6.6-3.9,13.3-7.7,20-11.5C181.75,173.46,183.05,173.16,183.85,172.76Z"/></svg>