<svg id="Layer_1" data-name="Layer 1" xmlns="http://www.w3.org/2000/svg" viewBox="0 0 312.27 275.54"><defs><style>.cls-1{fill:#0959a4;}.cls-2{fill:#f59227;}</style></defs><path class="cls-1" d="M312.27,30.5V245.1a5.36,5.36,0,0,0-.5,1.1c-4.3,19.1-17,29.3-36.6,29.3H119.07c-27.9,0-55.9.1-83.8,0-19.8-.1-35.1-15-35.2-34.5Q-.08,137.8.17,34.6a36,36,0,0,1,3.2-14.4C9.87,6.4,21.27,0,36.37,0h239.3c1.1,0,2.2,0,3.4.1,14.1,1.1,24.3,8,30.2,20.8C310.67,23.9,311.27,27.3,312.27,30.5ZM10.47,82.8V239c0,16.1,10.2,26.2,26.3,26.2h239c16.1,0,26.3-10.2,26.3-26.3V82.8Zm.1-10.7h291.2c0-13.3.1-26.4-.1-39.5a20.68,20.68,0,0,0-2.3-8.4c-4.9-9.7-13.2-13.8-23.8-13.8H35.07c-13.2.4-23.7,9.4-24.3,22.2C10.07,45.6,10.57,58.8,10.57,72.1Z"/><path class="cls-2" d="M170.27,118.7c-1,5-2.1,10.4-3.3,15.9-5.6,26.8-11.3,53.6-16.9,80.4a16,16,0,0,1-.5,2.1c-.9,3.4-3.3,5.2-6.1,4.6-3.1-.7-4.7-3.3-4-6.8,1.4-7.2,3-14.3,4.5-21.4l15.9-75.3c.9-4.1,3.6-6.1,6.8-5C169,113.9,170.17,115.6,170.27,118.7Z"/><path class="cls-2" d="M97.87,166.9c7.5,6.4,14.8,12.6,22,18.8,2.1,1.8,4.2,3.5,6.2,5.3,2.5,2.3,2.8,5.4.9,7.6s-5,2.5-7.6.2c-10.8-9.1-21.5-18.2-32.2-27.5-3.3-2.8-3.4-6-.1-8.8,10.7-9.2,21.4-18.4,32.2-27.5,2.8-2.3,5.9-2.1,7.8.2s1.4,5.4-1.4,7.8c-8.1,6.9-16.2,13.8-24.3,20.8C100.37,164.7,99.37,165.7,97.87,166.9Z"/><path class="cls-2" d="M214.47,166.9c-8-6.9-15.9-13.5-23.7-20.2-1.2-1-2.3-2-3.5-3-3.5-3-4.2-6.1-2-8.6s5.2-2.2,8.8.8l26.4,22.5c1.6,1.4,3.3,2.7,4.8,4.2,2.9,2.7,3,5.9,0,8.4-10.8,9.4-21.8,18.6-32.7,27.9a5.11,5.11,0,0,1-7.6-.5c-1.8-2.2-1.4-5.3,1.2-7.6,8.5-7.4,17.2-14.6,25.7-21.9A14,14,0,0,0,214.47,166.9Z"/><path class="cls-2" d="M21.77,41.5A16.28,16.28,0,0,1,38,25.2a16.3,16.3,0,1,1,0,32.6A16.41,16.41,0,0,1,21.77,41.5Zm22.2,0a5.9,5.9,0,1,0-11.8.1A6,6,0,0,0,38,47.5,6.22,6.22,0,0,0,44,41.5Z"/><path class="cls-2" d="M154.47,41.8a16.25,16.25,0,1,1-16.3-16.2A16.28,16.28,0,0,1,154.47,41.8Zm-16.2-5.9a6,6,0,0,0-5.9,5.8,5.87,5.87,0,0,0,5.9,6,5.9,5.9,0,0,0,0-11.8Z"/><path class="cls-2" d="M72,41.6a16.25,16.25,0,1,1,16.2,16.3A16.22,16.22,0,0,1,72,41.6Zm10.3.2a5.94,5.94,0,0,0,5.8,5.8,5.87,5.87,0,0,0,5.9-6,6,6,0,0,0-5.9-5.8A5.73,5.73,0,0,0,82.27,41.8Z"/></svg>