<svg id="Layer_1" data-name="Layer 1" xmlns="http://www.w3.org/2000/svg" viewBox="0 0 127.54 61.67"><defs><style>.cls-1{fill:#fff;}</style></defs><polygon class="cls-1" points="27.7 11.2 27.7 13.24 44.19 48.67 51.64 53.78 69.41 13.55 69.41 11.2 58.41 11.2 49.27 35.2 38.47 11.2 27.7 11.2"/><polygon class="cls-1" points="71.58 11.2 71.58 53.78 97.6 53.78 97.6 44.53 82.03 44.53 82.1 36.89 95.84 36.97 95.84 27.23 82.1 27.23 82.03 21.09 97.05 21.16 96.98 11.2 71.58 11.2"/><path class="cls-1" d="M24.39,11.17H19.64L0,53.53H11.46l2.31-5.19H30.06l2.35,5.18H43.89ZM16.16,43.05l5.84-13,5.61,12.74h0l.09.22Z"/><path class="cls-1" d="M115.15,2.41c-6.42-3.07-14.53-.55-21.44,5.78,5-3.76,10.31-4.91,14.73-2.5,8.23,4.47,10.07,19.56,4.1,33.69S95.07,61.33,86.84,56.86a11.09,11.09,0,0,1-2.35-1.74,13.26,13.26,0,0,0,4.15,3.13C98.58,63,112.56,54.37,119.88,39S125.08,7.17,115.15,2.41Z"/><path class="cls-1" d="M116.08.72a15.61,15.61,0,0,0-7.52-.47,14.86,14.86,0,0,1,5.87.66C125.38,4.5,129,20.68,122.47,37s-20.65,26.7-31.6,23.1a13.77,13.77,0,0,1-4-2.13A14,14,0,0,0,91.9,61c11.16,3.64,25.63-6.9,32.3-23.53S127.24,4.35,116.08.72Z"/></svg>