<svg id="Layer_1" data-name="Layer 1" xmlns="http://www.w3.org/2000/svg" viewBox="0 0 141.02 43.15"><defs><style>.cls-1{fill:#212254;}.cls-2{fill:#f26126;}</style></defs><polygon class="cls-1" points="27.7 0.57 27.7 2.61 44.19 38.04 51.64 43.15 69.41 2.92 69.41 0.57 58.41 0.57 49.27 24.57 38.47 0.57 27.7 0.57"/><polygon class="cls-1" points="71.58 0.57 71.58 43.15 97.6 43.15 97.6 33.9 82.03 33.9 82.1 26.26 95.84 26.34 95.84 16.6 82.1 16.6 82.03 10.46 97.05 10.53 96.98 0.57 71.58 0.57"/><path class="cls-1" d="M24.39.54H19.64L0,43.15H11.46l2.31-5.22H30.06l2.35,5.21H43.89ZM16.16,32.61,22,19.53l5.61,12.82h0l.09.22Z"/><path class="cls-2" d="M129.85,2.68c-5.62-3.37-13.36-3.48-19.24-.8A21.54,21.54,0,0,0,98.88,15.24c-1.68,5.63-1,12.18,1.85,16.83a21.47,21.47,0,0,0,29.12,8.4C122.9,42.56,117,39,115.58,37.85a18.78,18.78,0,0,1-7.4-11.54c-.82-4.69-.72-9.26,1.29-13.57a19.8,19.8,0,0,1,8-8.71A16.24,16.24,0,0,1,129.85,2.68Z"/><path class="cls-2" d="M117.46,5.87c4.22-1.15,7.58.48,10.43,3.72,2.64,3.11,3.84,7.17,4,11.92a19.32,19.32,0,0,1-3.77,11.58,10.12,10.12,0,0,1-10.65,4,15.56,15.56,0,0,0,13.31,1.32c3.85-1.17,6.18-4.13,8.21-8.27a19.64,19.64,0,0,0,1.26-14.3C139,11.7,136.46,7.4,132.41,5.16A15.49,15.49,0,0,0,117.46,5.87Z"/></svg>