<svg xmlns="http://www.w3.org/2000/svg" viewBox="0 0 131.85 84.56"><defs><style>.cls-1{fill:#f15f22;}.cls-2{fill:#1d2055;}</style></defs><g id="Layer_2" data-name="Layer 2"><g id="Layer_1-2" data-name="Layer 1"><path class="cls-1" d="M85,79.34c11.48,1.24,25.67-13.41,31.7-32.73s1.6-36-9.88-37.23c-8.15-.89-17.67,6.25-24.66,17.38C90.32,11.08,102.79.5,113.24,1.64c13.1,1.42,18.07,20.7,11.09,43.07S101.08,84.06,88,82.64c-4.53-.49-8.08-3.11-10.51-7.26A11.55,11.55,0,0,0,85,79.34Z"/><path class="cls-1" d="M82,81.22c11.5,7.29,29.43-4.41,40.05-26.12S132,9.88,120.47,2.6A14.65,14.65,0,0,0,109.88.7c4.6-1.26,9-.86,12.71,1.5,11.7,7.41,12.41,31.37,1.58,53.51s-29.1,34.07-40.8,26.65a14.31,14.31,0,0,1-2.23-1.73C81.42,80.84,81.71,81,82,81.22Z"/><polygon class="cls-2" points="27.7 28.98 27.7 31.02 44.19 66.45 51.64 71.55 69.41 31.32 69.41 28.98 58.41 28.98 49.27 52.97 38.47 28.98 27.7 28.98"/><polygon class="cls-2" points="71.58 28.98 71.58 71.55 97.6 71.55 97.6 62.3 82.03 62.3 82.1 54.66 95.84 54.74 95.84 45 82.1 45 82.03 38.86 97.05 38.94 96.98 28.98 71.58 28.98"/><path class="cls-2" d="M24.39,29H19.64L0,71.31H11.46l2.31-5.19,16.29,0,2.35,5.17H43.89ZM16.16,60.82l5.84-13L27.61,60.6h0l.09.22Z"/></g></g></svg>