<svg id="Layer_1" data-name="Layer 1" xmlns="http://www.w3.org/2000/svg" viewBox="0 0 281.66 88.67"><defs><style>.cls-1{fill:#60328b;}.cls-2{fill:#ed6628;}</style></defs><path class="cls-1" d="M61.22.79H81.74L106,36.63,131.52.79h72.34L193.41,14.86H140.8L116.14,50.11a12.43,12.43,0,0,1-20.72,0Z"/><polyline class="cls-2" points="145.53 22.16 137.51 33.47 137.51 55.7 189.53 55.7 200.25 41.83 154.28 41.83 154.28 34.46 185.32 34.46 195.25 22.16 145.53 22.16"/><path class="cls-1" d="M69.18,55.7,45,19.73l-25.25,36H0L34.46,6.91A13.16,13.16,0,0,1,45.24.85,12.6,12.6,0,0,1,55.9,6.91L89.7,55.7Z"/><path class="cls-1" d="M281.66,27.82c0,19.27-13.15,27.88-39.46,27.88s-39.46-8.61-39.46-27.88S215.9,0,242.2,0,281.66,8.55,281.66,27.82Zm-16.64,0C265,16.18,259,14,242.27,14s-22.82,2.17-22.82,13.81,6.05,13.81,22.82,13.81S265,39.46,265,27.82Z"/><path class="cls-1" d="M13.28,67.54V84.27c0,1.35,0,2.68,0,4.06H10.64a18.39,18.39,0,0,1-.14-2c-.71,1.44-2.13,2.29-4.45,2.29-3.7,0-6-3-6-7.42s2.46-7.7,6.47-7.7c2.46,0,3.6,1,4,1.76V67.54ZM2.94,81.17c0,3.36,1.55,5.17,3.76,5.17,3.25,0,3.91-2.45,3.91-5.4S10,75.88,6.87,75.88C4.41,75.88,2.94,77.82,2.94,81.17Z"/><path class="cls-1" d="M20.66,81.64c0,2.72,1.38,4.74,3.75,4.74a3.11,3.11,0,0,0,3.29-2.1h2.8a6,6,0,0,1-6.18,4.39c-4.58,0-6.47-3.67-6.47-7.39,0-4.34,2.19-7.73,6.63-7.73,4.71,0,6.27,3.71,6.27,6.89a11.44,11.44,0,0,1,0,1.2Zm7.28-1.89c0-2.24-1.12-4-3.49-4s-3.47,1.68-3.7,4Z"/><path class="cls-1" d="M37,84.16a3.13,3.13,0,0,0,3.38,2.37c2,0,2.78-.84,2.78-2.07s-.66-1.84-3.28-2.48c-4.24-1-5.08-2.33-5.08-4.31s1.5-4.12,5.33-4.12,5.37,2.2,5.55,4.2H43c-.2-.85-.83-2.09-3-2.09-1.88,0-2.45.89-2.45,1.78s.56,1.51,3.15,2.12c4.46,1.06,5.3,2.56,5.3,4.69,0,2.51-2,4.42-5.72,4.42s-5.69-1.94-6-4.51Z"/><path class="cls-1" d="M50.57,67.54h2.78v3.2H50.57Zm0,6.35h2.78V88.33H50.57Z"/><path class="cls-1" d="M58.93,77.81c0-1.9,0-3.06,0-3.92h2.73c0,.39.08,1.58.08,2.87a5,5,0,0,1,4.82-3.21V76.3c-3,0-4.82,1.45-4.82,5.16v6.87H58.93Z"/><path class="cls-1" d="M72.18,81.64c0,2.72,1.38,4.74,3.74,4.74a3.13,3.13,0,0,0,3.3-2.1H82a6,6,0,0,1-6.18,4.39c-4.58,0-6.47-3.67-6.47-7.39,0-4.34,2.19-7.73,6.63-7.73,4.71,0,6.27,3.71,6.27,6.89a11.44,11.44,0,0,1,0,1.2Zm7.27-1.89c0-2.24-1.12-4-3.48-4s-3.47,1.68-3.7,4Z"/><path class="cls-1" d="M95.69,88.33V76.12H93.4V73.89h2.29V72.25c0-2.71,1.1-5,4.28-5a6.37,6.37,0,0,1,1.64.19v2.31a6.29,6.29,0,0,0-1.18-.12c-1.43,0-2,.81-2,2.81v1.45h2.82v2.23H98.47V88.33Z"/><path class="cls-1" d="M117.34,81.35c0,5.08-3.51,7.29-6.83,7.29-3.71,0-6.58-2.72-6.58-7.06,0-4.59,3-7.29,6.81-7.29S117.34,77.16,117.34,81.35Zm-10.88.14c0,3,1.73,5.28,4.16,5.28s4.17-2.24,4.17-5.33c0-2.33-1.16-5.27-4.11-5.27S106.46,78.89,106.46,81.49Z"/><path class="cls-1" d="M121.94,78.89c0-1.62,0-3-.12-4.28H124l.08,2.69h.12a4.11,4.11,0,0,1,3.79-3,2.5,2.5,0,0,1,.71.09v2.35a3.56,3.56,0,0,0-.85-.08,3.5,3.5,0,0,0-3.34,3.2A6.67,6.67,0,0,0,124.4,81v7.32h-2.46Z"/><path class="cls-1" d="M141.22,67.54H144v3.2h-2.78Zm0,6.35H144V88.33h-2.78Z"/><path class="cls-1" d="M149.59,77.53c0-1.25,0-2.53,0-3.64h2.71c.07.42.11,1.84.11,2.27a4.5,4.5,0,0,1,4.47-2.61c2.74,0,4.81,1.72,4.81,5.51v9.27h-2.78V79.41c0-2.08-.79-3.49-2.91-3.49-2.52,0-3.59,1.86-3.59,4.69v7.72h-2.79Z"/><path class="cls-1" d="M167.23,77.53c0-1.25,0-2.53,0-3.64h2.7c.07.42.11,1.84.11,2.27a4.52,4.52,0,0,1,4.48-2.61c2.74,0,4.81,1.72,4.81,5.51v9.27h-2.78V79.41c0-2.08-.79-3.49-2.91-3.49-2.53,0-3.6,1.86-3.6,4.69v7.72h-2.78Z"/><path class="cls-1" d="M197.45,81.08c0,4.2-2.42,7.59-6.87,7.59-4.2,0-6.72-3.2-6.72-7.53s2.5-7.59,6.89-7.59C194.8,73.55,197.45,76.55,197.45,81.08Zm-10.74,0c0,3.09,1.51,5.27,4,5.27s3.92-2.08,3.92-5.26-1.41-5.28-4-5.28S186.71,77.86,186.71,81.11Z"/><path class="cls-1" d="M203.26,73.89c1.84,5.71,3.2,10.09,3.61,11.88h0c.37-1.75,1.88-6.08,3.87-11.88h2.81l-5.27,14.44h-3l-5-14.44Z"/><path class="cls-1" d="M228,85.07a23.41,23.41,0,0,0,.2,3.26h-2.66a7.22,7.22,0,0,1-.23-1.8c-.51.93-1.63,2.14-4.38,2.14-3.42,0-4.88-2.23-4.88-4.44,0-3.23,2.55-4.71,6.83-4.71h2.39V78.36c0-1.23-.4-2.68-2.94-2.68-2.27,0-2.67,1.11-2.92,2.22h-2.68c.2-2.1,1.5-4.36,5.7-4.35C226,73.57,228,75,228,78.33Zm-2.72-3.69h-2.2c-2.78,0-4.2.79-4.2,2.69a2.41,2.41,0,0,0,2.67,2.47c3.3,0,3.73-2.23,3.73-4.71Z"/><path class="cls-1" d="M231.63,73.89h2.44V69.7h2.78v4.19H240v2.23h-3.12v8.19c0,1.34.34,2,1.63,2a5.67,5.67,0,0,0,1.19-.11v2.05a7.08,7.08,0,0,1-2.26.27c-2.36,0-3.34-1.23-3.34-3.66V76.12h-2.44Z"/><path class="cls-1" d="M244,67.54h2.78v3.2H244Zm0,6.35h2.78V88.33H244Z"/><path class="cls-1" d="M264.94,81.08c0,4.2-2.43,7.59-6.88,7.59-4.2,0-6.72-3.2-6.72-7.53s2.5-7.59,6.89-7.59C262.29,73.55,264.94,76.55,264.94,81.08Zm-10.74,0c0,3.09,1.5,5.27,4,5.27s3.92-2.08,3.92-5.26-1.4-5.28-4-5.28S254.2,77.86,254.2,81.11Z"/><path class="cls-1" d="M269.53,77.53c0-1.25,0-2.53,0-3.64h2.7c.07.42.11,1.84.11,2.27a4.52,4.52,0,0,1,4.48-2.61c2.74,0,4.81,1.72,4.81,5.51v9.27h-2.78V79.41c0-2.08-.79-3.49-2.91-3.49-2.53,0-3.6,1.86-3.6,4.69v7.72h-2.78Z"/></svg>