<svg id="Layer_1" data-name="Layer 1" xmlns="http://www.w3.org/2000/svg" viewBox="0 0 149.72 55.63"><defs><style>.cls-1{fill:#fff;}</style></defs><path class="cls-1" d="M149.72,18.28c0,12.67-6.94,18.34-20.69,18.34S108.35,31,108.35,18.28,115.24,0,129,0,149.72,5.62,149.72,18.28Zm-8.72,0c0-7.63-3.17-9.06-12-9.06s-12,1.43-12,9.06,3.18,9.12,12,9.12S141,25.91,141,18.28Z"/><polygon class="cls-1" points="107.89 28.25 100.86 36.38 71.12 36.38 71.12 22.08 75.03 14.93 101.28 14.93 94.95 22.62 80.76 22.62 80.76 28.25 107.89 28.25"/><path class="cls-1" d="M36.27,36.38,23.56,12.87,10.3,36.38H0l18.07-32c1.23-2.06,3-4,5.66-4s4.35,1.75,5.57,4l17.7,32Z"/><path class="cls-1" d="M42.4.39,55.1,23.87,68.35.39H78.64l-18.06,32c-1.22,2.06-2.95,4-5.65,4s-4.34-1.75-5.57-4L31.68.39Z"/><polygon class="cls-1" points="68.35 0.37 107.89 0.45 101.03 8.75 68.33 8.68 68.35 0.37"/><path class="cls-1" d="M89.45,47.76h-4V46.45h3.85c.88,0,1.3-.3,1.3-1.07,0-1-.75-1.09-1.9-1.09H84.36v5.8h4.51c1.12,0,1.93-.31,1.93-1.18S90.32,47.76,89.45,47.76Z"/><path class="cls-1" d="M62.46,44.29H60.29a2.72,2.72,0,0,0-2.77,2.87,2.76,2.76,0,0,0,2.77,2.92h2.17a2.77,2.77,0,0,0,2.81-2.92A2.74,2.74,0,0,0,62.46,44.29Z"/><path class="cls-1" d="M1.26,39.87V55.63H147.87V39.87Zm15.4,11.76H11.28A4.33,4.33,0,0,1,7,47.09a4.16,4.16,0,0,1,4.33-4.36h4.83v1.56H11.28a2.72,2.72,0,0,0-2.77,2.87,2.76,2.76,0,0,0,2.77,2.92h3.81V47.76h-4V46.45h5.59Zm23.72,0H32.82v-8.9h1.56v7.35h6Zm22.08,0H60.29A4.33,4.33,0,0,1,56,47.09a4.16,4.16,0,0,1,4.33-4.36h2.17a4.17,4.17,0,0,1,4.37,4.36A4.34,4.34,0,0,1,62.46,51.63Zm27.05,0H82.8v-8.9h6.53c1.74,0,2.89.79,2.89,2.3A1.79,1.79,0,0,1,91,46.93a2,2,0,0,1,1.4,2A2.61,2.61,0,0,1,89.51,51.63Zm27.55,0-1.33-2.24h-4.22l.73-1.26H115l-2-3.33-4,6.83h-1.78l5.13-8.52a.89.89,0,0,1,.76-.5.85.85,0,0,1,.75.5l5.14,8.52Zm25.12,0h-7.56v-8.9h1.56v7.35h6Z"/></svg>