<svg id="Layer_1" data-name="Layer 1" xmlns="http://www.w3.org/2000/svg" viewBox="0 0 149.72 55.63"><defs><style>.cls-1{fill:#5c2e91;}.cls-2{fill:#f26225;}.cls-3{fill:#fff;}</style></defs><path class="cls-1" d="M149.72,18.28c0,12.67-6.94,18.34-20.69,18.34S108.35,31,108.35,18.28,115.24,0,129,0,149.72,5.62,149.72,18.28Zm-8.72,0c0-7.63-3.17-9.06-12-9.06s-12,1.43-12,9.06,3.18,9.12,12,9.12S141,25.91,141,18.28Z"/><polygon class="cls-1" points="107.89 28.25 100.86 36.38 71.12 36.38 71.12 22.08 75.03 14.93 101.28 14.93 94.95 22.62 80.76 22.62 80.76 28.25 107.89 28.25"/><path class="cls-1" d="M36.27,36.38,23.56,12.87,10.3,36.38H0l18.07-32c1.23-2.06,3-4,5.66-4s4.35,1.75,5.57,4l17.7,32Z"/><path class="cls-1" d="M42.4.39,55.1,23.87,68.35.39H78.64l-18.06,32c-1.22,2.06-2.95,4-5.65,4s-4.34-1.75-5.57-4L31.68.39Z"/><polygon class="cls-1" points="68.35 0.37 107.89 0.45 101.03 8.75 68.33 8.68 68.35 0.37"/><rect class="cls-2" x="0.6" y="39.87" width="146.61" height="15.76"/><path class="cls-3" d="M10.62,51.63a4.33,4.33,0,0,1-4.33-4.54,4.16,4.16,0,0,1,4.33-4.36h4.84v1.56H10.62a2.72,2.72,0,0,0-2.77,2.87,2.76,2.76,0,0,0,2.77,2.92h3.82V47.76h-4V46.45H16v5.18Z"/><path class="cls-3" d="M32.16,51.63v-8.9h1.56v7.35h6v1.55Z"/><path class="cls-3" d="M59.63,51.63a4.33,4.33,0,0,1-4.33-4.54,4.16,4.16,0,0,1,4.33-4.36H61.8a4.17,4.17,0,0,1,4.37,4.36,4.34,4.34,0,0,1-4.37,4.54Zm2.17-1.55a2.77,2.77,0,0,0,2.81-2.92,2.73,2.73,0,0,0-2.81-2.87H59.63a2.72,2.72,0,0,0-2.77,2.87,2.76,2.76,0,0,0,2.77,2.92Z"/><path class="cls-3" d="M82.14,51.63v-8.9h6.53c1.74,0,2.9.79,2.9,2.3a1.8,1.8,0,0,1-1.24,1.9,2,2,0,0,1,1.39,2,2.61,2.61,0,0,1-2.87,2.69Zm2.69-3.87V46.45h3.85c.89,0,1.3-.3,1.3-1.07,0-1-.75-1.09-1.9-1.09H83.7v5.8h4.52c1.11,0,1.92-.31,1.92-1.18s-.48-1.15-1.35-1.15Z"/><path class="cls-3" d="M116.41,51.63l-1.34-2.24h-4.22l.74-1.26h2.73l-2-3.33-4,6.83h-1.78l5.13-8.52a.87.87,0,0,1,.76-.5.85.85,0,0,1,.74.5l5.14,8.52Z"/><path class="cls-3" d="M134,51.63v-8.9h1.56v7.35h6v1.55Z"/></svg>