<svg id="Layer_1" data-name="Layer 1" xmlns="http://www.w3.org/2000/svg" viewBox="0 0 42.83 13"><defs><style>.cls-1{fill:#fff;}</style></defs><path class="cls-1" d="M9.31.12h3.12l3.69,5.45L20,.12H31L29.41,2.26h-8L17.66,7.62a1.89,1.89,0,0,1-3.15,0Z"/><polyline class="cls-1" points="22.13 3.37 20.91 5.09 20.91 8.47 28.82 8.47 30.45 6.36 23.46 6.36 23.46 5.24 28.18 5.24 29.69 3.37 22.13 3.37"/><path class="cls-1" d="M10.52,8.47,6.84,3,3,8.47H0L5.24,1.05A2,2,0,0,1,6.88.13a1.91,1.91,0,0,1,1.62.92l5.14,7.42Z"/><path class="cls-1" d="M42.83,4.23c0,2.93-2,4.24-6,4.24s-6-1.31-6-4.24,2-4.23,6-4.23S42.83,1.3,42.83,4.23Zm-2.53,0c0-1.77-.91-2.1-3.46-2.1s-3.47.33-3.47,2.1.92,2.1,3.47,2.1S40.3,6,40.3,4.23Z"/><path class="cls-1" d="M3.57,13h-2a1.55,1.55,0,0,1-1.14-.47A1.64,1.64,0,0,1,0,11.35a1.51,1.51,0,0,1,.45-1.14,1.58,1.58,0,0,1,1.14-.44H3.37v.7H1.59a.86.86,0,0,0-.64.25,1,1,0,0,0,0,1.33.87.87,0,0,0,.64.26H2.88v-.68H1.52v-.54H3.57Z"/><path class="cls-1" d="M10.91,13H8.13V9.77h.7v2.54h2.08Z"/><path class="cls-1" d="M17.65,13h-.79a1.52,1.52,0,0,1-1.14-.47,1.61,1.61,0,0,1-.46-1.18,1.51,1.51,0,0,1,.45-1.14,1.58,1.58,0,0,1,1.15-.44h.79a1.62,1.62,0,0,1,1.17.44,1.58,1.58,0,0,1,.44,1.14,1.64,1.64,0,0,1-.45,1.18A1.57,1.57,0,0,1,17.65,13Zm-.79-.69h.79a.9.9,0,0,0,.66-.26,1,1,0,0,0,0-1.33.89.89,0,0,0-.66-.25h-.79a.88.88,0,0,0-.65.25,1,1,0,0,0,0,1.33A.89.89,0,0,0,16.86,12.31Z"/><path class="cls-1" d="M26.21,13H23.75V9.77h2.38a1.26,1.26,0,0,1,.79.22.73.73,0,0,1,.3.63.66.66,0,0,1-.38.66.7.7,0,0,1,.32.27.74.74,0,0,1,.12.42,1,1,0,0,1-.29.75A1.08,1.08,0,0,1,26.21,13Zm0-1.37H24.85v-.54h1.29c.25,0,.37-.11.37-.31a.27.27,0,0,0-.12-.25.68.68,0,0,0-.35-.07H24.45v1.85h1.64c.32,0,.48-.11.48-.34a.33.33,0,0,0-.09-.25A.42.42,0,0,0,26.19,11.63Z"/><path class="cls-1" d="M35.67,13h-.83l-.45-.76H33l.32-.54h.73l-.59-1L32.12,13h-.78L33.17,10a.37.37,0,0,1,.67,0Z"/><path class="cls-1" d="M42.83,13H40.06V9.77h.69v2.54h2.08Z"/></svg>