<svg id="Capa_1" data-name="Capa 1" xmlns="http://www.w3.org/2000/svg" viewBox="0 0 280.8 280.8"><defs><style>.cls-1{fill:#0456a7;}.cls-2{fill:#f69622;}</style></defs><path class="cls-1" d="M253.2,269.6H140.5c-71.4,0-129.4-58.1-129.4-129.4S69.2,10.8,140.5,10.8a128.23,128.23,0,0,1,77.3,25.7h-6a5.5,5.5,0,0,0,0,11h20.8a5.55,5.55,0,0,0,5.5-5.5V21.2a5.5,5.5,0,1,0-11,0v8.7a140.45,140.45,0,0,0-186,209.8,139.56,139.56,0,0,0,99.3,41.1H253a5.6,5.6,0,0,0,.2-11.2Z"/><path class="cls-1" d="M59.5,82.7a5.6,5.6,0,0,0-7.6,1.7A104.52,104.52,0,0,0,66.5,214.1,104.66,104.66,0,1,0,84.6,51.6a5.51,5.51,0,1,0,5.9,9.3c36.7-23.2,85.6-17.8,116.3,13A93.73,93.73,0,1,1,61.1,90.2,5.3,5.3,0,0,0,59.5,82.7Z"/><path class="cls-2" d="M82,115a15.88,15.88,0,0,0-15.9,15.9,5.5,5.5,0,0,0,11,0A4.91,4.91,0,0,1,82,126c4.3,0,4.9,2.5,4.9,4.9,0,7.9-11.4,19.3-18.5,24.6a5.56,5.56,0,0,0-2,6.1,5.37,5.37,0,0,0,5.2,3.8H92.4a5.5,5.5,0,0,0,0-11H86c5.9-6.3,11.9-14.8,11.9-23.5C97.9,121.4,91.5,115,82,115Z"/><path class="cls-2" d="M109.5,115a5.55,5.55,0,0,0-5.5,5.5v19.7a5.55,5.55,0,0,0,5.5,5.5h13.4V160a5.5,5.5,0,0,0,11,0V120.5a5.5,5.5,0,0,0-11,0v14.2H115V120.5A5.55,5.55,0,0,0,109.5,115Z"/><path class="cls-2" d="M151,165.3a5.48,5.48,0,0,0,5-3.2l17.9-39.4a5.5,5.5,0,0,0-10-4.6L146,157.6a5.53,5.53,0,0,0,2.7,7.3A6.2,6.2,0,0,0,151,165.3Z"/><path class="cls-2" d="M196.1,165.1a4.4,4.4,0,0,0,1.6.2,5.34,5.34,0,0,0,5.2-3.9L214.7,122a5.14,5.14,0,0,0-.9-4.8,5.45,5.45,0,0,0-4.4-2.2H185.8a5.5,5.5,0,0,0,0,11h16.3l-9.7,32.3A5.46,5.46,0,0,0,196.1,165.1Z"/><path class="cls-1" d="M70.4,64.6a5.7,5.7,0,0,0-3.9,1.6,5.5,5.5,0,0,0,3.9,9.4A5.7,5.7,0,0,0,74.3,74a5.5,5.5,0,0,0-3.9-9.4Z"/><path class="cls-1" d="M275.3,269.6h0a5.5,5.5,0,1,0-.1,11h.1a5.55,5.55,0,0,0,5.5-5.5A5.48,5.48,0,0,0,275.3,269.6Z"/></svg>