<svg id="Layer_1" data-name="Layer 1" xmlns="http://www.w3.org/2000/svg" viewBox="0 0 289.4 261.5"><defs><style>.cls-1{fill:#0959a4;}.cls-2{fill:#f59227;}</style></defs><path class="cls-1" d="M273.1,202.9H16.3A16.3,16.3,0,0,1,0,186.6V16.3A16.3,16.3,0,0,1,16.3,0H273.1a16.3,16.3,0,0,1,16.3,16.3V186.6A16.3,16.3,0,0,1,273.1,202.9ZM16.3,6.6a9.71,9.71,0,0,0-9.7,9.7V186.6a9.71,9.71,0,0,0,9.7,9.7H273.1a9.71,9.71,0,0,0,9.7-9.7V16.3a9.71,9.71,0,0,0-9.7-9.7ZM286.1,164.5H3.3a3.3,3.3,0,1,1,0-6.6H286.1a3.3,3.3,0,0,1,0,6.6ZM123.9,232.2a3.33,3.33,0,0,1-3.3-3.3V199.6a3.3,3.3,0,0,1,6.6,0v29.3A3.4,3.4,0,0,1,123.9,232.2Zm41.6,0a3.33,3.33,0,0,1-3.3-3.3V199.6a3.3,3.3,0,0,1,6.6,0v29.3A3.27,3.27,0,0,1,165.5,232.2Zm52.4,29.3H71.5a3.33,3.33,0,0,1-3.3-3.3,32.61,32.61,0,0,1,32.6-32.6h87.7a32.61,32.61,0,0,1,32.6,32.6A3.13,3.13,0,0,1,217.9,261.5ZM75,255H214.4a26.14,26.14,0,0,0-25.9-22.8H100.8A26,26,0,0,0,75,255Z"/><path class="cls-2" d="M187,126.5H172.9a3.3,3.3,0,0,1,0-6.6H187a3.3,3.3,0,1,1,0,6.6Z"/><path class="cls-2" d="M254.8,112.5H226.7a3.3,3.3,0,1,1,0-6.6h28.2a3.3,3.3,0,1,1-.1,6.6Z"/><path class="cls-2" d="M64.7,108.8a3.06,3.06,0,0,1-2-.7L32.6,84.9a3.25,3.25,0,0,1,0-5.2L62.7,56.5a3.28,3.28,0,1,1,4,5.2L39.9,82.3l26.8,20.6a3.32,3.32,0,0,1,.6,4.6A3,3,0,0,1,64.7,108.8Z"/><path class="cls-2" d="M123.2,108.8a3,3,0,0,1-2.6-1.3,3.32,3.32,0,0,1,.6-4.6L148,82.3,121.2,61.7a3.28,3.28,0,1,1,4-5.2l30.1,23.2a3.25,3.25,0,0,1,0,5.2l-30.1,23.2a3.06,3.06,0,0,1-2,.7Z"/><path class="cls-2" d="M83,126.5a2.77,2.77,0,0,1-.9-.1,3.22,3.22,0,0,1-2.3-4l22-81.9a3.26,3.26,0,0,1,6.3,1.7l-22,81.9a3.1,3.1,0,0,1-3.1,2.4Z"/><path class="cls-2" d="M201.1,38H172.9a3.33,3.33,0,0,0-3.3,3.3V69.5a3.33,3.33,0,0,0,3.3,3.3h28.2a3.33,3.33,0,0,0,3.3-3.3V41.3A3.33,3.33,0,0,0,201.1,38Zm-3.3,28.2H176.2V44.6h21.6Z"/><path class="cls-2" d="M254.8,98.4H172.9a3.3,3.3,0,0,1,0-6.6h81.9a3.33,3.33,0,0,1,3.3,3.3A3.27,3.27,0,0,1,254.8,98.4Z"/><path class="cls-2" d="M210.2,112.5H173a3.3,3.3,0,0,1,0-6.6h37.2a3.3,3.3,0,1,1,0,6.6Z"/><path class="cls-2" d="M254.8,38H226.7a3.33,3.33,0,0,0-3.3,3.3V69.5a3.33,3.33,0,0,0,3.3,3.3h28.2a3.33,3.33,0,0,0,3.3-3.3V41.3A3.42,3.42,0,0,0,254.8,38Zm-3.3,28.2H229.9V44.6h21.6Z"/><path class="cls-2" d="M254.8,126.5H226.7a3.3,3.3,0,1,1,0-6.6h28.2a3.3,3.3,0,1,1-.1,6.6Z"/><path class="cls-2" d="M216.6,126.5H198a3.3,3.3,0,0,1,0-6.6h18.6a3.33,3.33,0,0,1,3.3,3.3A3.27,3.27,0,0,1,216.6,126.5Z"/></svg>