<svg id="Layer_1" data-name="Layer 1" xmlns="http://www.w3.org/2000/svg" viewBox="0 0 291.2 291.1"><defs><style>.cls-1{fill:#2158a8;}.cls-2{fill:#ef9500;}</style></defs><path class="cls-1" d="M0,96.1c.3-.7.7-1.3,1-2,2.1-4.7,5.7-7.5,10.9-7.9s9.3,1.7,11.9,6.3a3.91,3.91,0,0,0,4,2.2c7-.1,14,0,21.3,0,.1-1.3.2-2.3.2-3.3V69.8c0-4.5,1.6-6.5,5.8-7.5C71.8,58.4,87,51.1,101.8,42.7q43.65-24.9,87.5-.2c4.9,2.7,9.7,5.4,15,8.4.1-1.4.2-2.3.2-3.2,0-6.8.1-13.6-.1-20.5a3.86,3.86,0,0,0-1.4-2.9c-4.9-2.9-7.4-7-6.9-12.7s3.8-9.3,9.2-11.1a2.65,2.65,0,0,0,.6-.5h5.7c.7.3,1.3.7,2,1,4.7,2.1,7.5,5.7,7.9,10.9a12.09,12.09,0,0,1-6.3,11.9,3.63,3.63,0,0,0-2.2,3.8c.1,8.2.1,16.5,0,24.7,0,1.8.4,2.8,2.2,3.4,6.7,2.1,13.3,4.4,20,6.4,5.4,1.6,6.8,3.1,6.8,8.8v36.4a13.2,13.2,0,0,1-.2,2.8,3.84,3.84,0,0,1-4.1,3.2,3.76,3.76,0,0,1-4-3.3,16.15,16.15,0,0,1-.2-3.1V73.1c0-1.8-.4-2.7-2.3-3.1a167.64,167.64,0,0,1-45-19.3,77.2,77.2,0,0,0-47.3-11.3,72.37,72.37,0,0,0-31.4,9.9c-15.1,9-30.8,16.6-48,20.8-2,.5-1.8,1.9-1.8,3.3v40.4c0,13.5-.2,26.9.3,40.4a81.43,81.43,0,0,0,13.7,42.4c.5.8,1.1,1.5,1.6,2.4a4.23,4.23,0,0,1-1.2,5.8,4,4,0,0,1-5.8-1.1,101.27,101.27,0,0,1-6.1-9.9c-7.8-14.6-11.1-30.3-11-46.8V136.5c-3.6,0-6.9-.1-10.2.1-.8.1-1.6,1.4-2.1,2.3a13,13,0,0,1-14.3,5.6,13.06,13.06,0,0,1-9.4-12.2,12.88,12.88,0,0,1,8.9-12.2A12.52,12.52,0,0,1,37,125.9a3.44,3.44,0,0,0,3.8,2.1c2.6-.1,5.3,0,8.2,0V103.5H44.6c-5.9,0-11.8-.1-17.6.1a3.62,3.62,0,0,0-2.7,1.4c-2.9,4.9-7,7.4-12.7,6.9S2.3,108.1.5,102.7a2.65,2.65,0,0,0-.5-.6ZM208.6,8.5a4.25,4.25,0,1,0,4.3,4A4.21,4.21,0,0,0,208.6,8.5ZM12.9,103.1A4.27,4.27,0,0,0,17.1,99a4.13,4.13,0,0,0-4.3-4.2,4.12,4.12,0,0,0-4.1,4.1A3.94,3.94,0,0,0,12.9,103.1Zm13.1,33a4.2,4.2,0,1,0,0-8.4,4.2,4.2,0,1,0,0,8.4Z"/><path class="cls-1" d="M291.2,139.3c-.3.7-.7,1.3-1,2-2.1,4.7-5.7,7.5-10.9,7.9a12.09,12.09,0,0,1-11.9-6.3,3.5,3.5,0,0,0-3.8-2.1c-7.1.1-14.2,0-21.3,0-.5,8.3-.9,16.2-1.4,24.4,3.6,0,7.3.1,10.9-.1.8,0,1.7-1.2,2.2-2.1a12.81,12.81,0,1,1,15.9,18.3,12.42,12.42,0,0,1-15.4-5,4.44,4.44,0,0,0-4.7-2.6c-3,.2-6.1-.1-9.1.1a3.42,3.42,0,0,0-2.5,1.8c-5.2,18.6-16.1,33.4-29.8,46.5a183.2,183.2,0,0,1-59,37.6,9.4,9.4,0,0,1-7.7-.1,190.78,190.78,0,0,1-34.4-18c-.6-.4-1.2-.7-2.4-1.4v4.9c0,6.3-.1,12.5.1,18.8a3.86,3.86,0,0,0,1.4,2.9c4.9,2.9,7.4,7,6.9,12.7s-3.8,9.3-9.2,11.1a2.65,2.65,0,0,0-.6.5H97.8c-.7-.3-1.3-.7-2-1-4.7-2.1-7.5-5.7-7.9-10.9a12.09,12.09,0,0,1,6.3-11.9,3.76,3.76,0,0,0,2.2-3.8q-.15-13.65,0-27.3a4.84,4.84,0,0,0-2-4.1c-5.2-4.5-10.3-9.2-15.4-13.9-3.3-3.1-3.6-5.4-1.5-7.5s4.6-1.6,7.5,1.5a170.14,170.14,0,0,0,57.4,38.5,7.46,7.46,0,0,0,6.2,0,173.66,173.66,0,0,0,61.6-42.8c15.9-17.3,23.2-37.8,23.2-61.1V127.5a4.31,4.31,0,0,1,4.4-4.6c2.3.1,3.9,1.9,4.1,4.6a17.65,17.65,0,0,1,0,2.3c0,.6.1,1.3.1,2.4h5.9c5.4,0,10.8.1,16.2-.1a3.56,3.56,0,0,0,2.6-1.4c2.9-4.9,7-7.4,12.7-6.9s9.3,3.8,11.1,9.2a2.65,2.65,0,0,0,.5.6A55.24,55.24,0,0,1,291.2,139.3Zm-12.9-7a4.18,4.18,0,0,0-4.1,4.1,4.13,4.13,0,0,0,4.3,4.2,4.15,4.15,0,1,0-.2-8.3ZM104.9,278.4a4.2,4.2,0,1,0-8.4.1,4.14,4.14,0,0,0,4.1,4.2A4.33,4.33,0,0,0,104.9,278.4ZM265.2,173.7a4.14,4.14,0,0,0,4.2-4.1,4.27,4.27,0,0,0-4.3-4.3,4.14,4.14,0,0,0-4.2,4.1A4.27,4.27,0,0,0,265.2,173.7Z"/><path class="cls-1" d="M224.8,119c0,10.6.2,21.2-.1,31.8a76.39,76.39,0,0,1-21.1,51.7,164.13,164.13,0,0,1-54.2,38.7,9.12,9.12,0,0,1-7.9,0,164.13,164.13,0,0,1-54.2-38.7C72.9,187,66.2,168.7,66.1,147.7c-.1-21.5,0-43,0-64.5,0-4.7,1.4-6.3,5.7-8,7.5-2.9,14.9-6.1,22.3-9.1,2.8-1.2,5.2-.5,6.3,1.8s.1,4.6-2.7,6c-.4.2-.8.4-1.3.6-6.6,2.7-13.1,5.4-19.7,8.1-1.3.5-2.2,1-2.2,2.7.1,22.7-.2,45.5.4,68.2.4,15.5,6.3,29.3,16.6,41A153.69,153.69,0,0,0,143,232.6a5.1,5.1,0,0,0,4.8,0,152.62,152.62,0,0,0,52-38.8c11.5-13.3,16.3-29,16.4-46.4V86c0-1.6-.1-2.8-2-3.4-13.4-4.5-25.9-10.9-38.2-18-18.5-10.6-37.5-11.3-56.9-2.4-1.7.8-3.3,1.8-5,2.7-2.6,1.4-4.9.9-6.2-1.2s-.6-4.7,2.1-6.2c22.2-12.7,44.9-13.7,67.5-1.7,13.9,7.4,27.6,15,42.6,19.9,3.5,1.1,4.7,3.3,4.7,7.6v35.8C224.9,119,224.9,119,224.8,119Z"/><path class="cls-2" d="M124.4,128c0-2.9-.2-5.8,0-8.7.8-8.3,5.1-14.2,12.6-17.5a20.13,20.13,0,0,1,21.2,2.3c5.9,4.3,8.6,10.4,8.7,17.7v6.3c.8.1,1.4.3,1.9.3,6,.7,9.3,4.4,9.4,10.4.1,6.6,0,13.3,0,19.9,0,4.4.1,8.7,0,13.1-.1,6.4-3.9,10.5-10.2,10.5-15,.2-29.9.2-44.9,0-6.4-.1-10.2-4.1-10.3-10.5q-.15-16.5,0-33c0-6.2,3.4-9.8,9.6-10.5C123,128.2,123.5,128.1,124.4,128Zm20.9,45.8c7.1,0,14.2-.1,21.3,0,2.3,0,3.2-.7,3.2-3.1-.1-10.3-.1-20.7,0-31,0-2.3-.8-2.9-3-2.9-14.1.1-28.2.1-42.4,0-2.2,0-3,.7-3,2.9.1,10.3.1,20.7,0,31,0,2.4.9,3.1,3.2,3.1C131.5,173.7,138.4,173.8,145.3,173.8Zm13-45.5c0-3.1.2-5.9,0-8.6a12.74,12.74,0,0,0-25.3-.1,38.62,38.62,0,0,0-.1,6.8c.1.7,1.1,1.8,1.7,1.8C142.4,128.3,150.1,128.3,158.3,128.3Z"/><path class="cls-2" d="M145.8,138.2a13,13,0,0,1,12.2,9.3c1.5,5.4-.7,11.5-5.6,14.2-2,1.1-2.7,2.3-2.4,4.4a13.33,13.33,0,0,1,0,2,4.26,4.26,0,0,1-4.2,4.1c-2.3,0-3.9-1.6-4.2-4.1a4.85,4.85,0,0,1,0-1.7c.4-2.4-.6-3.7-2.7-4.9a12.31,12.31,0,0,1-5.3-14.3A12.48,12.48,0,0,1,145.8,138.2Zm-.3,17a4.14,4.14,0,0,0,4.3-4,4.27,4.27,0,0,0-4.1-4.5,4.14,4.14,0,0,0-4.3,4A4.22,4.22,0,0,0,145.5,155.2Z"/></svg>