<svg id="Layer_1" data-name="Layer 1" xmlns="http://www.w3.org/2000/svg" viewBox="0 0 170.2 308.2"><defs><style>.cls-1{fill:#0959a4;}.cls-2{fill:#f59227;}</style></defs><path class="cls-1" d="M158.6,308.2H11.6A11.61,11.61,0,0,1,0,296.6V11.6A11.61,11.61,0,0,1,11.6,0h147a11.61,11.61,0,0,1,11.6,11.6v285A11.61,11.61,0,0,1,158.6,308.2ZM11.6,7A4.65,4.65,0,0,0,7,11.6v285a4.65,4.65,0,0,0,4.6,4.6h147a4.65,4.65,0,0,0,4.6-4.6V11.6A4.65,4.65,0,0,0,158.6,7ZM166.7,41.1H3.5a3.5,3.5,0,0,1,0-7H166.7a3.54,3.54,0,0,1,3.5,3.5A3.48,3.48,0,0,1,166.7,41.1Zm0,223.2H3.5a3.5,3.5,0,0,1,0-7H166.7a3.5,3.5,0,0,1,0,7Zm-63.3,22H66.7a3.5,3.5,0,1,1,0-7h36.7a3.54,3.54,0,0,1,3.5,3.5A3.48,3.48,0,0,1,103.4,286.3Z"/><path class="cls-2" d="M44.9,102.1a3.5,3.5,0,0,1,1.4-2.8L64.9,85a3.49,3.49,0,0,1,4.3,5.5l-15,11.6,15,11.6A3.54,3.54,0,0,1,67,120a3.32,3.32,0,0,1-2.1-.7L46.3,105A4,4,0,0,1,44.9,102.1Z"/><path class="cls-2" d="M74.9,126.4,88.4,75.8a3.52,3.52,0,1,1,6.8,1.8L81.7,128.2a3.43,3.43,0,0,1-3.4,2.6,2.77,2.77,0,0,1-.9-.1A3.49,3.49,0,0,1,74.9,126.4Z"/><path class="cls-2" d="M100.4,85.6a3.5,3.5,0,0,1,4.9-.6l18.6,14.3a3.5,3.5,0,0,1,0,5.6l-18.6,14.3a3.32,3.32,0,0,1-2.1.7,3.54,3.54,0,0,1-2.2-6.3L116,102,101,90.4A3.37,3.37,0,0,1,100.4,85.6Z"/><path class="cls-2" d="M142.9,60.8H27.3a3.54,3.54,0,0,0-3.5,3.5v75.5a3.54,3.54,0,0,0,3.5,3.5H142.9a3.54,3.54,0,0,0,3.5-3.5V64.3A3.54,3.54,0,0,0,142.9,60.8Zm-3.5,75.5H30.8V67.8H139.4Z"/><path class="cls-2" d="M69.8,118.5a3.5,3.5,0,0,1-2.8,1.4,3.32,3.32,0,0,1-2.1-.7L46.3,104.9a3.5,3.5,0,0,1,0-5.6L64.9,85a3.49,3.49,0,0,1,4.3,5.5l-15,11.6,15,11.6A3.37,3.37,0,0,1,69.8,118.5Z"/><path class="cls-2" d="M95.2,77.7,81.7,128.3a3.43,3.43,0,0,1-3.4,2.6,2.77,2.77,0,0,1-.9-.1,3.49,3.49,0,0,1-2.5-4.3L88.4,75.9a3.52,3.52,0,1,1,6.8,1.8Z"/><path class="cls-2" d="M125.3,102.1a3.5,3.5,0,0,1-1.4,2.8l-18.6,14.3a3.32,3.32,0,0,1-2.1.7,3.54,3.54,0,0,1-2.2-6.3L116,102,101,90.4a3.49,3.49,0,1,1,4.3-5.5l18.6,14.3A3.85,3.85,0,0,1,125.3,102.1Z"/><path class="cls-2" d="M73.4,152.3H27.3a3.54,3.54,0,0,0-3.5,3.5v30.1a3.54,3.54,0,0,0,3.5,3.5H73.4a3.54,3.54,0,0,0,3.5-3.5V155.8A3.54,3.54,0,0,0,73.4,152.3Zm-3.5,30.1H30.8V159.3H69.9Z"/><path class="cls-2" d="M142.9,152.3H96.8a3.54,3.54,0,0,0-3.5,3.5v30.1a3.54,3.54,0,0,0,3.5,3.5h46.1a3.54,3.54,0,0,0,3.5-3.5V155.8A3.54,3.54,0,0,0,142.9,152.3Zm-3.5,30.1H100.3V159.3h39.1Z"/><path class="cls-2" d="M142.9,206.9H27.3a3.5,3.5,0,0,1,0-7H142.9a3.5,3.5,0,0,1,0,7Z"/><path class="cls-2" d="M142.9,222.3H27.3a3.5,3.5,0,0,1,0-7H142.9a3.5,3.5,0,1,1,0,7Z"/><path class="cls-2" d="M142.9,237.6H27.3a3.5,3.5,0,1,1,0-7H142.9a3.54,3.54,0,0,1,3.5,3.5A3.48,3.48,0,0,1,142.9,237.6Z"/><path class="cls-2" d="M69.8,118.5a3.5,3.5,0,0,1-2.8,1.4,3.32,3.32,0,0,1-2.1-.7L46.3,104.9a3.5,3.5,0,0,1,0-5.6L64.9,85a3.49,3.49,0,0,1,4.3,5.5l-15,11.6,15,11.6A3.37,3.37,0,0,1,69.8,118.5Z"/><path class="cls-2" d="M125.3,102.1a3.5,3.5,0,0,1-1.4,2.8l-18.6,14.3a3.32,3.32,0,0,1-2.1.7,3.54,3.54,0,0,1-2.2-6.3L116,102,101,90.4a3.49,3.49,0,1,1,4.3-5.5l18.6,14.3A3.85,3.85,0,0,1,125.3,102.1Z"/><path class="cls-2" d="M95.2,77.7,81.7,128.3a3.43,3.43,0,0,1-3.4,2.6,2.77,2.77,0,0,1-.9-.1,3.49,3.49,0,0,1-2.5-4.3L88.4,75.9a3.52,3.52,0,1,1,6.8,1.8Z"/></svg>