<svg id="Layer_1" data-name="Layer 1" xmlns="http://www.w3.org/2000/svg" viewBox="0 0 281.66 85.16"><defs><style>.cls-1,.cls-2{fill:#fff;}.cls-2{opacity:0.7;}</style></defs><path class="cls-1" d="M61.22.79H81.74L106,36.63,131.52.79h72.34L193.41,14.86H140.8L116.14,50.11a12.43,12.43,0,0,1-20.72,0Z"/><polyline class="cls-2" points="145.53 22.16 137.51 33.47 137.51 55.7 189.53 55.7 200.25 41.83 154.28 41.83 154.28 34.46 185.32 34.46 195.25 22.16 145.53 22.16"/><path class="cls-1" d="M69.18,55.7,45,19.73l-25.25,36H0L34.46,6.91A13.16,13.16,0,0,1,45.24.85,12.6,12.6,0,0,1,55.9,6.91L89.7,55.7Z"/><path class="cls-1" d="M281.66,27.82c0,19.27-13.15,27.88-39.46,27.88s-39.46-8.61-39.46-27.88S215.9,0,242.2,0,281.66,8.55,281.66,27.82Zm-16.64,0C265,16.18,259,14,242.27,14s-22.82,2.17-22.82,13.81,6.05,13.81,22.82,13.81S265,39.46,265,27.82Z"/><path class="cls-1" d="M13.28,64V80.76c0,1.35,0,2.68,0,4.06H10.64a18.39,18.39,0,0,1-.14-1.94c-.71,1.43-2.13,2.28-4.45,2.28-3.7,0-6-3-6-7.41s2.46-7.7,6.47-7.7c2.46,0,3.6,1,4,1.75V64ZM2.94,77.67c0,3.35,1.55,5.17,3.76,5.17,3.25,0,3.91-2.46,3.91-5.41S10,72.37,6.87,72.37C4.41,72.37,2.94,74.31,2.94,77.67Z"/><path class="cls-1" d="M20.66,78.13c0,2.72,1.39,4.74,3.75,4.74a3.11,3.11,0,0,0,3.29-2.09h2.8a6,6,0,0,1-6.18,4.38c-4.58,0-6.47-3.66-6.47-7.39,0-4.34,2.2-7.72,6.63-7.72,4.71,0,6.27,3.7,6.27,6.88a11.44,11.44,0,0,1,0,1.2Zm7.28-1.89c0-2.24-1.12-4-3.49-4s-3.47,1.68-3.7,4Z"/><path class="cls-1" d="M37,80.65A3.14,3.14,0,0,0,40.41,83c2,0,2.78-.84,2.78-2.07s-.66-1.84-3.28-2.48c-4.24-1-5.08-2.33-5.08-4.3s1.5-4.12,5.33-4.12,5.37,2.2,5.55,4.2H43c-.19-.86-.83-2.1-3-2.1-1.88,0-2.45.9-2.45,1.79s.56,1.5,3.15,2.12c4.46,1,5.3,2.55,5.3,4.69,0,2.5-2,4.41-5.72,4.41s-5.69-1.93-6-4.51Z"/><path class="cls-1" d="M50.57,64h2.78v3.2H50.57Zm0,6.36h2.78V84.82H50.57Z"/><path class="cls-1" d="M58.93,74.31c0-1.91,0-3.07,0-3.92h2.73c0,.39.08,1.58.08,2.86a5,5,0,0,1,4.82-3.2v2.74c-3,0-4.82,1.45-4.82,5.16v6.87H58.93Z"/><path class="cls-1" d="M72.18,78.13c0,2.72,1.38,4.74,3.74,4.74a3.12,3.12,0,0,0,3.3-2.09H82a6,6,0,0,1-6.18,4.38c-4.58,0-6.47-3.66-6.47-7.39,0-4.34,2.19-7.72,6.63-7.72,4.71,0,6.27,3.7,6.27,6.88a11.44,11.44,0,0,1,0,1.2Zm7.27-1.89c0-2.24-1.12-4-3.48-4s-3.47,1.68-3.7,4Z"/><path class="cls-1" d="M95.69,84.82V72.61H93.4V70.39h2.29V68.75c0-2.72,1.1-5,4.28-5a6.84,6.84,0,0,1,1.64.19v2.31a6.31,6.31,0,0,0-1.18-.11c-1.43,0-2,.8-2,2.8v1.46h2.82v2.22H98.47V84.82Z"/><path class="cls-1" d="M117.34,77.84c0,5.08-3.51,7.29-6.83,7.29-3.71,0-6.58-2.72-6.58-7.06,0-4.59,3-7.28,6.81-7.28S117.34,73.65,117.34,77.84ZM106.46,78c0,3,1.73,5.27,4.16,5.27s4.17-2.24,4.17-5.33c0-2.32-1.16-5.27-4.11-5.27S106.46,75.38,106.46,78Z"/><path class="cls-1" d="M121.94,75.38c0-1.62,0-3-.12-4.28H124l.08,2.69h.12a4.11,4.11,0,0,1,3.8-3,2.5,2.5,0,0,1,.7.08v2.35a4.16,4.16,0,0,0-.85-.08,3.5,3.5,0,0,0-3.34,3.2,6.69,6.69,0,0,0-.12,1.17v7.31h-2.46Z"/><path class="cls-1" d="M141.22,64H144v3.2h-2.78Zm0,6.36H144V84.82h-2.78Z"/><path class="cls-1" d="M149.59,74c0-1.24,0-2.53,0-3.63h2.71c.07.41.11,1.83.11,2.26a4.49,4.49,0,0,1,4.47-2.6c2.74,0,4.81,1.71,4.81,5.51v9.26h-2.78V75.9c0-2.07-.79-3.49-2.91-3.49-2.52,0-3.59,1.86-3.59,4.69v7.72h-2.79Z"/><path class="cls-1" d="M167.23,74c0-1.24,0-2.53,0-3.63h2.7c.07.41.11,1.83.11,2.26a4.52,4.52,0,0,1,4.48-2.6c2.74,0,4.81,1.71,4.81,5.51v9.26h-2.78V75.9c0-2.07-.79-3.49-2.91-3.49-2.53,0-3.6,1.86-3.6,4.69v7.72h-2.78Z"/><path class="cls-1" d="M197.45,77.57c0,4.2-2.42,7.59-6.87,7.59-4.2,0-6.72-3.2-6.72-7.53s2.5-7.58,6.89-7.58C194.8,70.05,197.45,73.05,197.45,77.57Zm-10.74,0c0,3.09,1.51,5.27,4,5.27s3.92-2.08,3.92-5.25-1.41-5.29-4-5.29S186.71,74.36,186.71,77.6Z"/><path class="cls-1" d="M203.26,70.39c1.83,5.7,3.2,10.09,3.61,11.88h0c.36-1.76,1.88-6.09,3.87-11.88h2.81l-5.27,14.43h-3l-5-14.43Z"/><path class="cls-1" d="M228,81.56a23.29,23.29,0,0,0,.2,3.26h-2.66a7.14,7.14,0,0,1-.23-1.8c-.51.94-1.63,2.14-4.38,2.14-3.42,0-4.88-2.23-4.88-4.43,0-3.24,2.56-4.72,6.83-4.72h2.39V74.85c0-1.23-.4-2.68-2.94-2.68-2.27,0-2.67,1.11-2.92,2.22h-2.68c.2-2.1,1.5-4.36,5.69-4.34,3.6,0,5.58,1.46,5.58,4.77Zm-2.72-3.69h-2.2c-2.78,0-4.2.79-4.2,2.7A2.41,2.41,0,0,0,221.57,83c3.29,0,3.73-2.23,3.73-4.71Z"/><path class="cls-1" d="M231.63,70.39h2.44V66.2h2.78v4.19H240v2.22h-3.12V80.8c0,1.35.34,2,1.63,2a5.67,5.67,0,0,0,1.19-.11v2a7.08,7.08,0,0,1-2.26.27c-2.36,0-3.34-1.23-3.34-3.65V72.61h-2.44Z"/><path class="cls-1" d="M244,64h2.78v3.2H244Zm0,6.36h2.78V84.82H244Z"/><path class="cls-1" d="M264.94,77.57c0,4.2-2.43,7.59-6.88,7.59-4.2,0-6.72-3.2-6.72-7.53s2.5-7.58,6.89-7.58C262.29,70.05,264.94,73.05,264.94,77.57Zm-10.74,0c0,3.09,1.5,5.27,4,5.27s3.91-2.08,3.91-5.25-1.4-5.29-4-5.29S254.2,74.36,254.2,77.6Z"/><path class="cls-1" d="M269.53,74c0-1.24,0-2.53,0-3.63h2.7c.07.41.11,1.83.11,2.26a4.52,4.52,0,0,1,4.48-2.6c2.74,0,4.81,1.71,4.81,5.51v9.26h-2.78V75.9c0-2.07-.79-3.49-2.91-3.49-2.53,0-3.6,1.86-3.6,4.69v7.72h-2.78Z"/></svg>