<svg id="Layer_1" data-name="Layer 1" xmlns="http://www.w3.org/2000/svg" viewBox="0 0 281.66 85.16"><defs><style>.cls-1{fill:#fff;}</style></defs><path class="cls-1" d="M61.22.79H81.74L106,36.63,131.52.79h72.34L193.41,14.86H140.8L116.14,50.11a12.43,12.43,0,0,1-20.72,0Z"/><polyline class="cls-1" points="145.53 22.16 137.51 33.47 137.51 55.7 189.53 55.7 200.25 41.83 154.28 41.83 154.28 34.46 185.32 34.46 195.25 22.16 145.53 22.16"/><path class="cls-1" d="M69.18,55.7,45,19.73l-25.25,36H0L34.46,6.91A13.16,13.16,0,0,1,45.24.85,12.6,12.6,0,0,1,55.9,6.91L89.7,55.7Z"/><path class="cls-1" d="M281.66,27.82c0,19.27-13.15,27.88-39.46,27.88s-39.46-8.61-39.46-27.88S215.9,0,242.2,0,281.66,8.55,281.66,27.82Zm-16.64,0C265,16.18,259,14,242.27,14s-22.82,2.17-22.82,13.81,6.05,13.81,22.82,13.81S265,39.46,265,27.82Z"/><path class="cls-1" d="M13.58,64V80.76c0,1.35,0,2.68,0,4.06H10.93a18.54,18.54,0,0,1-.13-1.94c-.71,1.43-2.13,2.28-4.46,2.28-3.7,0-6-3-6-7.41s2.46-7.7,6.47-7.7c2.46,0,3.59,1,4,1.75V64ZM3.24,77.67C3.24,81,4.79,82.84,7,82.84c3.26,0,3.92-2.46,3.92-5.41s-.61-5.06-3.74-5.06C4.71,72.37,3.24,74.31,3.24,77.67Z"/><path class="cls-1" d="M21.5,78.13c0,2.72,1.38,4.74,3.74,4.74a3.13,3.13,0,0,0,3.3-2.09h2.8a6,6,0,0,1-6.18,4.38c-4.58,0-6.47-3.66-6.47-7.39,0-4.34,2.19-7.72,6.63-7.72,4.71,0,6.27,3.7,6.27,6.88a11.44,11.44,0,0,1,0,1.2Zm7.27-1.89c0-2.24-1.12-4-3.48-4s-3.47,1.68-3.71,4Z"/><path class="cls-1" d="M38.41,80.65A3.12,3.12,0,0,0,41.79,83c2,0,2.77-.84,2.77-2.07s-.65-1.84-3.28-2.48c-4.23-1-5.08-2.33-5.08-4.3s1.5-4.12,5.34-4.12,5.37,2.2,5.54,4.2H44.4c-.19-.86-.83-2.1-3-2.1-1.89,0-2.46.9-2.46,1.79s.57,1.5,3.16,2.12c4.46,1,5.3,2.55,5.3,4.69,0,2.5-2,4.41-5.72,4.41S36,83.23,35.65,80.65Z"/><path class="cls-1" d="M52.48,64h2.79v3.2H52.48Zm0,6.36h2.79V84.82H52.48Z"/><path class="cls-1" d="M61.39,74.31c0-1.91,0-3.07,0-3.92h2.73c0,.39.08,1.58.08,2.86A5,5,0,0,1,69,70.05v2.74c-2.95.06-4.82,1.45-4.82,5.16v6.87H61.39Z"/><path class="cls-1" d="M75.17,78.13c0,2.72,1.38,4.74,3.74,4.74a3.12,3.12,0,0,0,3.3-2.09H85a6,6,0,0,1-6.18,4.38c-4.58,0-6.47-3.66-6.47-7.39,0-4.34,2.19-7.72,6.63-7.72,4.71,0,6.27,3.7,6.27,6.88a11.44,11.44,0,0,1,0,1.2Zm7.27-1.89c0-2.24-1.12-4-3.48-4s-3.47,1.68-3.7,4Z"/><path class="cls-1" d="M111.9,77.57c0,4.2-2.43,7.59-6.87,7.59-4.2,0-6.73-3.2-6.73-7.53s2.5-7.58,6.89-7.58C109.25,70.05,111.9,73.05,111.9,77.57Zm-10.74,0c0,3.09,1.5,5.27,4,5.27S109,80.79,109,77.62s-1.4-5.29-4-5.29S101.16,74.36,101.16,77.6Z"/><path class="cls-1" d="M117.59,84.82V72.61H115.3V70.39h2.29V68.75c0-2.72,1.1-5,4.28-5a7,7,0,0,1,1.65.19v2.31a6.42,6.42,0,0,0-1.19-.11c-1.42,0-2,.8-2,2.8v1.46h2.82v2.22h-2.82V84.82Z"/><path class="cls-1" d="M136.07,64h2.78v3.2h-2.78Zm0,6.36h2.78V84.82h-2.78Z"/><path class="cls-1" d="M145,74c0-1.24,0-2.53,0-3.63h2.7c.07.41.11,1.83.11,2.26a4.5,4.5,0,0,1,4.47-2.6c2.74,0,4.82,1.71,4.82,5.51v9.26h-2.79V75.9c0-2.07-.79-3.49-2.91-3.49-2.52,0-3.59,1.86-3.59,4.69v7.72H145Z"/><path class="cls-1" d="M163.16,74c0-1.24,0-2.53,0-3.63h2.7c.07.41.11,1.83.11,2.26a4.52,4.52,0,0,1,4.48-2.6c2.74,0,4.81,1.71,4.81,5.51v9.26h-2.78V75.9c0-2.07-.79-3.49-2.91-3.49-2.53,0-3.6,1.86-3.6,4.69v7.72h-2.78Z"/><path class="cls-1" d="M193.92,77.57c0,4.2-2.42,7.59-6.87,7.59-4.2,0-6.72-3.2-6.72-7.53s2.5-7.58,6.89-7.58C191.27,70.05,193.92,73.05,193.92,77.57Zm-10.74,0c0,3.09,1.51,5.27,4,5.27s3.92-2.08,3.92-5.25-1.41-5.29-4-5.29S183.18,74.36,183.18,77.6Z"/><path class="cls-1" d="M200.27,70.39c1.83,5.7,3.2,10.09,3.61,11.88h0c.36-1.76,1.87-6.09,3.86-11.88h2.82l-5.27,14.43h-3l-5-14.43Z"/><path class="cls-1" d="M225.57,81.56a25.5,25.5,0,0,0,.19,3.26H223.1a7.65,7.65,0,0,1-.23-1.8c-.5.94-1.62,2.14-4.38,2.14-3.41,0-4.87-2.23-4.87-4.43,0-3.24,2.55-4.72,6.83-4.72h2.39V74.85c0-1.23-.4-2.67-2.94-2.67-2.27,0-2.67,1.1-2.92,2.21H214.3c.2-2.1,1.5-4.36,5.69-4.34,3.6,0,5.58,1.46,5.58,4.77Zm-2.72-3.69h-2.2c-2.78,0-4.2.79-4.2,2.7A2.4,2.4,0,0,0,219.12,83c3.29,0,3.73-2.23,3.73-4.71Z"/><path class="cls-1" d="M229.71,70.39h2.45V66.2h2.78v4.19h3.12v2.22h-3.12V80.8c0,1.35.34,2,1.62,2a5.55,5.55,0,0,0,1.19-.11v2a7,7,0,0,1-2.26.27c-2.35,0-3.33-1.23-3.33-3.65V72.61h-2.45Z"/><path class="cls-1" d="M242.59,64h2.79v3.2h-2.79Zm0,6.36h2.79V84.82h-2.79Z"/><path class="cls-1" d="M264.1,77.57c0,4.2-2.43,7.59-6.87,7.59-4.2,0-6.73-3.2-6.73-7.53s2.5-7.58,6.89-7.58C261.45,70.05,264.1,73.05,264.1,77.57Zm-10.74,0c0,3.09,1.5,5.27,4,5.27s3.91-2.08,3.91-5.25-1.4-5.29-4-5.29S253.36,74.36,253.36,77.6Z"/><path class="cls-1" d="M269.23,74c0-1.24,0-2.53,0-3.63h2.7c.07.41.11,1.83.11,2.26a4.52,4.52,0,0,1,4.48-2.6c2.74,0,4.81,1.71,4.81,5.51v9.26h-2.78V75.9c0-2.07-.79-3.49-2.91-3.49-2.52,0-3.6,1.86-3.6,4.69v7.72h-2.78Z"/></svg>