<svg xmlns="http://www.w3.org/2000/svg" xmlns:xlink="http://www.w3.org/1999/xlink" id="Layer_1" data-name="Layer 1" viewBox="0 0 800 800"><defs><style> .cls-1, .cls-2 { fill: #fff; } .cls-3 { fill: url(#_Áåçûìÿííûé_ãðàäèåíò_45); } .cls-4 { fill: #274f89; } .cls-5, .cls-6 { fill: #173d7a; } .cls-7 { fill: url(#_Áåçûìÿííûé_ãðàäèåíò_70); } .cls-8 { fill: url(#_Áåçûìÿííûé_ãðàäèåíò_13-4); } .cls-9 { fill: url(#_Áåçûìÿííûé_ãðàäèåíò_13-2); } .cls-10 { fill: #80b4ff; } .cls-2, .cls-6 { opacity: .5; } .cls-11 { fill: url(#_Áåçûìÿííûé_ãðàäèåíò_13); } .cls-12 { fill: url(#_Áåçûìÿííûé_ãðàäèåíò_59-2); } .cls-13 { fill: url(#_Áåçûìÿííûé_ãðàäèåíò_10); } .cls-14 { fill: #396caa; } .cls-15 { fill: url(#_Áåçûìÿííûé_ãðàäèåíò_59); } .cls-16 { opacity: .4; } .cls-17 { fill: #aedeff; } .cls-18 { fill: url(#_Áåçûìÿííûé_ãðàäèåíò_13-6); } .cls-19 { fill: url(#_Áåçûìÿííûé_ãðàäèåíò_10-2); } .cls-20 { fill: url(#_Áåçûìÿííûé_ãðàäèåíò_13-3); } .cls-21 { fill: #ff971a; } .cls-22 { fill: url(#_Áåçûìÿííûé_ãðàäèåíò_13-5); } .cls-23 { fill: url(#_Áåçûìÿííûé_ãðàäèåíò_3); } .cls-24 { fill: #d4ecff; } .cls-25 { fill: #7dc3ea; } .cls-26 { fill: #5793ce; } </style><radialGradient id="_Áåçûìÿííûé_ãðàäèåíò_3" data-name="Áåçûìÿííûé ãðàäèåíò 3" cx="722.06" cy="330.68" fx="722.06" fy="330.68" r="67.55" gradientUnits="userSpaceOnUse"><stop offset="0" stop-color="#274f89"></stop><stop offset="1" stop-color="#173d7a"></stop></radialGradient><linearGradient id="_Áåçûìÿííûé_ãðàäèåíò_10" data-name="Áåçûìÿííûé ãðàäèåíò 10" x1="681.03" y1="306.17" x2="800.56" y2="306.17" gradientUnits="userSpaceOnUse"><stop offset="0" stop-color="#d4ecff"></stop><stop offset=".24" stop-color="#d0e9fd"></stop><stop offset=".46" stop-color="#c5e2f9"></stop><stop offset=".67" stop-color="#b2d5f1"></stop><stop offset=".88" stop-color="#98c4e7"></stop><stop offset="1" stop-color="#86b8e0"></stop></linearGradient><radialGradient id="_Áåçûìÿííûé_ãðàäèåíò_13" data-name="Áåçûìÿííûé ãðàäèåíò 13" cx="34.31" cy="513.85" fx="34.31" fy="513.85" r="79.03" gradientUnits="userSpaceOnUse"><stop offset="0" stop-color="#699dd1"></stop><stop offset=".27" stop-color="#6296cb"></stop><stop offset=".64" stop-color="#5084bd"></stop><stop offset="1" stop-color="#396caa"></stop></radialGradient><linearGradient id="_Áåçûìÿííûé_ãðàäèåíò_45" data-name="Áåçûìÿííûé ãðàäèåíò 45" x1="49.23" y1="488.51" x2="173.03" y2="562.31" gradientUnits="userSpaceOnUse"><stop offset="0" stop-color="#d4ecff"></stop><stop offset=".2" stop-color="#d0e9fd"></stop><stop offset=".39" stop-color="#c5e2f9"></stop><stop offset=".57" stop-color="#b2d5f1"></stop><stop offset=".74" stop-color="#98c4e7"></stop><stop offset=".84" stop-color="#86b8e0"></stop></linearGradient><radialGradient id="_Áåçûìÿííûé_ãðàäèåíò_59" data-name="Áåçûìÿííûé ãðàäèåíò 59" cx="661.41" cy="449.3" fx="661.41" fy="449.3" r="404.66" gradientUnits="userSpaceOnUse"><stop offset="0" stop-color="#86b8e0"></stop><stop offset=".12" stop-color="#98c4e7"></stop><stop offset=".33" stop-color="#b2d5f1"></stop><stop offset=".54" stop-color="#c5e2f9"></stop><stop offset=".76" stop-color="#d0e9fd"></stop><stop offset="1" stop-color="#d4ecff"></stop></radialGradient><radialGradient id="_Áåçûìÿííûé_ãðàäèåíò_70" data-name="Áåçûìÿííûé ãðàäèåíò 70" cx="629.37" cy="357.85" fx="629.37" fy="357.85" r="278.45" gradientUnits="userSpaceOnUse"><stop offset="0" stop-color="#173d7a"></stop><stop offset="1" stop-color="#274f89"></stop></radialGradient><radialGradient id="_Áåçûìÿííûé_ãðàäèåíò_59-2" data-name="Áåçûìÿííûé ãðàäèåíò 59" cx="672.43" cy="480.45" fx="672.43" fy="480.45" r="549.16" xlink:href="#_Áåçûìÿííûé_ãðàäèåíò_59"></radialGradient><radialGradient id="_Áåçûìÿííûé_ãðàäèåíò_13-2" data-name="Áåçûìÿííûé ãðàäèåíò 13" cx="280.57" cy="385.37" fx="280.57" fy="385.37" r="25.54" xlink:href="#_Áåçûìÿííûé_ãðàäèåíò_13"></radialGradient><radialGradient id="_Áåçûìÿííûé_ãðàäèåíò_13-3" data-name="Áåçûìÿííûé ãðàäèåíò 13" cx="266.29" cy="357.95" fx="266.29" fy="357.95" r="40.39" xlink:href="#_Áåçûìÿííûé_ãðàäèåíò_13"></radialGradient><radialGradient id="_Áåçûìÿííûé_ãðàäèåíò_13-4" data-name="Áåçûìÿííûé ãðàäèåíò 13" cx="366.46" cy="435.01" fx="366.46" fy="435.01" r="25.54" xlink:href="#_Áåçûìÿííûé_ãðàäèåíò_13"></radialGradient><radialGradient id="_Áåçûìÿííûé_ãðàäèåíò_13-5" data-name="Áåçûìÿííûé ãðàäèåíò 13" cx="352.17" cy="407.59" fx="352.17" fy="407.59" r="40.39" xlink:href="#_Áåçûìÿííûé_ãðàäèåíò_13"></radialGradient><radialGradient id="_Áåçûìÿííûé_ãðàäèåíò_13-6" data-name="Áåçûìÿííûé ãðàäèåíò 13" cx="390.36" cy="265.97" fx="390.36" fy="265.97" r="145.36" xlink:href="#_Áåçûìÿííûé_ãðàäèåíò_13"></radialGradient><linearGradient id="_Áåçûìÿííûé_ãðàäèåíò_10-2" data-name="Áåçûìÿííûé ãðàäèåíò 10" x1="196.01" y1="277.88" x2="489.6" y2="277.88" xlink:href="#_Áåçûìÿííûé_ãðàäèåíò_10"></linearGradient></defs><g class="cls-16"><path class="cls-10" d="M717.1,291.82l-62.77-36.24,62.77-36.24,62.77,36.24-62.77,36.24Zm-58.32-36.24l58.32,33.67,58.32-33.67-58.32-33.67-58.32,33.67Z"></path><path class="cls-10" d="M596.01,291.82l-.55-.32-62.21-35.92,62.77-36.24,.55,.32,62.21,35.92-62.77,36.24Zm-58.32-36.24l58.32,33.67,58.32-33.67-58.32-33.67-58.32,33.67Z"></path><path class="cls-10" d="M656.56,326.78l-62.77-36.24,62.77-36.24,62.77,36.24-62.77,36.24Zm-58.32-36.24l58.32,33.67,58.32-33.67-58.32-33.67-58.32,33.67Z"></path><path class="cls-10" d="M717.1,361.73l-.55-.32-62.21-35.92,62.77-36.24,.55,.32,62.21,35.92-62.77,36.24Zm-58.32-36.24l58.32,33.67,58.32-33.67-58.32-33.67-58.32,33.67Z"></path><path class="cls-10" d="M474.93,291.82l-.55-.32-62.21-35.92,62.77-36.24,.55,.32,62.21,35.92-62.77,36.24Zm-58.32-36.24l58.32,33.67,58.32-33.67-58.32-33.67-58.32,33.67Z"></path><path class="cls-10" d="M535.47,326.78l-.55-.32-62.21-35.92,62.77-36.24,.55,.32,62.21,35.92-62.77,36.24Zm-58.32-36.24l58.32,33.67,58.32-33.67-58.32-33.67-58.32,33.67Z"></path><path class="cls-10" d="M596.02,361.73l-.55-.32-62.21-35.92,62.77-36.24,62.77,36.24-62.76,36.24Zm-58.32-36.24l58.32,33.67,58.32-33.67-58.32-33.67-58.32,33.67Z"></path><path class="cls-10" d="M656.56,396.69l-62.77-36.24,62.76-36.24,.55,.32,62.21,35.92-62.77,36.24Zm-58.32-36.24l58.32,33.67,58.32-33.67-58.32-33.67-58.32,33.67Z"></path><path class="cls-10" d="M717.11,431.65l-62.77-36.24,62.77-36.24,.55,.32,62.21,35.92-62.77,36.24Zm-58.32-36.24l58.32,33.67,58.32-33.67-58.32-33.67-58.32,33.67Z"></path><path class="cls-10" d="M353.84,291.82l-.55-.32-62.21-35.92,62.77-36.24,62.77,36.24-62.77,36.24Zm-58.32-36.24l58.32,33.67,58.32-33.67-58.32-33.67-58.32,33.67Z"></path><path class="cls-10" d="M414.38,326.78l-62.77-36.24,62.77-36.24,.55,.32,62.21,35.92-62.77,36.24Zm-58.32-36.24l58.32,33.67,58.32-33.67-58.32-33.67-58.32,33.67Z"></path><path class="cls-10" d="M474.93,361.73l-.55-.32-62.21-35.92,62.77-36.24,.55,.32,62.21,35.92-62.77,36.24Zm-58.32-36.24l58.32,33.67,58.32-33.67-58.32-33.67-58.32,33.67Z"></path><path class="cls-10" d="M535.47,396.69l-.55-.32-62.21-35.92,62.77-36.24,.55,.32,62.21,35.92-62.77,36.24Zm-58.32-36.24l58.32,33.67,58.32-33.67-58.32-33.67-58.32,33.67Z"></path><path class="cls-10" d="M596.02,431.64l-62.77-36.24,62.77-36.24,62.77,36.24-62.77,36.24Zm-58.32-36.24l58.32,33.67,58.32-33.67-58.32-33.67-58.32,33.67Z"></path><path class="cls-10" d="M656.56,466.6l-.55-.32-62.21-35.92,62.77-36.24,62.77,36.24-62.77,36.24Zm-58.32-36.24l58.32,33.67,58.32-33.67-58.32-33.67-58.32,33.67Z"></path><path class="cls-10" d="M717.11,501.56l-62.77-36.24,62.77-36.24,.55,.32,62.21,35.92-62.77,36.24Zm-58.32-36.24l58.32,33.67,58.32-33.67-58.32-33.67-58.32,33.67Z"></path><path class="cls-10" d="M232.75,291.82l-.55-.32-62.21-35.92,62.77-36.24,.55,.32,62.21,35.92-62.77,36.24Zm-58.32-36.24l58.32,33.67,58.32-33.67-58.32-33.67-58.32,33.67Z"></path><path class="cls-10" d="M293.29,326.78l-.55-.32-62.21-35.92,62.77-36.24,.55,.32,62.21,35.92-62.77,36.24Zm-58.32-36.24l58.32,33.67,58.32-33.67-58.32-33.67-58.32,33.67Z"></path><path class="cls-10" d="M353.84,361.73l-.55-.32-62.21-35.92,62.77-36.24,62.77,36.24-62.77,36.24Zm-58.32-36.24l58.32,33.67,58.32-33.67-58.32-33.67-58.32,33.67Z"></path><path class="cls-10" d="M414.38,396.69l-.55-.32-62.21-35.92,62.77-36.24,.55,.32,62.21,35.92-62.77,36.24Zm-58.32-36.24l58.32,33.67,58.32-33.67-58.32-33.67-58.32,33.67Z"></path><path class="cls-10" d="M474.93,431.64l-62.77-36.24,62.77-36.24,.55,.32,62.21,35.92-62.77,36.24Zm-58.32-36.24l58.32,33.67,58.32-33.67-58.32-33.67-58.32,33.67Z"></path><path class="cls-10" d="M535.47,466.6l-62.77-36.24,62.77-36.24,62.77,36.24-62.77,36.24Zm-58.32-36.24l58.32,33.67,58.32-33.67-58.32-33.67-58.32,33.67Z"></path><path class="cls-10" d="M596.02,501.56l-.55-.32-62.21-35.92,62.77-36.24,.55,.32,62.21,35.92-62.77,36.24Zm-58.32-36.24l58.32,33.67,58.32-33.67-58.32-33.67-58.32,33.67Z"></path><path class="cls-10" d="M656.56,536.51l-.55-.32-62.21-35.92,62.77-36.24,62.77,36.24-62.77,36.24Zm-58.32-36.24l58.32,33.67,58.32-33.67-58.32-33.67-58.32,33.67Z"></path><path class="cls-10" d="M717.11,571.47l-.55-.32-62.21-35.92,62.77-36.24,.55,.32,62.21,35.92-62.77,36.24Zm-58.32-36.24l58.32,33.67,58.32-33.67-58.32-33.67-58.32,33.67Z"></path><path class="cls-10" d="M111.66,291.82l-.55-.32-62.21-35.92,62.77-36.24,62.77,36.24-62.77,36.24Zm-58.32-36.24l58.32,33.67,58.32-33.67-58.32-33.67-58.32,33.67Z"></path><path class="cls-10" d="M172.2,326.77l-.55-.32-62.21-35.92,62.77-36.24,.55,.32,62.21,35.92-62.77,36.24Zm-58.32-36.24l58.32,33.67,58.32-33.67-58.32-33.67-58.32,33.67Z"></path><path class="cls-10" d="M232.75,361.73l-62.77-36.24,62.77-36.24,.55,.32,62.21,35.92-62.77,36.24Zm-58.32-36.24l58.32,33.67,58.32-33.67-58.32-33.67-58.32,33.67Z"></path><path class="cls-10" d="M293.29,396.69l-.55-.32-62.21-35.92,62.77-36.24,.55,.32,62.21,35.92-62.77,36.24Zm-58.32-36.24l58.32,33.67,58.32-33.67-58.32-33.67-58.32,33.67Z"></path><path class="cls-10" d="M353.84,431.64l-.55-.32-62.21-35.92,62.77-36.24,.55,.32,62.21,35.92-62.77,36.24Zm-58.32-36.24l58.32,33.67,58.32-33.67-58.32-33.67-58.32,33.67Z"></path><path class="cls-10" d="M414.38,466.6l-.55-.32-62.21-35.92,62.77-36.24,62.77,36.24-62.77,36.24Zm-58.32-36.24l58.32,33.67,58.32-33.67-58.32-33.67-58.32,33.67Z"></path><path class="cls-10" d="M474.93,501.55l-.55-.32-62.21-35.92,62.77-36.24,62.77,36.24-62.76,36.24Zm-58.32-36.24l58.32,33.67,58.32-33.67-58.32-33.67-58.32,33.67Z"></path><path class="cls-10" d="M535.47,536.51l-62.77-36.24,62.76-36.24,.55,.32,62.21,35.92-62.77,36.24Zm-58.32-36.24l58.32,33.67,58.32-33.67-58.32-33.67-58.32,33.67Z"></path><path class="cls-10" d="M596.02,571.47l-.55-.32-62.21-35.92,62.77-36.24,.55,.32,62.21,35.92-62.77,36.24Zm-58.32-36.24l58.32,33.67,58.32-33.67-58.32-33.67-58.32,33.67Z"></path><path class="cls-10" d="M656.57,606.42l-.55-.32-62.21-35.92,62.77-36.24,.55,.32,62.21,35.92-62.77,36.24Zm-58.32-36.24l58.32,33.67,58.32-33.67-58.32-33.67-58.32,33.67Z"></path><path class="cls-10" d="M717.11,641.38l-.55-.32-62.21-35.92,62.77-36.24,62.77,36.24-62.77,36.24Zm-58.32-36.24l58.32,33.67,58.32-33.67-58.32-33.67-58.32,33.67Z"></path><path class="cls-10" d="M111.66,361.73l-.55-.32-62.21-35.92,62.77-36.24,.55,.32,62.21,35.92-62.77,36.24Zm-58.32-36.24l58.32,33.67,58.32-33.67-58.32-33.67-58.32,33.67Z"></path><path class="cls-10" d="M172.2,396.68l-.55-.32-62.21-35.92,62.77-36.24,62.77,36.24-62.77,36.24Zm-58.32-36.24l58.32,33.67,58.32-33.67-58.32-33.67-58.32,33.67Z"></path><path class="cls-10" d="M232.75,431.64l-62.77-36.24,62.77-36.24,.55,.32,62.21,35.92-62.77,36.24Zm-58.32-36.24l58.32,33.67,58.32-33.67-58.32-33.67-58.32,33.67Z"></path><path class="cls-10" d="M293.3,466.6l-.55-.32-62.21-35.92,62.77-36.24,.55,.32,62.21,35.92-62.77,36.24Zm-58.32-36.24l58.32,33.67,58.32-33.67-58.32-33.67-58.32,33.67Z"></path><path class="cls-10" d="M353.84,501.55l-.55-.32-62.21-35.92,62.77-36.24,.55,.32,62.21,35.92-62.77,36.24Zm-58.32-36.24l58.32,33.67,58.32-33.67-58.32-33.67-58.32,33.67Z"></path><path class="cls-10" d="M414.39,536.51l-.55-.32-62.21-35.92,62.77-36.24,.55,.32,62.21,35.92-62.77,36.24Zm-58.32-36.24l58.32,33.67,58.32-33.67-58.32-33.67-58.32,33.67Z"></path><path class="cls-10" d="M474.93,571.46l-62.77-36.24,62.77-36.24,62.77,36.24-62.77,36.24Zm-58.32-36.24l58.32,33.67,58.32-33.67-58.32-33.67-58.32,33.67Z"></path><path class="cls-10" d="M535.48,606.42l-62.77-36.24,62.77-36.24,.55,.32,62.21,35.92-62.77,36.24Zm-58.32-36.24l58.32,33.67,58.32-33.67-58.32-33.67-58.32,33.67Z"></path><path class="cls-10" d="M596.02,641.38l-.55-.32-62.21-35.92,62.77-36.24,.55,.32,62.21,35.92-62.77,36.24Zm-58.32-36.24l58.32,33.67,58.32-33.67-58.32-33.67-58.32,33.67Z"></path><path class="cls-10" d="M656.57,676.33l-.55-.32-62.21-35.92,62.77-36.24,.55,.32,62.21,35.92-62.77,36.24Zm-58.32-36.24l58.32,33.67,58.32-33.67-58.32-33.67-58.32,33.67Z"></path><path class="cls-10" d="M717.11,711.29l-.55-.32-62.21-35.92,62.77-36.24,.55,.32,62.21,35.92-62.77,36.24Zm-58.32-36.24l58.32,33.67,58.32-33.67-58.32-33.67-58.32,33.67Z"></path><path class="cls-10" d="M111.66,431.64l-.55-.32-62.21-35.92,62.77-36.24,.55,.32,62.21,35.92-62.77,36.24Zm-58.32-36.24l58.32,33.67,58.32-33.67-58.32-33.67-58.32,33.67Z"></path><path class="cls-10" d="M172.21,466.6l-.55-.32-62.21-35.92,62.77-36.24,62.77,36.24-62.77,36.24Zm-58.32-36.24l58.32,33.67,58.32-33.67-58.32-33.67-58.32,33.67Z"></path><path class="cls-10" d="M232.75,501.55l-.55-.32-62.21-35.92,62.77-36.24,.55,.32,62.21,35.92-62.77,36.24Zm-58.32-36.24l58.32,33.67,58.32-33.67-58.32-33.67-58.32,33.67Z"></path><path class="cls-10" d="M293.3,536.51l-62.77-36.24,62.77-36.24,.55,.32,62.21,35.92-62.77,36.24Zm-58.32-36.24l58.32,33.67,58.32-33.67-58.32-33.67-58.32,33.67Z"></path><path class="cls-10" d="M353.84,571.46l-.55-.32-62.21-35.92,62.77-36.24,.55,.32,62.21,35.92-62.77,36.24Zm-58.32-36.24l58.32,33.67,58.32-33.67-58.32-33.67-58.32,33.67Z"></path><path class="cls-10" d="M414.39,606.42l-62.77-36.24,62.77-36.24,62.77,36.24-62.77,36.24Zm-58.32-36.24l58.32,33.67,58.32-33.67-58.32-33.67-58.32,33.67Z"></path><path class="cls-10" d="M474.93,641.38l-.55-.32-62.21-35.92,62.77-36.24,62.77,36.24-62.77,36.24Zm-58.32-36.24l58.32,33.67,58.32-33.67-58.32-33.67-58.32,33.67Z"></path><path class="cls-10" d="M535.48,676.33l-.55-.32-62.21-35.92,62.77-36.24,.55,.32,62.21,35.92-62.77,36.24Zm-58.32-36.24l58.32,33.67,58.32-33.67-58.32-33.67-58.32,33.67Z"></path><path class="cls-10" d="M596.02,711.29l-62.77-36.24,62.77-36.24,.55,.32,62.21,35.92-62.77,36.24Zm-58.32-36.24l58.32,33.67,58.32-33.67-58.32-33.67-58.32,33.67Z"></path><path class="cls-10" d="M111.66,501.55l-.55-.32-62.21-35.92,62.77-36.24,.55,.32,62.21,35.92-62.77,36.24Zm-58.32-36.24l58.32,33.67,58.32-33.67-58.32-33.67-58.32,33.67Z"></path><path class="cls-10" d="M172.21,536.51l-.55-.32-62.21-35.92,62.77-36.24,.55,.32,62.21,35.92-62.77,36.24Zm-58.32-36.24l58.32,33.67,58.32-33.67-58.32-33.67-58.32,33.67Z"></path><path class="cls-10" d="M232.75,571.46l-.55-.32-62.21-35.92,62.77-36.24,62.77,36.24-62.77,36.24Zm-58.32-36.24l58.32,33.67,58.32-33.67-58.32-33.67-58.32,33.67Z"></path><path class="cls-10" d="M293.3,606.42l-62.77-36.24,62.77-36.24,.55,.32,62.21,35.92-62.77,36.24Zm-58.32-36.24l58.32,33.67,58.32-33.67-58.32-33.67-58.32,33.67Z"></path><path class="cls-10" d="M353.84,641.38l-.55-.32-62.21-35.92,62.77-36.24,62.77,36.24-62.76,36.24Zm-58.32-36.24l58.32,33.67,58.32-33.67-58.32-33.67-58.32,33.67Z"></path><path class="cls-10" d="M414.39,676.33l-62.77-36.24,62.76-36.24,.55,.32,62.21,35.92-62.77,36.24Zm-58.32-36.24l58.32,33.67,58.32-33.67-58.32-33.67-58.32,33.67Z"></path><path class="cls-10" d="M474.93,711.29l-.55-.32-62.21-35.92,62.77-36.24,.55,.32,62.21,35.92-62.77,36.24Zm-58.32-36.24l58.32,33.67,58.32-33.67-58.32-33.67-58.32,33.67Z"></path><path class="cls-10" d="M111.66,571.46l-.55-.32-62.21-35.92,62.77-36.24,.55,.32,62.21,35.92-62.77,36.24Zm-58.32-36.24l58.32,33.67,58.32-33.67-58.32-33.67-58.32,33.67Z"></path><path class="cls-10" d="M172.21,606.42l-.55-.32-62.21-35.92,62.77-36.24,.55,.32,62.21,35.92-62.77,36.24Zm-58.32-36.24l58.32,33.67,58.32-33.67-58.32-33.67-58.32,33.67Z"></path><path class="cls-10" d="M232.76,641.37l-.55-.32-62.21-35.92,62.77-36.24,62.77,36.24-62.77,36.24Zm-58.32-36.24l58.32,33.67,58.32-33.67-58.32-33.67-58.32,33.67Z"></path><path class="cls-10" d="M293.3,676.33l-.55-.32-62.21-35.92,62.77-36.24,.55,.32,62.21,35.92-62.77,36.24Zm-58.32-36.24l58.32,33.67,58.32-33.67-58.32-33.67-58.32,33.67Z"></path><path class="cls-10" d="M353.84,711.29l-62.77-36.24,62.77-36.24,62.77,36.24-62.77,36.24Zm-58.32-36.24l58.32,33.67,58.32-33.67-58.32-33.67-58.32,33.67Z"></path><path class="cls-10" d="M111.67,641.37l-62.77-36.24,62.77-36.24,.55,.32,62.21,35.92-62.77,36.24Zm-58.32-36.24l58.32,33.67,58.32-33.67-58.32-33.67-58.32,33.67Z"></path><path class="cls-10" d="M172.21,676.33l-.55-.32-62.21-35.92,62.77-36.24,.55,.32,62.21,35.92-62.77,36.24Zm-58.32-36.24l58.32,33.67,58.32-33.67-58.32-33.67-58.32,33.67Z"></path><path class="cls-10" d="M232.76,711.29l-.55-.32-62.21-35.92,62.77-36.24,.55,.32,62.21,35.92-62.77,36.24Zm-58.32-36.24l58.32,33.67,58.32-33.67-58.32-33.67-58.32,33.67Z"></path><path class="cls-10" d="M111.67,711.29l-62.77-36.24,62.77-36.24,.55,.32,62.21,35.92-62.77,36.24Zm-58.32-36.24l58.32,33.67,58.32-33.67-58.32-33.67-58.32,33.67Z"></path></g><g><path class="cls-21" d="M531.23,628.54c0,3.85-2.7,8.53-6.04,10.45-3.33,1.92-6.04,.36-6.04-3.48s2.7-8.53,6.04-10.45c3.33-1.92,6.04-.36,6.04,3.48Z"></path><path class="cls-21" d="M550.79,617.24c0,3.85-2.7,8.53-6.04,10.45-3.33,1.92-6.04,.36-6.04-3.48s2.7-8.53,6.04-10.45c3.33-1.92,6.04-.36,6.04,3.48Z"></path><path class="cls-21" d="M570.35,605.95c0,3.85-2.7,8.53-6.04,10.45-3.33,1.92-6.04,.36-6.04-3.48s2.7-8.53,6.04-10.45c3.33-1.92,6.04-.36,6.04,3.48Z"></path><path class="cls-21" d="M589.92,594.65c0,3.85-2.7,8.53-6.04,10.45-3.33,1.92-6.04,.36-6.04-3.48s2.7-8.53,6.04-10.45c3.33-1.92,6.04-.36,6.04,3.48Z"></path></g><g><polygon class="cls-21" points="30.7 481.68 20.12 487.79 20.12 475.57 30.7 469.47 30.7 481.68"></polygon><polygon class="cls-21" points="47.84 471.78 37.26 477.89 37.26 465.68 47.84 459.57 47.84 471.78"></polygon><polygon class="cls-21" points="64.98 461.89 54.4 467.99 54.4 455.78 64.98 449.67 64.98 461.89"></polygon><polygon class="cls-21" points="82.12 451.99 71.55 458.1 71.55 445.88 82.12 439.78 82.12 451.99"></polygon></g><g><polygon class="cls-25" points="211.82 622.62 199.75 629.59 199.75 615.65 211.82 608.68 211.82 622.62"></polygon><polygon class="cls-25" points="228.58 612.83 216.51 619.8 216.51 605.86 228.58 598.89 228.58 612.83"></polygon><polygon class="cls-25" points="211.93 640.7 199.86 647.67 199.86 633.73 211.93 626.76 211.93 640.7"></polygon><polygon class="cls-25" points="228.58 631.09 216.51 638.06 216.51 624.12 228.58 617.15 228.58 631.09"></polygon></g><path class="cls-2" d="M341.63,640.65c-1.81,1.04-3.51,2.54-5.01,4.3-.23-9.87-7.32-13.81-16.04-8.78-2.79,1.61-5.42,3.96-7.71,6.73-3.88-6.79-11.93-8.36-21.25-2.98-13.11,7.57-23.74,25.97-23.74,41.11,0,1.25,.1,2.41,.24,3.54-1.87-.48-4.16-.09-6.65,1.34-6.27,3.62-11.36,12.43-11.36,19.67s5.08,10.18,11.36,6.56l80.15-46.27c6.03-3.48,10.92-11.95,10.92-18.91s-4.89-9.79-10.92-6.3Z"></path><g><g><polygon class="cls-25" points="726.35 424.76 681.03 398.59 726.35 372.43 771.67 398.59 726.35 424.76"></polygon><path class="cls-26" d="M726.35,408.56c-.6,0-1.19-.15-1.72-.46l-45.32-26.17c-1.07-.62-1.72-1.75-1.72-2.98s.66-2.37,1.72-2.98l45.32-26.17c1.07-.62,2.38-.62,3.44,0l45.32,26.17c1.07,.62,1.72,1.75,1.72,2.98s-.66,2.37-1.72,2.98l-45.32,26.17c-.53,.31-1.13,.46-1.72,.46Zm-38.43-29.61l38.43,22.19,38.43-22.19-38.43-22.19-38.43,22.19Z"></path><polygon class="cls-23" points="771.67 358.5 726.35 384.66 726.35 332.33 771.67 306.17 771.67 358.5"></polygon><polygon class="cls-13" points="726.35 332.33 681.03 306.17 726.35 280 771.67 306.17 726.35 332.33"></polygon><polygon class="cls-21" points="726.35 384.66 681.03 358.5 681.03 306.17 726.35 332.33 726.35 384.66"></polygon></g><polygon class="cls-1" points="710.03 356.39 697.35 349.07 697.35 334.44 710.03 341.76 710.03 356.39"></polygon></g><g><path class="cls-25" d="M95.45,624.02l-62.53-36.1c-3.84-2.22-3.36-6.09,1.07-8.64l60.37-34.86c4.43-2.56,11.13-2.84,14.97-.62l62.53,36.1c3.84,2.22,3.36,6.09-1.07,8.64l-60.37,34.86c-4.43,2.56-11.13,2.84-14.97,.62Z"></path><path class="cls-1" d="M101.99,609.33c-3.05,0-6-.66-8.31-1.99l-62.53-36.1c-2.77-1.6-4.37-4.09-4.37-6.83,0-3.06,1.98-5.97,5.44-7.96l60.38-34.86c5.59-3.22,13.55-3.49,18.52-.62l62.52,36.1c2.77,1.6,4.37,4.09,4.37,6.83,0,3.07-1.98,5.97-5.44,7.97l-60.37,34.86c-2.99,1.73-6.67,2.61-10.21,2.61Zm-4.76-8.14c2.76,1.59,8.1,1.3,11.42-.62l60.38-34.86c1.52-.88,1.88-1.67,1.89-1.82-.02-.04-.23-.33-.82-.67l-62.52-36.1c-2.76-1.59-8.09-1.3-11.42,.62l-60.37,34.86c-1.52,.88-1.88,1.67-1.89,1.82,.02,.05,.22,.34,.81,.68l62.52,36.1Z"></path><path class="cls-14" d="M174.44,541.78h0v-21.57l-48.38-.03-16.72-9.65c-3.84-2.22-10.54-1.94-14.97,.62l-15.6,9.01-48.42-.03v22.19c-.11,1.5,.73,2.95,2.57,4.01l62.53,36.1c3.84,2.22,10.54,1.94,14.97-.62l60.37-34.86c2.56-1.48,3.79-3.39,3.65-5.17Z"></path><path class="cls-11" d="M102.4,509.04c-2.81,.07-5.72,.78-8.03,2.11l-15.6,9.01-48.42-.03v22.19c-.11,1.5,.73,2.95,2.57,4.01l62.53,36.1c1.84,1.06,4.35,1.55,6.95,1.48v-74.87Z"></path><path class="cls-24" d="M35.83,520.13h-5.48s0,22.18,0,22.18c-.11,1.5,.73,2.95,2.57,4.01l2.91,1.68v-27.88Z"></path><path class="cls-26" d="M96.41,582.89c3.31,1.42,8.1,1.34,11.97-.14v-25.19h-11.97v25.33Z"></path><path class="cls-3" d="M95.45,560.31l-62.53-36.1c-3.84-2.22-3.36-6.09,1.07-8.64l60.37-34.86c4.43-2.56,11.13-2.84,14.97-.62l62.53,36.1c3.84,2.22,3.36,6.09-1.07,8.64l-60.37,34.86c-4.43,2.56-11.13,2.84-14.97,.62Z"></path><path class="cls-1" d="M170.8,520.59l-60.37,34.86c-4.43,2.56-11.13,2.84-14.97,.62l-62.53-36.1c-.86-.49-1.48-1.07-1.91-1.7-1.32,2.12-.72,4.42,1.91,5.94l62.53,36.1c3.84,2.22,10.54,1.94,14.97-.62l60.37-34.86c3.44-1.99,4.49-4.76,2.99-6.95-.6,.97-1.6,1.9-2.99,2.7Z"></path><g><path class="cls-24" d="M151.44,547.47c0,1.61-1.13,3.57-2.53,4.37s-2.53,.15-2.53-1.46,1.13-3.57,2.53-4.37,2.53-.15,2.53,1.46Z"></path><path class="cls-24" d="M159.57,542.78c0,1.61-1.13,3.57-2.53,4.37-1.39,.81-2.53,.15-2.53-1.46s1.13-3.57,2.53-4.37,2.53-.15,2.53,1.46Z"></path><path class="cls-24" d="M167.69,538.09c0,1.61-1.13,3.57-2.53,4.37-1.39,.81-2.53,.15-2.53-1.46s1.13-3.57,2.53-4.37c1.39-.81,2.53-.15,2.53,1.46Z"></path></g><g><path class="cls-21" d="M99.15,537.93l-29.26-16.89c-1.8-1.04-1.57-2.85,.5-4.04l28.25-16.31c2.07-1.2,5.21-1.33,7.01-.29l29.26,16.89c1.8,1.04,1.57,2.85-.5,4.04l-28.25,16.31c-2.07,1.2-5.21,1.33-7.01,.29Z"></path><path class="cls-24" d="M101.95,523.79l-4.05-2.34c-.25-.14-.22-.39,.07-.56l3.91-2.26c.29-.17,.72-.18,.97-.04l4.05,2.34c.25,.14,.22,.39-.07,.56l-3.91,2.26c-.29,.17-.72,.18-.97,.04Z"></path><path class="cls-14" d="M69.89,521.04l.08,.05c.14-.1,.26-.2,.42-.29l28.25-16.31c2.07-1.2,5.21-1.33,7.01-.29l29.18,16.84c1.66-1.18,1.74-2.8,.08-3.76l-29.26-16.89c-1.8-1.04-4.93-.91-7.01,.29l-28.25,16.31c-2.07,1.2-2.3,3.01-.5,4.04Z"></path></g></g><path class="cls-17" d="M201.88,326.3c-1.18,.68-2.33,1.54-3.42,2.51-.47-15.39-11.59-21.51-25.27-13.61-11.14,6.43-20.58,20.21-23.97,33.71-2.75-.37-5.98,.35-9.45,2.35-9.97,5.76-18.06,19.76-18.06,31.28s8.09,16.19,18.06,10.43l62.11-35.86c7.36-4.25,13.33-14.59,13.33-23.1s-5.97-11.95-13.33-7.7Z"></path><path class="cls-17" d="M722.35,108.37c-2.06,1.19-4.01,2.9-5.72,4.92-.27-11.28-8.36-15.79-18.33-10.03-3.19,1.84-6.19,4.52-8.81,7.69-4.44-7.76-13.63-9.56-24.28-3.41-14.98,8.65-27.13,29.68-27.13,46.98,0,1.43,.11,2.76,.27,4.04-2.14-.55-4.76-.11-7.6,1.53-7.17,4.14-12.98,14.2-12.98,22.48s5.81,11.63,12.98,7.49l91.6-52.88c6.89-3.98,12.48-13.66,12.48-21.61s-5.59-11.18-12.48-7.2Z"></path><path class="cls-25" d="M659.17,496.65c-.48,0-.96-.11-1.41-.35-1.49-.78-2.07-2.62-1.29-4.11,3.09-5.92,7.63-10.9,12.44-13.68,3.02-1.75,5.98-2.56,8.76-2.42,.12,0,.24,0,.37,0,3.85,0,8.57-2.92,12.7-7.9,2.43-2.92,5.09-5.23,7.91-6.86,3.03-1.75,5.98-2.55,8.76-2.42,3.85,.25,8.81-2.75,13.07-7.89,2.39-2.88,5.12-5.25,7.91-6.86,3.03-1.75,5.95-2.56,8.76-2.42,3.83,.26,8.81-2.75,13.07-7.89,2.43-2.92,5.09-5.23,7.91-6.86,4.47-2.57,8.91-3.13,12.54-1.56,1.54,.67,2.25,2.46,1.58,4.01-.67,1.54-2.46,2.24-4.01,1.58-1.81-.79-4.31-.34-7.06,1.25-2.17,1.25-4.33,3.14-6.27,5.47-5.56,6.71-12.2,10.34-18.06,10.08-1.58-.1-3.45,.48-5.42,1.61-2.17,1.25-4.34,3.14-6.27,5.47-5.56,6.7-12.12,10.34-18.06,10.08-1.57-.11-3.45,.48-5.42,1.62-2.17,1.25-4.33,3.14-6.27,5.47-5.56,6.7-12.21,10.34-18.06,10.08-1.6-.11-3.45,.48-5.42,1.61-3.84,2.21-7.51,6.3-10.08,11.22-.54,1.04-1.6,1.63-2.7,1.63Z"></path><g><path class="cls-25" d="M410.37,648.84l-249.27-143.92c-7.05-4.07-6.17-11.18,1.98-15.88l169.74-97.96c8.14-4.7,20.46-5.21,27.51-1.14l249.27,143.92c7.05,4.07,6.17,11.18-1.98,15.88l-169.74,97.96c-8.14,4.7-20.46,5.21-27.51,1.14Z"></path><path class="cls-1" d="M422.35,626.99c-4.99,0-9.78-1.04-13.44-3.15l-249.27-143.92c-4.01-2.32-6.22-5.66-6.22-9.43,0-4.31,2.99-8.51,8.2-11.51l169.73-97.96c9.09-5.25,22.45-5.75,30.43-1.14l249.27,143.92c4.01,2.32,6.22,5.66,6.22,9.43,0,4.31-2.99,8.51-8.2,11.51l-169.73,97.96c-4.92,2.84-11.1,4.29-16.99,4.29Zm-10.52-8.21c6.13,3.54,17.39,3.02,24.59-1.14l169.73-97.96c3.3-1.91,5.27-4.32,5.27-6.46s-1.79-3.5-3.3-4.37l-249.27-143.92c-6.13-3.54-17.39-3.02-24.59,1.14l-169.73,97.96c-3.3,1.91-5.27,4.32-5.27,6.46s1.79,3.5,3.3,4.37l249.27,143.92Z"></path><g><path class="cls-5" d="M671.42,231.76L422.15,87.85c-2.9-1.67-5.84-1.93-8.45-1.04l.02-.03-.45,.17s-.07,.03-.11,.04l-9.01,3.45,8.09,3.96c-.04,.15-.08,.29-.12,.44l-44.04,200.3c-2.03,9.25,2.04,20.05,9.09,24.12l243.28,140.46-.87,10.31,9.85-3.82c3.31-1.55,5.96-5.05,7.05-10.03l44.04-200.3c2.03-9.25-2.04-20.05-9.09-24.12Z"></path><path class="cls-14" d="M671.42,231.76L422.15,87.85c-2.9-1.67-5.84-1.93-8.45-1.04l.02-.03-.45,.17s-.07,.03-.11,.04l-9.01,3.45,8.09,3.96c-.04,.15-.08,.29-.12,.44l-30.2,137.29,121.97,95.02,175.42-85.46c-1.65-4.28-4.4-7.93-7.87-9.93Z"></path><path class="cls-4" d="M662.02,260.17l18.98-8.08c.35-7.35-2.69-14.94-7.69-19l-30.04,12.64,18.75,14.44Z"></path><path class="cls-15" d="M610.9,469.05l-249.27-143.92c-7.05-4.07-11.12-14.87-9.09-24.12l44.04-200.3c2.03-9.25,9.4-13.45,16.45-9.38l249.27,143.92c7.05,4.07,11.12,14.87,9.09,24.12l-44.04,200.3c-2.03,9.25-9.4,13.45-16.45,9.38Z"></path><path class="cls-1" d="M664.7,234.38L415.43,90.46c-3.42-1.97-6.89-1.97-9.81-.43,2.34-.51,4.9-.15,7.42,1.3l249.27,143.92c7.05,4.07,11.12,14.87,9.09,24.12l-44.04,200.3c-1.05,4.77-3.52,8.16-6.63,9.8,4.21-.92,7.72-4.74,9.03-10.68l44.04-200.3c2.03-9.25-2.04-20.05-9.09-24.12Z"></path><path class="cls-1" d="M605.5,455.3l-234.44-135.28c-6.45-3.73-10.18-13.61-8.32-22.07l40.6-184.61c1.86-8.46,8.6-12.3,15.05-8.58l234.44,135.28c6.45,3.73,10.18,13.61,8.32,22.07l-40.6,184.61c-1.86,8.46-8.6,12.31-15.05,8.58Z"></path><path class="cls-7" d="M605.5,455.3l-234.44-135.28c-6.45-3.73-10.18-13.61-8.32-22.07l40.6-184.61c1.86-8.46,8.6-12.3,15.05-8.58l234.44,135.28c6.45,3.73,10.18,13.61,8.32,22.07l-40.6,184.61c-1.86,8.46-8.6,12.31-15.05,8.58Z"></path><path class="cls-26" d="M607.54,454.47l-234.44-135.29c-6.45-3.73-10.18-13.61-8.32-22.07l40.6-184.61c.94-4.28,3.14-7.37,5.91-8.9-3.72,.96-6.79,4.44-7.95,9.73l-40.6,184.61c-1.86,8.46,1.86,18.35,8.32,22.07l234.44,135.28c3.19,1.84,6.44,1.82,9.14,.32-2.23,.57-4.68,.24-7.1-1.15Z"></path><path class="cls-5" d="M614.35,475.32l-34.07-4.5-219.95-126.99c-7.05-4.07-19.37-3.56-27.51,1.14l-155.86,89.95-20.6-2.72v11.69h.02c-.13,2.7,1.4,5.3,4.73,7.22l249.27,143.92c7.05,4.07,19.37,3.56,27.51-1.14l169.74-97.96c4.58-2.64,6.86-6.05,6.73-9.25h0v-11.36Z"></path><path class="cls-14" d="M449.08,395.07l-15.63-9.02h-171.81l-84.7,48.87-20.6-2.72v11.69h.02c-.13,2.7,1.4,5.3,4.73,7.22l249.27,143.92c3.73,2.15,8.92,3.01,14.2,2.66l24.51-202.62Z"></path><path class="cls-26" d="M165.49,433.4l-9.14-1.21v11.69h.02c-.13,2.7,1.4,5.3,4.73,7.22l4.39,2.54v-20.24Z"></path><path class="cls-4" d="M412.88,596.2c6.68,2.53,16.24,1.98,23.38-1.45v-26.08h-23.38v27.53Z"></path><path class="cls-12" d="M410.37,583.35l-249.27-143.92c-7.05-4.07-6.17-11.18,1.98-15.88l169.74-97.96c8.14-4.7,20.46-5.21,27.51-1.14l249.27,143.92c7.05,4.07,6.17,11.18-1.98,15.88l-169.74,97.96c-8.14,4.7-20.46,5.21-27.51,1.14Z"></path><path class="cls-1" d="M607.62,479.98l-169.74,97.96c-8.14,4.7-20.46,5.21-27.51,1.14l-249.27-143.92c-2.31-1.33-3.75-3-4.38-4.8-1.1,3.34,.3,6.71,4.38,9.07l249.27,143.92c7.05,4.07,19.37,3.56,27.51-1.14l169.74-97.96c5.47-3.16,7.65-7.41,6.36-11.09-.8,2.43-2.93,4.84-6.36,6.82Z"></path><g><path class="cls-26" d="M267.12,391.79l-11.28-6.51c-.91-.52-.79-1.44,.25-2.04l13.31-7.69c1.05-.6,2.63-.67,3.53-.15l11.28,6.51c.91,.52,.79,1.44-.25,2.04l-13.31,7.69c-1.05,.6-2.63,.67-3.53,.15Z"></path><path class="cls-26" d="M284.53,401.85l-11.28-6.51c-.91-.52-.79-1.44,.25-2.04l13.31-7.69c1.05-.6,2.63-.67,3.53-.15l11.28,6.51c.91,.52,.79,1.44-.25,2.04l-13.31,7.69c-1.05,.6-2.63,.67-3.53,.15Z"></path><path class="cls-26" d="M301.95,411.9l-11.28-6.51c-.91-.52-.79-1.44,.25-2.04l13.31-7.69c1.05-.6,2.63-.67,3.53-.15l11.28,6.51c.91,.52,.79,1.44-.25,2.04l-13.31,7.69c-1.05,.6-2.63,.67-3.53,.15Z"></path><path class="cls-26" d="M326.04,403.6l-11.28-6.51c-.91-.52-.79-1.44,.25-2.04l11.18-6.45c1.05-.6,2.63-.67,3.53-.15l11.28,6.51c.91,.52,.79,1.44-.25,2.04l-11.18,6.45c-1.05,.6-2.63,.67-3.53,.15Z"></path><path class="cls-26" d="M343.46,413.65l-11.28-6.51c-.91-.52-.79-1.44,.25-2.04l11.18-6.45c1.05-.6,2.63-.67,3.53-.15l11.28,6.51c.91,.52,.79,1.44-.25,2.04l-11.18,6.45c-1.05,.6-2.63,.67-3.53,.15Z"></path><path class="cls-26" d="M360.88,423.71l-11.28-6.51c-.91-.52-.79-1.44,.25-2.04l11.18-6.45c1.05-.6,2.63-.67,3.53-.15l11.28,6.51c.91,.52,.79,1.44-.25,2.04l-11.18,6.45c-1.05,.6-2.63,.67-3.53,.15Z"></path><path class="cls-26" d="M378.29,433.77l-11.28-6.51c-.91-.52-.79-1.44,.25-2.04l11.18-6.45c1.05-.6,2.63-.67,3.53-.15l11.28,6.51c.91,.52,.79,1.44-.25,2.04l-11.18,6.45c-1.05,.6-2.63,.67-3.53,.15Z"></path><path class="cls-26" d="M395.71,443.82l-11.28-6.51c-.91-.52-.79-1.44,.25-2.04l11.18-6.45c1.05-.6,2.63-.67,3.53-.15l11.28,6.51c.91,.52,.79,1.44-.25,2.04l-11.18,6.45c-1.05,.6-2.63,.67-3.53,.15Z"></path><path class="cls-26" d="M413.13,453.88l-11.28-6.51c-.91-.52-.79-1.44,.25-2.04l11.18-6.45c1.05-.6,2.63-.67,3.53-.15l11.28,6.51c.91,.52,.79,1.44-.25,2.04l-11.18,6.45c-1.05,.6-2.63,.67-3.53,.15Z"></path><path class="cls-26" d="M430.55,463.93l-11.28-6.51c-.91-.52-.79-1.44,.25-2.04l11.18-6.45c1.05-.6,2.63-.67,3.53-.15l11.28,6.51c.91,.52,.79,1.44-.25,2.04l-11.18,6.45c-1.05,.6-2.63,.67-3.53,.15Z"></path><path class="cls-26" d="M447.96,473.99l-11.28-6.51c-.91-.52-.79-1.44,.25-2.04l11.18-6.45c1.05-.6,2.63-.67,3.53-.15l11.28,6.51c.91,.52,.79,1.44-.25,2.04l-11.18,6.45c-1.05,.6-2.63,.67-3.53,.15Z"></path><path class="cls-26" d="M465.38,484.05l-11.28-6.51c-.91-.52-.79-1.44,.25-2.04l11.18-6.45c1.05-.6,2.63-.67,3.53-.15l11.28,6.51c.91,.52,.79,1.44-.25,2.04l-11.18,6.45c-1.05,.6-2.63,.67-3.53,.15Z"></path><path class="cls-26" d="M482.8,494.1l-11.28-6.51c-.91-.52-.79-1.44,.25-2.04l11.18-6.45c1.05-.6,2.63-.67,3.53-.15l11.28,6.51c.91,.52,.79,1.44-.25,2.04l-11.18,6.45c-1.05,.6-2.63,.67-3.53,.15Z"></path><path class="cls-26" d="M351.7,398.84l-11.28-6.51c-.91-.52-.79-1.44,.25-2.04l11.18-6.45c1.05-.6,2.63-.67,3.53-.15l11.28,6.51c.91,.52,.79,1.44-.25,2.04l-11.18,6.45c-1.05,.6-2.63,.67-3.53,.15Z"></path><path class="cls-26" d="M334.03,388.63l-11.28-6.51c-.91-.52-.79-1.44,.25-2.04l11.18-6.45c1.05-.6,2.63-.67,3.53-.15l11.28,6.51c.91,.52,.79,1.44-.25,2.04l-11.18,6.45c-1.05,.6-2.63,.67-3.53,.15Z"></path><path class="cls-26" d="M316.32,378.41l-24.29-14.02c-.91-.52-.79-1.44,.25-2.04l11.18-6.45c1.05-.6,2.63-.67,3.53-.15l24.29,14.02c.91,.52,.79,1.44-.25,2.04l-11.18,6.45c-1.05,.6-2.63,.67-3.53,.15Z"></path><path class="cls-26" d="M328.7,365.98l-19.71-11.38c-.91-.52-.79-1.44,.25-2.04l11.18-6.45c1.05-.6,2.63-.67,3.53-.15l19.71,11.38c.91,.52,.79,1.44-.25,2.04l-11.18,6.45c-1.05,.6-2.63,.67-3.53,.15Z"></path><path class="cls-26" d="M369.12,408.89l-11.28-6.51c-.91-.52-.79-1.44,.25-2.04l11.18-6.45c1.05-.6,2.63-.67,3.53-.15l11.28,6.51c.91,.52,.79,1.44-.25,2.04l-11.18,6.45c-1.05,.6-2.63,.67-3.53,.15Z"></path><path class="cls-26" d="M386.54,418.95l-11.28-6.51c-.91-.52-.79-1.44,.25-2.04l11.18-6.45c1.05-.6,2.63-.67,3.53-.15l11.28,6.51c.91,.52,.79,1.44-.25,2.04l-11.18,6.45c-1.05,.6-2.63,.67-3.53,.15Z"></path><path class="cls-26" d="M403.96,429l-11.28-6.51c-.91-.52-.79-1.44,.25-2.04l11.18-6.45c1.05-.6,2.63-.67,3.53-.15l11.28,6.51c.91,.52,.79,1.44-.25,2.04l-11.18,6.45c-1.05,.6-2.63,.67-3.53,.15Z"></path><path class="cls-26" d="M421.37,439.06l-11.28-6.51c-.91-.52-.79-1.44,.25-2.04l11.18-6.45c1.05-.6,2.63-.67,3.53-.15l11.28,6.51c.91,.52,.79,1.44-.25,2.04l-11.18,6.45c-1.05,.6-2.63,.67-3.53,.15Z"></path><path class="cls-26" d="M438.79,449.12l-11.28-6.51c-.91-.52-.79-1.44,.25-2.04l11.18-6.45c1.05-.6,2.63-.67,3.53-.15l11.28,6.51c.91,.52,.79,1.44-.25,2.04l-11.18,6.45c-1.05,.6-2.63,.67-3.53,.15Z"></path><path class="cls-26" d="M456.21,459.17l-11.28-6.51c-.91-.52-.79-1.44,.25-2.04l11.18-6.45c1.05-.6,2.63-.67,3.53-.15l11.28,6.51c.91,.52,.79,1.44-.25,2.04l-11.18,6.45c-1.05,.6-2.63,.67-3.53,.15Z"></path><path class="cls-26" d="M473.63,469.23l-11.28-6.51c-.91-.52-.79-1.44,.25-2.04l11.18-6.45c1.05-.6,2.63-.67,3.53-.15l11.28,6.51c.91,.52,.79,1.44-.25,2.04l-11.18,6.45c-1.05,.6-2.63,.67-3.53,.15Z"></path><path class="cls-26" d="M491.04,479.28l-11.28-6.51c-.91-.52-.79-1.44,.25-2.04l11.18-6.45c1.05-.6,2.63-.67,3.53-.15l11.28,6.51c.91,.52,.79,1.44-.25,2.04l-11.18,6.45c-1.05,.6-2.63,.67-3.53,.15Z"></path><path class="cls-26" d="M508.46,489.34l-11.28-6.51c-.91-.52-.79-1.44,.25-2.04l11.18-6.45c1.05-.6,2.63-.67,3.53-.15l11.28,6.51c.91,.52,.79,1.44-.25,2.04l-11.18,6.45c-1.05,.6-2.63,.67-3.53,.15Z"></path><path class="cls-26" d="M539.43,507.22l-24.61-14.21c-.91-.52-.79-1.44,.25-2.04l11.18-6.45c1.05-.6,2.63-.67,3.53-.15l24.61,14.21c.91,.52,.79,1.44-.25,2.04l-11.18,6.45c-1.05,.6-2.63,.67-3.53,.15Z"></path><path class="cls-26" d="M573.34,487.64l-20.77-11.99c-.91-.52-.79-1.44,.25-2.04l11.18-6.45c1.05-.6,2.63-.67,3.53-.15l20.77,11.99c.91,.52,.79,1.44-.25,2.04l-11.18,6.45c-1.05,.6-2.63,.67-3.53,.15Z"></path><path class="cls-26" d="M399.62,406.93l-11.28-6.51c-.91-.52-.79-1.44,.25-2.04l11.18-6.45c1.05-.6,2.63-.67,3.53-.15l11.28,6.51c.91,.52,.79,1.44-.25,2.04l-11.18,6.45c-1.05,.6-2.63,.67-3.53,.15Z"></path><path class="cls-26" d="M381.77,396.62l-11.28-6.51c-.91-.52-.79-1.44,.25-2.04l11.18-6.45c1.05-.6,2.63-.67,3.53-.15l11.28,6.51c.91,.52,.79,1.44-.25,2.04l-11.18,6.45c-1.05,.6-2.63,.67-3.53,.15Z"></path><path class="cls-26" d="M363.92,386.31l-11.28-6.51c-.91-.52-.79-1.44,.25-2.04l11.18-6.45c1.05-.6,2.63-.67,3.53-.15l11.28,6.51c.91,.52,.79,1.44-.25,2.04l-11.18,6.45c-1.05,.6-2.63,.67-3.53,.15Z"></path><path class="cls-26" d="M346.07,376.01l-11.28-6.51c-.91-.52-.79-1.44,.25-2.04l11.18-6.45c1.05-.6,2.63-.67,3.53-.15l11.28,6.51c.91,.52,.79,1.44-.25,2.04l-11.18,6.45c-1.05,.6-2.63,.67-3.53,.15Z"></path><path class="cls-26" d="M417.04,416.98l-11.28-6.51c-.91-.52-.79-1.44,.25-2.04l11.18-6.45c1.05-.6,2.63-.67,3.53-.15l11.28,6.51c.91,.52,.79,1.44-.25,2.04l-11.18,6.45c-1.05,.6-2.63,.67-3.53,.15Z"></path><path class="cls-26" d="M434.46,427.04l-11.28-6.51c-.91-.52-.79-1.44,.25-2.04l11.18-6.45c1.05-.6,2.63-.67,3.53-.15l11.28,6.51c.91,.52,.79,1.44-.25,2.04l-11.18,6.45c-1.05,.6-2.63,.67-3.53,.15Z"></path><path class="cls-26" d="M451.88,437.09l-11.28-6.51c-.91-.52-.79-1.44,.25-2.04l11.18-6.45c1.05-.6,2.63-.67,3.53-.15l11.28,6.51c.91,.52,.79,1.44-.25,2.04l-11.18,6.45c-1.05,.6-2.63,.67-3.53,.15Z"></path><path class="cls-26" d="M469.29,447.15l-11.28-6.51c-.91-.52-.79-1.44,.25-2.04l11.18-6.45c1.05-.6,2.63-.67,3.53-.15l11.28,6.51c.91,.52,.79,1.44-.25,2.04l-11.18,6.45c-1.05,.6-2.63,.67-3.53,.15Z"></path><path class="cls-26" d="M486.71,457.2l-11.28-6.51c-.91-.52-.79-1.44,.25-2.04l11.18-6.45c1.05-.6,2.63-.67,3.53-.15l11.28,6.51c.91,.52,.79,1.44-.25,2.04l-11.18,6.45c-1.05,.6-2.63,.67-3.53,.15Z"></path><path class="cls-26" d="M504.13,467.26l-11.28-6.51c-.91-.52-.79-1.44,.25-2.04l11.18-6.45c1.05-.6,2.63-.67,3.53-.15l11.28,6.51c.91,.52,.79,1.44-.25,2.04l-11.18,6.45c-1.05,.6-2.63,.67-3.53,.15Z"></path><path class="cls-26" d="M521.55,477.32l-11.28-6.51c-.91-.52-.79-1.44,.25-2.04l11.18-6.45c1.05-.6,2.63-.67,3.53-.15l11.28,6.51c.91,.52,.79,1.44-.25,2.04l-11.18,6.45c-1.05,.6-2.63,.67-3.53,.15Z"></path><path class="cls-26" d="M538.96,487.37l-11.28-6.51c-.91-.52-.79-1.44,.25-2.04l11.18-6.45c1.05-.6,2.63-.67,3.53-.15l11.28,6.51c.91,.52,.79,1.44-.25,2.04l-11.18,6.45c-1.05,.6-2.63,.67-3.53,.15Z"></path><path class="cls-26" d="M556.38,497.43l-11.28-6.51c-.91-.52-.79-1.44,.25-2.04l11.18-6.45c1.05-.6,2.63-.67,3.53-.15l11.28,6.51c.91,.52,.79,1.44-.25,2.04l-11.18,6.45c-1.05,.6-2.63,.67-3.53,.15Z"></path><path class="cls-26" d="M390.45,382.05l-11.28-6.51c-.91-.52-.79-1.44,.25-2.04l11.18-6.45c1.05-.6,2.63-.67,3.53-.15l11.28,6.51c.91,.52,.79,1.44-.25,2.04l-11.18,6.45c-1.05,.6-2.63,.67-3.53,.15Z"></path><path class="cls-26" d="M373.12,372.05l-11.28-6.51c-.91-.52-.79-1.44,.25-2.04l11.18-6.45c1.05-.6,2.63-.67,3.53-.15l11.28,6.51c.91,.52,.79,1.44-.25,2.04l-11.18,6.45c-1.05,.6-2.63,.67-3.53,.15Z"></path><path class="cls-26" d="M355.79,362.04l-11.28-6.51c-.91-.52-.79-1.44,.25-2.04l11.18-6.45c1.05-.6,2.63-.67,3.53-.15l11.28,6.51c.91,.52,.79,1.44-.25,2.04l-11.18,6.45c-1.05,.6-2.63,.67-3.53,.15Z"></path><path class="cls-26" d="M338.46,352.03l-11.28-6.51c-.91-.52-.79-1.44,.25-2.04l11.18-6.45c1.05-.6,2.63-.67,3.53-.15l11.28,6.51c.91,.52,.79,1.44-.25,2.04l-11.18,6.45c-1.05,.6-2.63,.67-3.53,.15Z"></path><path class="cls-26" d="M356.28,341.75l-11.28-6.51c-.91-.52-.79-1.44,.25-2.04l3.69-2.13c1.05-.6,2.63-.67,3.53-.15l11.28,6.51c.91,.52,.79,1.44-.25,2.04l-3.69,2.13c-1.05,.6-2.63,.67-3.53,.15Z"></path><path class="cls-26" d="M378.9,354.8l-11.28-6.51c-.91-.52-.79-1.44,.25-2.04l3.69-2.13c1.05-.6,2.63-.67,3.53-.15l11.28,6.51c.91,.52,.79,1.44-.25,2.04l-3.69,2.13c-1.05,.6-2.63,.67-3.53,.15Z"></path><path class="cls-26" d="M396.16,364.77l-11.28-6.51c-.91-.52-.79-1.44,.25-2.04l3.69-2.13c1.05-.6,2.63-.67,3.53-.15l11.28,6.51c.91,.52,.79,1.44-.25,2.04l-3.69,2.13c-1.05,.6-2.63,.67-3.53,.15Z"></path><path class="cls-26" d="M413.41,374.73l-11.28-6.51c-.91-.52-.79-1.44,.25-2.04l3.69-2.13c1.05-.6,2.63-.67,3.53-.15l11.28,6.51c.91,.52,.79,1.44-.25,2.04l-3.69,2.13c-1.05,.6-2.63,.67-3.53,.15Z"></path><path class="cls-26" d="M430.67,384.7l-11.28-6.51c-.91-.52-.79-1.44,.25-2.04l3.69-2.13c1.05-.6,2.63-.67,3.53-.15l11.28,6.51c.91,.52,.79,1.44-.25,2.04l-3.69,2.13c-1.05,.6-2.63,.67-3.53,.15Z"></path><path class="cls-26" d="M527.03,440.32l-11.28-6.51c-.91-.52-.79-1.44,.25-2.04l3.69-2.13c1.05-.6,2.63-.67,3.53-.15l11.28,6.51c.91,.52,.79,1.44-.25,2.04l-3.69,2.13c-1.05,.6-2.63,.67-3.53,.15Z"></path><path class="cls-26" d="M544.28,450.29l-11.28-6.51c-.91-.52-.79-1.44,.25-2.04l3.69-2.13c1.05-.6,2.63-.67,3.53-.15l11.28,6.51c.91,.52,.79,1.44-.25,2.04l-3.69,2.13c-1.05,.6-2.63,.67-3.53,.15Z"></path><path class="cls-26" d="M561.54,460.25l-11.28-6.51c-.91-.52-.79-1.44,.25-2.04l3.69-2.13c1.05-.6,2.63-.67,3.53-.15l11.28,6.51c.91,.52,.79,1.44-.25,2.04l-3.69,2.13c-1.05,.6-2.63,.67-3.53,.15Z"></path><path class="cls-26" d="M578.8,470.22l-11.28-6.51c-.91-.52-.79-1.44,.25-2.04l3.69-2.13c1.05-.6,2.63-.67,3.53-.15l11.28,6.51c.91,.52,.79,1.44-.25,2.04l-3.69,2.13c-1.05,.6-2.63,.67-3.53,.15Z"></path><path class="cls-26" d="M407.87,392.11l-11.28-6.51c-.91-.52-.79-1.44,.25-2.04l11.18-6.45c1.05-.6,2.63-.67,3.53-.15l11.28,6.51c.91,.52,.79,1.44-.25,2.04l-11.18,6.45c-1.05,.6-2.63,.67-3.53,.15Z"></path><path class="cls-26" d="M425.29,402.16l-11.28-6.51c-.91-.52-.79-1.44,.25-2.04l11.18-6.45c1.05-.6,2.63-.67,3.53-.15l11.28,6.51c.91,.52,.79,1.44-.25,2.04l-11.18,6.45c-1.05,.6-2.63,.67-3.53,.15Z"></path><path class="cls-26" d="M442.7,412.22l-11.28-6.51c-.91-.52-.79-1.44,.25-2.04l11.18-6.45c1.05-.6,2.63-.67,3.53-.15l11.28,6.51c.91,.52,.79,1.44-.25,2.04l-11.18,6.45c-1.05,.6-2.63,.67-3.53,.15Z"></path><path class="cls-26" d="M460.12,422.28l-11.28-6.51c-.91-.52-.79-1.44,.25-2.04l11.18-6.45c1.05-.6,2.63-.67,3.53-.15l11.28,6.51c.91,.52,.79,1.44-.25,2.04l-11.18,6.45c-1.05,.6-2.63,.67-3.53,.15Z"></path><path class="cls-26" d="M477.54,432.33l-11.28-6.51c-.91-.52-.79-1.44,.25-2.04l11.18-6.45c1.05-.6,2.63-.67,3.53-.15l11.28,6.51c.91,.52,.79,1.44-.25,2.04l-11.18,6.45c-1.05,.6-2.63,.67-3.53,.15Z"></path><path class="cls-26" d="M494.96,442.39l-11.28-6.51c-.91-.52-.79-1.44,.25-2.04l11.18-6.45c1.05-.6,2.63-.67,3.53-.15l11.28,6.51c.91,.52,.79,1.44-.25,2.04l-11.18,6.45c-1.05,.6-2.63,.67-3.53,.15Z"></path><path class="cls-26" d="M512.37,452.44l-11.28-6.51c-.91-.52-.79-1.44,.25-2.04l11.18-6.45c1.05-.6,2.63-.67,3.53-.15l11.28,6.51c.91,.52,.79,1.44-.25,2.04l-11.18,6.45c-1.05,.6-2.63,.67-3.53,.15Z"></path><path class="cls-26" d="M529.79,462.5l-11.28-6.51c-.91-.52-.79-1.44,.25-2.04l11.18-6.45c1.05-.6,2.63-.67,3.53-.15l11.28,6.51c.91,.52,.79,1.44-.25,2.04l-11.18,6.45c-1.05,.6-2.63,.67-3.53,.15Z"></path><path class="cls-26" d="M547.21,472.56l-11.28-6.51c-.91-.52-.79-1.44,.25-2.04l11.18-6.45c1.05-.6,2.63-.67,3.53-.15l11.28,6.51c.91,.52,.79,1.44-.25,2.04l-11.18,6.45c-1.05,.6-2.63,.67-3.53,.15Z"></path><path class="cls-26" d="M308.29,393.35l-33.22-19.18c-.91-.52-.79-1.44,.25-2.04l11.18-6.45c1.05-.6,2.63-.67,3.53-.15l33.22,19.18c.91,.52,.79,1.44-.25,2.04l-11.18,6.45c-1.05,.6-2.63,.67-3.53,.15Z"></path><path class="cls-26" d="M522.27,516.89l-33.22-19.18c-.91-.52-.79-1.44,.25-2.04l11.18-6.45c1.05-.6,2.63-.67,3.53-.15l33.22,19.18c.91,.52,.79,1.44-.25,2.04l-11.18,6.45c-1.05,.6-2.63,.67-3.53,.15Z"></path><path class="cls-26" d="M452.61,498.89l-11.28-6.51c-.91-.52-.79-1.44,.25-2.04l13.31-7.69c1.05-.6,2.63-.67,3.53-.15l11.28,6.51c.91,.52,.79,1.44-.25,2.04l-13.31,7.69c-1.05,.6-2.63,.67-3.53,.15Z"></path><path class="cls-26" d="M326.13,425.86l-18.04-10.41c-.91-.52-.79-1.44,.25-2.04l13.31-7.69c1.05-.6,2.63-.67,3.53-.15l18.04,10.41c.91,.52,.79,1.44-.25,2.04l-13.31,7.69c-1.05,.6-2.63,.67-3.53,.15Z"></path><path class="cls-26" d="M435.83,489.2l-18.04-10.41c-.91-.52-.79-1.44,.25-2.04l13.31-7.69c1.05-.6,2.63-.67,3.53-.15l18.04,10.41c.91,.52,.79,1.44-.25,2.04l-13.31,7.69c-1.05,.6-2.63,.67-3.53,.15Z"></path><path class="cls-26" d="M351.26,440.37l-18.04-10.41c-.91-.52-.79-1.44,.25-2.04l13.31-7.69c1.05-.6,2.63-.67,3.53-.15l18.04,10.41c.91,.52,.79,1.44-.25,2.04l-13.31,7.69c-1.05,.6-2.63,.67-3.53,.15Z"></path><path class="cls-26" d="M350.44,420.15l78.42,45.28c.97,.56,.97,1.47,0,2.03l-13.58,7.84c-.97,.56-2.55,.56-3.52,0l-78.42-45.28,17.1-9.87Z"></path><path class="cls-26" d="M501.29,517.12l12.56,7.25c.74,.43,.65,1.18-.21,1.67l-5.45,3.14c-.86,.49-2.15,.55-2.9,.12l-12.56-7.25c-.74-.43-.65-1.18,.21-1.67l5.45-3.14c.86-.49,2.15-.55,2.9-.12Z"></path><path class="cls-26" d="M483.73,506.98l12.56,7.25c.74,.43,.65,1.18-.21,1.67l-5.45,3.14c-.86,.49-2.15,.55-2.9,.12l-12.56-7.25c-.74-.43-.65-1.18,.21-1.67l5.45-3.14c.86-.49,2.15-.55,2.9-.12Z"></path><path class="cls-26" d="M466.31,496.92l12.56,7.25c.74,.43,.65,1.18-.21,1.67l-5.45,3.14c-.86,.49-2.15,.55-2.9,.12l-12.56-7.25c-.74-.43-.65-1.18,.21-1.67l5.45-3.14c.86-.49,2.15-.55,2.9-.12Z"></path><path class="cls-26" d="M493.35,501.43l12.56,7.25c.74,.43,.65,1.18-.21,1.67l-5.45,3.14c-.86,.49-2.15,.55-2.9,.12l-12.56-7.25c-.74-.43-.65-1.18,.21-1.67l5.45-3.14c.86-.49,2.15-.55,2.9-.12Z"></path></g><g><polygon class="cls-24" points="458.34 197.83 430.01 181.47 431.22 175.37 459.55 191.73 458.34 197.83"></polygon><polygon class="cls-1" points="455.27 212 426.94 195.65 428.14 189.55 456.47 205.9 455.27 212"></polygon><polygon class="cls-24" points="594.31 408.61 565.98 392.25 567.18 386.15 595.51 402.51 594.31 408.61"></polygon><polygon class="cls-24" points="449.12 240.35 420.79 224 422 217.9 450.33 234.25 449.12 240.35"></polygon></g><polygon class="cls-24" points="569.84 320.08 465.05 259.57 466.4 252.76 571.19 313.26 569.84 320.08"></polygon><polygon class="cls-24" points="532.31 331.57 459.16 289.34 460.51 282.52 533.66 324.76 532.31 331.57"></polygon><polygon class="cls-1" points="525.39 310.99 462.1 274.45 463.45 267.64 526.74 304.18 525.39 310.99"></polygon><g><path class="cls-21" d="M511.96,252.54c-1.01,2.2-3.56,2.98-5.69,1.75s-3.05-4.01-2.04-6.21c1.01-2.2,3.56-2.98,5.69-1.75s3.05,4.01,2.04,6.21Z"></path><path class="cls-1" d="M525.59,260.4c-1.01,2.2-3.56,2.98-5.69,1.75-2.13-1.23-3.05-4.01-2.04-6.21,1.01-2.2,3.56-2.98,5.69-1.75,2.13,1.23,3.05,4.01,2.04,6.21Z"></path><path class="cls-24" d="M539.21,268.27c-1.01,2.2-3.56,2.98-5.69,1.75s-3.05-4.01-2.04-6.21c1.01-2.2,3.56-2.98,5.69-1.75s3.05,4.01,2.04,6.21Z"></path><path class="cls-21" d="M552.84,276.14c-1.01,2.2-3.56,2.98-5.69,1.75-2.13-1.23-3.05-4.01-2.04-6.21,1.01-2.2,3.56-2.98,5.69-1.75s3.05,4.01,2.04,6.21Z"></path></g><polygon class="cls-21" points="566.9 334.96 535.26 316.69 536.6 309.88 568.25 328.15 566.9 334.96"></polygon></g></g><path class="cls-1" d="M350.62,519.89l-82.57-47.67c-2.02-1.17-1.77-3.2,.57-4.55l43.54-25.14c2.33-1.35,5.86-1.49,7.87-.33l82.57,47.67c2.02,1.17,1.77,3.2-.57,4.55l-43.54,25.14c-2.33,1.35-5.86,1.49-7.87,.33Z"></path><g><polygon class="cls-6" points="415.25 564.9 191.59 435.92 256.77 398.29 480.44 527.27 415.25 564.9"></polygon><path class="cls-1" d="M415.25,535.22c-.59,0-1.19-.15-1.72-.46l-223.66-128.98c-1.07-.62-1.72-1.75-1.72-2.99s.66-2.37,1.72-2.98l65.18-37.63c1.06-.62,2.38-.62,3.44,0l223.67,128.98c1.07,.62,1.72,1.75,1.72,2.99s-.66,2.37-1.72,2.98l-65.18,37.63c-.53,.31-1.13,.46-1.72,.46Zm-216.77-132.43l216.77,125.01,58.29-33.65-216.77-125.01-58.29,33.65Z"></path><g><g><g><path class="cls-14" d="M295.93,429.26c-1.53,0-2.76-1.24-2.76-2.76v-87.31c0-1.53,1.24-2.76,2.76-2.76s2.76,1.24,2.76,2.76v87.31c0,1.53-1.24,2.76-2.76,2.76Z"></path><g><path class="cls-9" d="M282.27,329.29v58.98h0c0,2.02,1.33,4.04,4,5.58,5.34,3.08,13.99,3.08,19.33,0,2.67-1.54,4-3.56,4-5.58v-58.98h-27.33Z"></path><g><path class="cls-14" d="M282.27,338.99v19.96c8.02,3.66,19.31,3.66,27.33,0v-19.96c-8.02-3.66-19.31-3.66-27.33,0Z"></path><path class="cls-20" d="M318.08,247.08h-44.29v92.51h0c0,3.27,2.16,6.54,6.49,9.04,8.65,4.99,22.67,4.99,31.32,0,4.32-2.5,6.49-5.77,6.49-9.04h0v-92.51Z"></path></g></g></g><path class="cls-24" d="M292.1,379.31c0,2.71-1.9,3.81-4.25,2.46-2.35-1.36-4.25-4.66-4.25-7.37s1.9-3.81,4.25-2.46c2.35,1.36,4.25,4.66,4.25,7.37Z"></path></g><g><g><path class="cls-14" d="M381.82,478.9c-1.53,0-2.76-1.24-2.76-2.76v-87.31c0-1.53,1.24-2.76,2.76-2.76s2.76,1.24,2.76,2.76v87.31c0,1.53-1.24,2.76-2.76,2.76Z"></path><g><path class="cls-8" d="M368.15,378.93v58.98h0c0,2.02,1.33,4.04,4,5.58,5.34,3.08,13.99,3.08,19.33,0,2.67-1.54,4-3.56,4-5.58v-58.98h-27.33Z"></path><g><path class="cls-14" d="M368.15,388.64v19.96c8.02,3.66,19.31,3.67,27.33,0v-19.96c-8.02-3.66-19.31-3.66-27.33,0Z"></path><path class="cls-22" d="M403.96,296.73h-44.29v92.51h0c0,3.27,2.16,6.54,6.49,9.04,8.65,4.99,22.67,4.99,31.32,0,4.32-2.5,6.49-5.77,6.49-9.04h0v-92.51Z"></path></g></g></g><path class="cls-24" d="M377.98,428.95c0,2.71-1.9,3.81-4.25,2.46-2.35-1.36-4.25-4.66-4.25-7.37s1.9-3.81,4.25-2.46c2.35,1.36,4.25,4.66,4.25,7.37Z"></path></g><g><g><path class="cls-26" d="M211.05,180.12l58.79-33.83s-2.21,33.76-2.21,33.83-33.78,10.46-33.78,10.46l-22.81-10.46Z"></path><path class="cls-18" d="M526,374.81c0-23.74-16.67-52.61-37.23-64.48-4.48-2.58-8.75-4.09-12.72-4.71-5.93-31.15-27.61-64.24-53.45-79.16-7.77-4.49-15.17-6.89-21.87-7.4-3.53-37.76-29.78-80.67-61.67-99.08-16.65-9.62-31.77-10.75-42.92-4.86v-.03s-.54,.31-.54,.31c-.29,.16-.57,.32-.85,.49l-34.67,20.48,11.52,9.1c-10.34,4.52-16.88,16.12-16.88,33.26,0,31.61,22.2,70.06,49.58,85.87l169.02,120.69,5.21,35.17,36.52-21.51s.07-.04,.1-.06l.22-.13h0c6.57-3.96,10.63-12.23,10.63-23.93Z"></path><path class="cls-26" d="M256.44,164.79l79.57-46.49c-15.45-8.06-29.4-8.72-39.87-3.19v-.03s-.54,.31-.54,.31c-.29,.16-.57,.32-.85,.49l-34.67,20.48,11.52,9.1c-7.23,3.16-12.59,9.79-15.17,19.34Z"></path><path class="cls-26" d="M403.39,301.56l58.06-34.07c-9.96-17.22-23.67-32.27-38.85-41.03-2.01-1.16-3.99-2.17-5.95-3.06l-73.85,43.19,60.58,34.98Z"></path><path class="cls-24" d="M276.44,140.16l25.87,14.94,47.38-27.91c-3.46-2.69-7.01-5.12-10.65-7.21-5.74-3.31-11.29-5.6-16.56-6.96l-46.05,27.14Z"></path><path class="cls-24" d="M455.04,257.47l-46.34,27.3,16.12,17.98,42.07-24.84c-3.33-7.12-7.32-14.01-11.84-20.44Z"></path><path class="cls-19" d="M452.37,331.77c-4.48-2.58-8.75-4.09-12.72-4.71-5.93-31.15-27.61-64.24-53.45-79.16-7.77-4.49-15.17-6.89-21.87-7.4-3.53-37.76-29.78-80.67-61.67-99.08-34.29-19.8-62.08-3.75-62.08,35.84,0,1.34,.04,2.7,.1,4.06-25.07-11.63-44.66,1.47-44.66,31.17,0,31.61,22.2,70.06,49.58,85.87l206.79,119.39c20.56,11.87,37.23,2.25,37.23-21.49s-16.67-52.61-37.23-64.48Z"></path><g><path class="cls-1" d="M240.67,181.31c-.06-1.36-.1-2.72-.1-4.06,0-.06,0-.11,0-.17-13.85-5.39-25.76-3.04-33.23,5.6,8.11-6.68,19.92-7.59,33.32-1.38Z"></path><path class="cls-1" d="M455.4,328.82c-4.48-2.58-8.75-4.09-12.72-4.71-5.93-31.15-27.61-64.24-53.45-79.16-7.77-4.49-15.17-6.89-21.87-7.4-3.53-37.76-29.78-80.67-61.67-99.08-21.36-12.33-40.2-10.75-51.37,1.77,11.38-9.73,28.8-10.1,48.34,1.18,31.88,18.41,58.14,61.32,61.67,99.08,6.71,.52,14.1,2.91,21.87,7.4,25.85,14.92,47.53,48.01,53.45,79.16,3.97,.62,8.25,2.13,12.72,4.71,20.56,11.87,37.23,40.74,37.23,64.48,0,8.57-2.2,15.26-5.94,19.8,5.58-4.3,8.96-12.08,8.96-22.75,0-23.74-16.67-52.61-37.23-64.48Z"></path></g><path class="cls-21" d="M236.3,190.74l15.54,7.21-.79-17.12c-.06-1.2-.09-2.4-.09-3.58,0-15.28,4.61-26.35,12.99-31.19,8.37-4.83,20.28-3.29,33.51,4.35,28.46,16.43,53.28,56.42,56.52,91.05l.82,8.72,8.74,.67c5.37,.41,11.25,2.44,17.47,6.04,22.6,13.05,42.97,43.37,48.44,72.1l1.37,7.19,7.23,1.13c2.88,.45,5.95,1.61,9.13,3.45,17.36,10.03,32.03,35.43,32.03,55.48,0,7.5-2.08,13.01-5.71,15.1-3.62,2.09-9.43,1.14-15.93-2.61l-206.79-119.39c-24.06-13.89-44.38-49.09-44.38-76.87,0-10.9,3.21-19.2,8.82-22.78,2.31-1.47,5.1-2.2,8.24-2.2,3.83,0,8.18,1.08,12.84,3.24Z"></path></g><g><polygon class="cls-26" points="339.51 320.34 344.96 317.6 339.59 313.54 339.51 320.34"></polygon><polygon class="cls-26" points="323.12 246.65 328.42 243.98 328.52 246.75 323.12 246.65"></polygon><polygon class="cls-26" points="355.07 303.12 360.59 300.34 349.96 290.22 355.07 303.12"></polygon><g><path class="cls-26" d="M343.37,317.43l-25.83-15.21c-1.31-.77-2.37-2.72-2.37-4.34l.08-29.9,30.57,18.01-.08,29.9c0,1.63-1.07,2.32-2.38,1.55Z"></path><path class="cls-26" d="M328.36,244.01l-27.89,17.95c-1.18,.76-.23,3.6,1.57,4.66l28.49,16.78,28.49,16.78c1.8,1.06,2.77-.65,1.59-2.8l-27.7-50.69c-1.2-2.19-3.34-3.45-4.55-2.68Z"></path></g><g><path class="cls-1" d="M337.83,320.22l-25.83-15.21c-1.31-.77-2.37-2.72-2.37-4.34l.08-29.9,30.57,18.01-.08,29.9c0,1.63-1.07,2.32-2.38,1.55Z"></path><path class="cls-1" d="M322.82,246.8l-27.89,17.95c-1.18,.76-.23,3.6,1.57,4.66l28.49,16.78,28.49,16.78c1.8,1.06,2.77-.65,1.59-2.8l-27.7-50.69c-1.2-2.19-3.34-3.45-4.55-2.68Z"></path></g></g></g></g></g></svg>