<svg xmlns="http://www.w3.org/2000/svg" xmlns:xlink="http://www.w3.org/1999/xlink" version="1.1" id="Layer_1" x="0px" y="0px" viewBox="50 -50 200 200" style="enable-background:new 50 -50 200 200;" xml:space="preserve"> <style type="text/css"> .st0{fill:#F4F4F4;} .st1{fill:#EF9500;} .st2{fill:#2158A8;} </style> <circle class="st0" cx="150" cy="50" r="96.2"></circle> <g> <path class="st1" d="M159.2,85.7c17.4,0,31.5-14.1,31.5-31.5s-14.1-31.5-31.5-31.5s-31.5,14.1-31.5,31.5S141.8,85.7,159.2,85.7z M135.7,52.5h-4.6c0.4-6.5,3-12.4,7-17l3.3,3.3c0.3,0.3,0.8,0.5,1.2,0.5s0.9-0.2,1.2-0.5c0.7-0.7,0.7-1.7,0-2.4l-3.3-3.3 c4.6-4.1,10.5-6.7,17-7v4.6c0,0.9,0.8,1.7,1.7,1.7s1.7-0.8,1.7-1.7v-4.6c6.5,0.4,12.4,3,17,7l-3.3,3.3c-0.7,0.7-0.7,1.7,0,2.4 c0.3,0.3,0.8,0.5,1.2,0.5c0.4,0,0.9-0.2,1.2-0.5l3.3-3.3c4.1,4.6,6.7,10.5,7,17h-4.6c-0.9,0-1.7,0.8-1.7,1.7c0,0.9,0.8,1.7,1.7,1.7 h4.6c-0.4,6.5-3,12.4-7,17l-3.3-3.3c-0.7-0.7-1.7-0.7-2.4,0c-0.7,0.7-0.7,1.7,0,2.4l3.3,3.3c-4.6,4.1-10.5,6.7-17,7v-4.6 c0-0.9-0.8-1.7-1.7-1.7s-1.7,0.8-1.7,1.7v4.6c-6.5-0.4-12.4-3-17-7l3.3-3.3c0.7-0.7,0.7-1.7,0-2.4c-0.7-0.7-1.7-0.7-2.4,0l-3.3,3.3 c-4.1-4.6-6.7-10.5-7-17h4.6c0.9,0,1.7-0.8,1.7-1.7C137.4,53.2,136.7,52.5,135.7,52.5L135.7,52.5z"></path> <path class="st2" d="M179.7,86.7c-6.1,3.9-13.2,5.9-20.5,5.9c-21.2,0-38.4-17.2-38.4-38.4c0-8.6,2.8-16.7,8-23.4 c0.6-0.7,0.4-1.8-0.3-2.4c-0.7-0.6-1.8-0.4-2.4,0.3c-5.7,7.4-8.7,16.2-8.7,25.5c0,23,18.7,41.8,41.8,41.8c7.9,0,15.6-2.2,22.3-6.4 c0.8-0.5,1-1.5,0.5-2.3C181.5,86.4,180.5,86.2,179.7,86.7L179.7,86.7z"></path> <path class="st2" d="M169.4,13.6V7.2c0-1.7-1.4-3.2-3.2-3.2h-14c-1.7,0-3.2,1.4-3.2,3.2v6.4c-6.7,1.7-12.9,5-18.1,9.8 c-0.7,0.6-0.7,1.7-0.1,2.4c0.6,0.7,1.7,0.7,2.4,0.1c7.1-6.5,16.3-10.2,26-10.2c21.2,0,38.4,17.2,38.4,38.4 c0,10.9-4.6,21.3-12.7,28.6c-0.7,0.6-0.8,1.7-0.1,2.4c0.3,0.4,0.8,0.6,1.3,0.6c0.4,0,0.8-0.1,1.1-0.4C196,77.3,201,66,201,54.2 C201,34.6,187.5,18.2,169.4,13.6L169.4,13.6z M152.4,12.9V7.4H166v5.5c-2.2-0.4-4.5-0.6-6.8-0.6C156.9,12.4,154.6,12.6,152.4,12.9z "></path> <path class="st1" d="M159.2,55.3c0.6,0,1.2-0.4,1.5-0.9l5.8-5.8c0.7-0.7,0.7-1.7,0-2.4c-0.7-0.7-1.7-0.7-2.4,0l-3.2,3.2v-8.2 c0-0.9-0.8-1.7-1.7-1.7c-0.9,0-1.7,0.8-1.7,1.7v12.4C157.5,54.6,158.3,55.3,159.2,55.3L159.2,55.3z"></path> <path class="st2" d="M111.3,54.5c0-0.9-0.8-1.7-1.7-1.7H88.1c-0.9,0-1.7,0.8-1.7,1.7s0.8,1.7,1.7,1.7h21.5 C110.5,56.2,111.3,55.5,111.3,54.5z"></path> <path class="st2" d="M94.8,46.4h17.1c0.9,0,1.7-0.8,1.7-1.7c0-0.9-0.8-1.7-1.7-1.7H94.8c-0.9,0-1.7,0.8-1.7,1.7 C93.1,45.6,93.9,46.4,94.8,46.4z"></path> <path class="st2" d="M114.1,33.2h-14c-0.9,0-1.7,0.8-1.7,1.7c0,0.9,0.8,1.7,1.7,1.7h14c0.9,0,1.7-0.8,1.7-1.7 C115.8,33.9,115,33.2,114.1,33.2z"></path> <path class="st2" d="M113.5,63.6c0-0.9-0.8-1.7-1.7-1.7H94.8c-0.9,0-1.7,0.8-1.7,1.7c0,0.9,0.8,1.7,1.7,1.7h17.1 C112.8,65.3,113.5,64.5,113.5,63.6z"></path> <path class="st2" d="M114.1,71.8h-14c-0.9,0-1.7,0.8-1.7,1.7c0,0.9,0.8,1.7,1.7,1.7h14c0.9,0,1.7-0.8,1.7-1.7 C115.8,72.5,115,71.8,114.1,71.8z"></path> </g> </svg>