<svg id="Layer_1" data-name="Layer 1" xmlns="http://www.w3.org/2000/svg" viewBox="0 0 276.06 297.6"><defs><style>.cls-1{fill:#0959a4;}.cls-2{fill:#f59227;}</style></defs><path class="cls-1" d="M58,74.4C61.63,30.8,97.23,0,137.93,0c41,0,76.4,31.2,79.9,74.4h15.5A42.69,42.69,0,0,1,276,119a41.6,41.6,0,0,1-28.7,37.8c-2.6.9-3.2,2-3.2,4.6q.15,64.2.1,128.5c0,6.4-1.3,7.7-7.8,7.7H39.53c-6.5,0-7.8-1.3-7.8-7.7q0-64.2.1-128.5c0-2.6-.6-3.7-3.2-4.6-20.1-6.9-31.5-26.3-28-47.4,3.2-19.7,21.2-34.8,41.7-35Zm175.3,212.4V170.3H42.43V286.8ZM31.63,146.7V124.1c0-5.7,1.5-7.2,7.3-7.2h197.9c6,0,7.4,1.4,7.4,7.5v22a12.38,12.38,0,0,0,1.9-.5c12.3-4.9,20.6-18.6,19.2-31.9-1.4-14-12.1-26.5-25.5-28.2-8.7-1.1-17.7-.6-26.5-.8-4.5-.1-6.1-1.7-6.4-6.2a91.15,91.15,0,0,0-1.6-13.8c-7.4-33.9-39-57.4-72.9-54.2-36.1,3.4-62.8,31.8-63.6,67.6-.1,5.1-1.7,6.6-6.9,6.6-6.9,0-13.7-.1-20.6.1-19.8.5-34.5,19.1-30.2,38.4C13.63,134.5,20.53,142.1,31.63,146.7Zm201.8-18.9H127.53v31.5h105.9Zm-117,31.5V127.8h-74v31.5Z"/><path class="cls-2" d="M187.73,228.5a21.21,21.21,0,0,1-7.4-17.5c.1-2.9.1-5.8,0-8.6-.1-3.6-1.6-5.2-5.1-5.7-4-.6-5.9-2.6-5.5-6s2.8-4.9,6.8-4.6a15.69,15.69,0,0,1,14.4,15.2c.1,3.6,0,7.3.1,11,.1,6.1,4.1,10.4,10.2,11q5.85.6,5.7,5.4c-.1,3.1-1.9,4.8-5.6,5.2-6.3.6-10.2,4.9-10.3,11.2,0,3.7.1,7.3-.1,11a15.63,15.63,0,0,1-15.2,15c-3.5,0-5.7-1.7-5.9-4.9s1.6-5.2,5.1-5.7c4.2-.6,5.5-2,5.5-6.3,0-2.1.1-4.2,0-6.3C180,240.4,181.73,233.7,187.73,228.5Z"/><path class="cls-2" d="M88.13,228.6c6,5.2,7.7,11.8,7.3,19.2-.1,1.4,0,2.9,0,4.3,0,6.7.1,6.8,6.6,8.4,2.9.7,4.2,2.7,4,5.7s-2.2,4.7-5.3,4.8c-8.2.4-15.5-6.5-15.9-15.1-.2-3.6,0-7.3-.1-10.9-.1-6.4-4-10.6-10.3-11.2-3.7-.4-5.5-2.1-5.6-5.2s1.8-5,5.4-5.4c6.6-.7,10.4-4.8,10.5-11.4,0-3.5-.1-7.1,0-10.6a15.56,15.56,0,0,1,15-15.2c3.6-.1,5.8,1.6,6.1,4.6.4,3.3-1.5,5.4-5.2,6-4,.6-5.3,2.1-5.4,6.1v8C95.43,218.8,93.93,222.5,88.13,228.6Z"/><path class="cls-2" d="M137.93,244.4h20.2c4.2,0,6.4,2,6.3,5.5s-2.2,5.1-6.3,5.2h-40.4c-4.2,0-6.4-1.9-6.3-5.5.1-3.4,2.2-5.1,6.3-5.2Z"/><path class="cls-2" d="M124.33,212.6c-2.5,0-5.1.1-7.6,0-3.4-.1-5.4-2.2-5.3-5.4a4.88,4.88,0,0,1,5.3-5.1q8-.15,15.9,0c3.4.1,5.4,2.2,5.3,5.4-.1,3-2,5-5.3,5.1Z"/><path class="cls-2" d="M151.23,223.2c2.6,0,5.3-.1,7.9,0,3.3.1,5.2,2.1,5.3,5.1a4.91,4.91,0,0,1-5.3,5.4q-7.95.15-15.9,0c-3.4-.1-5.4-2.3-5.3-5.4s2-5,5.3-5.1C145.93,223.1,148.53,223.2,151.23,223.2Z"/><path class="cls-2" d="M156.63,202a22.53,22.53,0,0,1,2.6,0c3.3.2,5.2,2.2,5.2,5.2s-1.9,5.1-5.1,5.3a41.69,41.69,0,0,1-5,0c-3.8-.1-5.8-2-5.9-5.2s2-5.2,5.7-5.4a20.08,20.08,0,0,1,2.5.1Z"/><path class="cls-2" d="M119.43,223.2a22.53,22.53,0,0,1,2.6,0c3.3.2,5.2,2.2,5.2,5.2s-1.9,5.1-5.1,5.3a41.69,41.69,0,0,1-5,0c-3.8-.1-5.8-2-5.9-5.2s2-5.2,5.7-5.4a21.75,21.75,0,0,0,2.5.1Z"/><path class="cls-1" d="M180,148.8h-36.2c-4.4,0-6.9-3-5.8-6.8.9-3.1,3.2-3.8,6.2-3.8h72.7c3.8,0,5.9,1.9,6,5.2s-2.1,5.4-6,5.4Z"/><path class="cls-2" d="M58.43,148.8a5.34,5.34,0,0,1-5.5-5.4,5.07,5.07,0,0,1,5.3-5.2,5,5,0,0,1,5.3,5.1A5.22,5.22,0,0,1,58.43,148.8Z"/><path class="cls-2" d="M84.73,143.3a4.94,4.94,0,0,1-5,5.4,5.34,5.34,0,0,1-5.5-5.4,5.07,5.07,0,0,1,5.3-5.2A5.16,5.16,0,0,1,84.73,143.3Z"/><path class="cls-2" d="M100.53,138.2a5.31,5.31,0,0,1,.6,10.6,5.35,5.35,0,0,1-5.7-5.2A5,5,0,0,1,100.53,138.2Z"/></svg>