<svg id="Layer_1" data-name="Layer 1" xmlns="http://www.w3.org/2000/svg" viewBox="0 0 360.1 360.1"><defs><style>.cls-1{fill:#0959a4;}.cls-2{fill:#f59227;}</style></defs><path class="cls-1" d="M359.3,315.3c-2.6-6-6.7-10.3-13.7-11.4-2.5-.4-5.1-.1-8.1-.1V102.5c0-12.5-7.5-21.7-19.2-23.5a55.39,55.39,0,0,0-9.1-.3c-10.7,0-21.3-.2-32,.1-4.9.2-7.8-3.5-11.7-4.9-.5-.2-.8-1.6-.9-2.5-3-15.6-15.1-26.4-31.1-27.7-1.8-.2-2.8-.5-3.5-2.4C220.8,17.4,203.5,3.7,178,.5a14.62,14.62,0,0,1-2-.5h-8c-4.4.9-9,1.4-13.3,2.8-23.9,7.8-38.4,24.1-43,49-.5,2.8-1.2,4.2-4.4,4.9A42.54,42.54,0,0,0,78.6,76.4a4.87,4.87,0,0,1-4.8,2.5c-9-.1-18-.1-27.1,0-14.8,0-24.2,9.4-24.2,24.1V303.9C11.6,302.7,3.7,306.5,0,317.2v19c2,7.6,5.3,14.6,12.2,18.8,3.6,2.2,7.8,3.4,11.7,5.1H336.1a67.06,67.06,0,0,0,7.5-2.7c8.3-3.8,13.3-10.3,15.7-19a20.94,20.94,0,0,1,.8-2.3v-19A14.17,14.17,0,0,1,359.3,315.3ZM114.6,66.9c5.9-.3,7.4-1.8,7.6-7.7,1-25.1,19.8-44.9,45.5-47.8,23.3-2.6,46.1,13.4,52.5,36.7,1.9,7,2.6,7.5,10,6.9,12.2-1,23,8.8,23.5,21.5.2,5.2.8,6,5.9,7.7,12.8,4.3,19.5,15.4,17.4,29.2-1.9,12.8-12.1,21.6-25.4,21.7-22.6.1-45.2,0-67.8,0-22.4,0-44.8.1-67.1,0-17.5-.1-31.4-12.3-33.9-29.6A33.91,33.91,0,0,1,114.6,66.9Zm4.3,79.3h27.3v.8h11.3v-.6h16.9v.6h11.3v-.6h16.8v.6H214v-.8h36.4c19.7-.1,34.5-12.6,38-32.2a12.13,12.13,0,0,1,.5-1.4h14.6V281H56.4V112.5c5,0,10-.1,14.9.1.7,0,1.6,1.2,1.9,2C81.1,135.3,96.8,146.2,118.9,146.2ZM33.7,103.6C33.7,94,37.8,90,47.5,90H72.2c-.5,3.8-.9,7.3-1.4,11.3H52.3c-5.5,0-7.3,1.9-7.3,7.4V285.1c0,5.5,1.9,7.4,7.4,7.4H307.6c5.5,0,7.4-1.9,7.4-7.4V108.7c0-5.5-1.9-7.4-7.4-7.4s-11-.1-16.5,0c-2.1,0-3.3-.3-3.9-2.8-.6-2.8-2-5.4-3.2-8.5,10.8,0,21.1-.1,31.4,0,6,.1,10.5,4.8,10.9,10.8V303.5H33.7ZM348.8,331c-.1,10.7-7.2,17.7-18,17.7H30.3c-12.4,0-19.1-6.7-19.1-19.1v-7c0-5.8,1.8-7.6,7.5-7.6H98.5c6.6,0,13.1-.1,19.7.1a4.25,4.25,0,0,1,1.1.2h15.5a.31.31,0,0,0-.1-.2h90.5a.31.31,0,0,1-.1.2h15.4a5.16,5.16,0,0,1,1.1-.2q50.1-.15,100.2-.1a11.43,11.43,0,0,1,2.8.3c2.8.7,4,2.8,4.1,6.5C348.8,324.9,348.8,328,348.8,331Z"/><path class="cls-2" d="M240.6,315.3a6.62,6.62,0,0,0-2.7,1.9c-2.6,3.5-4.9,7.1-7.3,10.8a8,8,0,0,1-7.6,3.9c-20.7-.1-41.5,0-62.2,0-8.1,0-16.2-.1-24.2-.1a7.89,7.89,0,0,1-7.5-4.1,92.09,92.09,0,0,0-7.1-10.5,6.62,6.62,0,0,0-2.7-1.9h15.5c1.6,4.1,4,5.5,8.3,5.4,24.8-.2,49.6-.3,74.4,0,4.4,0,6.1-2,7.7-5.4Z"/><path class="cls-2" d="M286.8,246.5a15.66,15.66,0,0,0-8.4-13.4c-2.4-1.3-2.9-2.7-2.9-5.2.2-8,.1-15.9,0-23.9,0-5.2-2-7.1-7.3-7.1H214V147.1H202.5V200c0,6.5,1.6,8.2,8,8.2h53.9c0,7.7.1,15.1-.1,22.5,0,.7-1.5,1.6-2.4,2.1a16.94,16.94,0,0,0,11.5,31.4A17,17,0,0,0,286.8,246.5Zm-16.7,6.6a5.59,5.59,0,0,1-5.7-5.5,5.53,5.53,0,0,1,5.5-5.7,5.59,5.59,0,0,1,5.7,5.5A5.65,5.65,0,0,1,270.1,253.1Z"/><path class="cls-2" d="M188.4,232.9c-1.5-.9-2.8-1.4-2.8-3.8.1-27,.1-53.9.1-80.9a6.15,6.15,0,0,1,.1-1.3H174.5v81.2c0,2.2-.5,3.5-2.6,4.6a16.49,16.49,0,0,0-8.1,18.8,16.76,16.76,0,1,0,24.6-18.6ZM180,253.1a5.66,5.66,0,0,1-5.6-5.6,5.59,5.59,0,0,1,5.6-5.6,5.6,5.6,0,0,1,0,11.2Z"/><path class="cls-2" d="M146.2,147.1v49.8H91.8c-5.5,0-7.4,1.8-7.4,7.4,0,8.1-.1,16.2,0,24.3,0,2.1-.4,3.3-2.5,4.3a16.41,16.41,0,0,0-8.3,18.7,16.81,16.81,0,0,0,32.6.2A16.25,16.25,0,0,0,98.1,233a4.25,4.25,0,0,1-2.6-4.6c.1-6.3.1-12.7.1-19,0-.2.1-.5.2-1.2h53.9c6,0,7.8-1.7,7.8-7.7V147.1ZM95.6,247.6a5.79,5.79,0,0,1-5.7,5.5,5.64,5.64,0,0,1-5.4-5.7,5.72,5.72,0,0,1,5.7-5.5A5.64,5.64,0,0,1,95.6,247.6Z"/></svg>