<svg id="Layer_1" data-name="Layer 1" xmlns="http://www.w3.org/2000/svg" viewBox="0 0 114.6 92"><defs><style>.cls-1{fill:#ef9500;}.cls-2{fill:#2158a8;}</style></defs><path class="cls-1" d="M72.8,81.7A31.5,31.5,0,1,0,41.3,50.2,31.5,31.5,0,0,0,72.8,81.7ZM49.3,48.5H44.7a28.56,28.56,0,0,1,7-17L55,34.8a1.69,1.69,0,0,0,2.4,0,1.63,1.63,0,0,0,0-2.4l-3.3-3.3a27.38,27.38,0,0,1,17-7v4.6a1.7,1.7,0,0,0,3.4,0V22.1a28.56,28.56,0,0,1,17,7l-3.3,3.3a1.63,1.63,0,0,0,0,2.4,1.69,1.69,0,0,0,2.4,0l3.3-3.3a27.38,27.38,0,0,1,7,17H96.3a1.7,1.7,0,0,0,0,3.4h4.6a28.56,28.56,0,0,1-7,17l-3.3-3.3A1.7,1.7,0,0,0,88.2,68l3.3,3.3a27.38,27.38,0,0,1-17,7V73.7a1.7,1.7,0,0,0-3.4,0v4.6a28.56,28.56,0,0,1-17-7L57.4,68A1.7,1.7,0,1,0,55,65.6l-3.3,3.3a27.38,27.38,0,0,1-7-17h4.6A1.75,1.75,0,0,0,51,50.2a1.63,1.63,0,0,0-1.7-1.7Z"/><path class="cls-2" d="M93.3,82.7a37.94,37.94,0,0,1-20.5,5.9A38.41,38.41,0,0,1,34.4,50.2a37.87,37.87,0,0,1,8-23.4,1.71,1.71,0,0,0-2.7-2.1A41.4,41.4,0,0,0,31,50.2,41.86,41.86,0,0,0,95.1,85.6a1.63,1.63,0,0,0,.5-2.3,1.58,1.58,0,0,0-2.3-.6Z"/><path class="cls-2" d="M83,9.6V3.2A3.22,3.22,0,0,0,79.8,0h-14a3.22,3.22,0,0,0-3.2,3.2V9.6a41.69,41.69,0,0,0-18.1,9.8,1.7,1.7,0,0,0,2.3,2.5A38.4,38.4,0,1,1,98.5,78.7a1.63,1.63,0,0,0-.1,2.4,1.61,1.61,0,0,0,1.3.6,1.5,1.5,0,0,0,1.1-.4A41.9,41.9,0,0,0,83,9.6ZM66,8.9V3.4H79.6V8.9a38.22,38.22,0,0,0-6.8-.6C70.5,8.4,68.2,8.6,66,8.9Z"/><path class="cls-1" d="M72.8,51.3a1.86,1.86,0,0,0,1.5-.9l5.8-5.8a1.7,1.7,0,1,0-2.4-2.4l-3.2,3.2V37.2a1.7,1.7,0,0,0-3.4,0V49.6a1.69,1.69,0,0,0,1.7,1.7Z"/><path class="cls-2" d="M24.9,50.5a1.75,1.75,0,0,0-1.7-1.7H1.7a1.7,1.7,0,0,0,0,3.4H23.2A1.69,1.69,0,0,0,24.9,50.5Z"/><path class="cls-2" d="M8.4,42.4H25.5a1.7,1.7,0,0,0,0-3.4H8.4a1.7,1.7,0,0,0,0,3.4Z"/><path class="cls-2" d="M27.7,29.2h-14a1.7,1.7,0,1,0,0,3.4h14a1.75,1.75,0,0,0,1.7-1.7A1.69,1.69,0,0,0,27.7,29.2Z"/><path class="cls-2" d="M27.1,59.6a1.75,1.75,0,0,0-1.7-1.7H8.4a1.7,1.7,0,0,0,0,3.4H25.5A1.67,1.67,0,0,0,27.1,59.6Z"/><path class="cls-2" d="M27.7,67.8h-14a1.7,1.7,0,1,0,0,3.4h14a1.75,1.75,0,0,0,1.7-1.7A1.69,1.69,0,0,0,27.7,67.8Z"/></svg>