<svg id="Layer_1" data-name="Layer 1" xmlns="http://www.w3.org/2000/svg" viewBox="0 0 82.3 81.6"><defs><style>.cls-1{fill:#2158a8;}.cls-2{fill:#f59227;}</style></defs><path class="cls-1" d="M82.3,30.1v2.4a23.35,23.35,0,0,1-.7,2.5,12.32,12.32,0,0,1-11.9,8.4h-27v6.9H71.4v8.2H82.3V69.4H57.7V58.5H68.5V53.2H42.6v5.4H53.4V69.4H28.9V58.6H39.7V53.2H12.5v5.4H24.7V69.5H.1V58.6H9.7V50.4H39.6V43.6H12.7C7.1,43.6,3.1,41,.9,35.8c-.4-1-.6-2.1-.9-3.1V30c0-.1.1-.3.1-.4a12,12,0,0,1,7.4-9.5,1.82,1.82,0,0,0,1.1-1.3A12.28,12.28,0,0,1,22.3,9.7c1.1.2,2.2.5,3.3.8C28.6,3.9,33.6,0,41,0S53.4,3.9,56.4,10.6a1.45,1.45,0,0,1,.7-.2,12.34,12.34,0,0,1,16.4,8.7,1.08,1.08,0,0,0,.8.9,12.19,12.19,0,0,1,6.9,7A8.21,8.21,0,0,1,82.3,30.1ZM41.1,40.7H69.8a9.46,9.46,0,0,0,9.6-8.3A9.6,9.6,0,0,0,72.6,22a1.83,1.83,0,0,1-1.4-1.8,9.45,9.45,0,0,0-13.7-7.1c-2.1,1.1-2.7.8-3.4-1.4a13.65,13.65,0,0,0-26,.6c-.5,1.6-1.2,1.9-2.6,1.1a9.42,9.42,0,0,0-14.2,7,1.62,1.62,0,0,1-1.2,1.5,6.89,6.89,0,0,0-.8.3,9.55,9.55,0,0,0,3.5,18.5ZM3,66.5H22.1V61.2H3Zm28.8,0H50.9V61.2H31.8Zm28.7-5.3v5.3H79.6V61.2Z"/><path class="cls-1" d="M57.6,81.6V70.7c.3,0,.5-.1.7-.1H82.2V81.5C74.1,81.6,65.9,81.6,57.6,81.6Zm2.9-2.8h19V73.4h-19Z"/><path class="cls-1" d="M.3,70.7H25V81.6H.3Zm21.8,2.8H3v5.3H22.1Z"/><path class="cls-1" d="M29,81.6V70.8H53.7V81.6Zm21.8-2.7V73.5h-19v5.4Z"/><path class="cls-2" d="M42.6,36.6v2.6H40V36.6Z"/><path class="cls-2" d="M61.8,36.6h2.6v2.7H61.8Z"/><path class="cls-2" d="M20.8,36.6v2.6H18.1V36.6Z"/><path class="cls-2" d="M67.3,36.6h2.6v2.6H67.3Z"/><path class="cls-2" d="M15.3,36.6v2.6H12.6V36.6Z"/><path class="cls-2" d="M59,39.3H56.4V36.7H59Z"/><path class="cls-2" d="M48.1,39.2H45.4V36.6h2.7Z"/><path class="cls-2" d="M34.5,39.2V37.1a.64.64,0,0,1,.5-.5,16.13,16.13,0,0,1,2.2,0v2.7A25.28,25.28,0,0,0,34.5,39.2Z"/><path class="cls-2" d="M31.7,36.6v2.6H29.1V36.6Z"/><path class="cls-2" d="M53.6,39.3H51V36.7h2.6Z"/><path class="cls-2" d="M26.2,36.6v2.6H23.5V36.6Z"/><path class="cls-2" d="M4.5,62.5H7.1v2.6H4.5Z"/><path class="cls-2" d="M33.1,65.2V62.6h2.6v2.6Z"/><path class="cls-2" d="M64.5,65.2H61.9V62.6h2.6Z"/><path class="cls-2" d="M64.5,74.8v2.6H61.9V74.8Z"/><path class="cls-2" d="M4.4,77.4V74.8H7.1v2.6Z"/><path class="cls-2" d="M35.8,74.8v2.6H33.2V74.8Z"/></svg>